<svg width="283" height="1887" viewBox="0 0 283 1887" fill="none" xmlns="http://www.w3.org/2000/svg">
<g clip-path="url(#clip0_235_4)">
<path d="M107.965 80.9147L108.619 45.1466C108.63 44.3285 109.107 43.591 109.839 43.2409L134.127 31.6333C135.554 30.9514 137.208 32.0009 137.217 33.5897L137.431 68.9431C137.435 69.7776 136.962 70.5376 136.21 70.897L111.054 82.9192C109.608 83.6103 107.936 82.5219 107.962 80.9083L107.965 80.9147Z" stroke="#1D1D1B" stroke-width="2" stroke-miterlimit="10"/>
<path d="M117.486 105.479C128.905 100.021 133.698 86.2575 128.192 74.7362C122.686 63.215 108.965 58.2991 97.5463 63.7564C86.1274 69.2137 81.3343 82.9775 86.8405 94.4988C92.3467 106.02 106.067 110.936 117.486 105.479Z" stroke="#1D1D1B" stroke-width="2" stroke-miterlimit="10"/>
<path d="M180.413 75.4054C191.832 69.9481 196.625 56.1843 191.119 44.663C185.613 33.1417 171.892 28.2259 160.474 33.6832C149.055 39.1404 144.262 52.9043 149.768 64.4256C155.274 75.9469 168.994 80.8627 180.413 75.4054Z" stroke="#1D1D1B" stroke-width="2" stroke-miterlimit="10"/>
<path d="M170.444 54.5438L134.035 24.9141C131.643 22.9663 132.074 19.1919 134.838 17.8711L143.398 13.7798C143.906 13.5371 145.351 12.9262 145.016 13.3812C134.719 27.2875 159.307 13.6646 146.393 25.7788" stroke="#1D1D1B" stroke-width="2" stroke-miterlimit="10" stroke-linecap="round"/>
<path d="M109.839 43.2404L100.208 34.4209" stroke="#1D1D1B" stroke-width="2" stroke-miterlimit="10"/>
<path d="M94.7266 37.041L109.534 29.9641" stroke="#1D1D1B" stroke-width="2" stroke-miterlimit="10" stroke-linecap="round"/>
</g>
<g clip-path="url(#clip1_235_4)">
<path d="M133.515 1131.36L165.075 1114.52C165.795 1114.13 166.671 1114.18 167.334 1114.65L189.299 1130.22C190.589 1131.13 190.478 1133.09 189.095 1133.87L158.32 1151.27C157.593 1151.68 156.698 1151.64 156.018 1151.15L133.269 1135.04C131.961 1134.11 132.097 1132.12 133.519 1131.35L133.515 1131.36Z" stroke="#1D1D1B" stroke-width="2" stroke-miterlimit="10"/>
<path d="M116.695 1151.64C127.022 1158.96 141.378 1156.44 148.76 1146.02C156.142 1135.6 153.755 1121.22 143.428 1113.91C133.101 1106.59 118.745 1109.11 111.363 1119.53C103.981 1129.94 106.368 1144.32 116.695 1151.64Z" stroke="#1D1D1B" stroke-width="2" stroke-miterlimit="10"/>
<path d="M173.604 1191.96C183.931 1199.27 198.286 1196.76 205.668 1186.34C213.051 1175.92 210.663 1161.54 200.337 1154.23C190.01 1146.91 175.654 1149.42 168.272 1159.84C160.89 1170.26 163.277 1184.64 173.604 1191.96Z" stroke="#1D1D1B" stroke-width="2" stroke-miterlimit="10"/>
<path d="M186.97 1173.09L195.122 1126.86C195.658 1123.83 199.165 1122.36 201.664 1124.14L209.406 1129.62C209.865 1129.95 211.102 1130.91 210.542 1130.84C193.382 1128.62 217.253 1143.46 200.384 1138.08" stroke="#1D1D1B" stroke-width="2" stroke-miterlimit="10" stroke-linecap="round"/>
<path d="M167.333 1114.65L170.347 1101.95" stroke="#1D1D1B" stroke-width="2" stroke-miterlimit="10"/>
<path d="M165.389 1098.43L178.781 1107.92" stroke="#1D1D1B" stroke-width="2" stroke-miterlimit="10" stroke-linecap="round"/>
</g>
<g clip-path="url(#clip2_235_4)">
<path d="M107.787 1424.12L174.306 1503.6C174.306 1503.6 176.351 1501.65 177.677 1499.94C178.92 1498.36 181.483 1499.27 181.395 1501.3C181.328 1502.95 180.638 1505.34 178.81 1508.83C178.81 1508.83 215.411 1541.47 217.79 1558.33C220.173 1575.2 223.154 1586.47 197.042 1608.31L126.539 1526.56L29.9455 1414.55L49.3248 1397.84C49.3248 1397.84 68.4141 1387.46 107.802 1424.11L107.787 1424.12Z" fill="#8E74B2"/>
<path d="M179.858 1523.84L149.879 1502.39C149.879 1502.39 131.463 1524.7 126.554 1526.56L156.793 1561.63C156.793 1561.63 183.932 1534.83 179.855 1523.83L179.858 1523.84Z" fill="black"/>
<path d="M166.951 1506.92L150.223 1497.7L132.507 1477.15L139.341 1472.95L166.951 1506.92Z" fill="black"/>
<path d="M136.332 1469.46L129.5 1473.67L111.612 1452.94L103.288 1433.09L136.332 1469.46Z" fill="black"/>
<path d="M95.3407 1439.95C95.3407 1439.95 73.1481 1454.35 68.2239 1458.93L41.66 1428.12C41.66 1428.12 63.8668 1409.31 72.4457 1411.04L95.3407 1439.95Z" fill="black"/>
<path d="M216.772 1564.29C216.153 1562.89 210.836 1575.83 215.444 1582.33C215.444 1582.33 221.44 1574.79 216.772 1564.29Z" fill="#FFE601"/>
<path d="M27.9563 1492.95L96.8002 1570.43C96.8002 1570.43 94.5624 1572.17 92.6842 1573.24C90.9305 1574.23 91.4707 1576.9 93.4706 1577.11C95.1112 1577.29 97.5903 1576.97 101.304 1575.66C101.304 1575.66 133.36 1617.91 150.385 1617.23C166.089 1616.6 170.071 1617.34 197.041 1608.31L126.539 1526.56L29.9451 1414.55L10.5658 1431.26C10.5658 1431.26 -2.5072 1448.62 27.9591 1492.97L27.9563 1492.95Z" fill="#8E74B2"/>
<path d="M116.017 1578.89L99.2167 1546.08C99.2167 1546.08 123.985 1531.14 126.553 1526.56L156.792 1561.63C156.792 1561.63 126.311 1584.55 116.017 1578.89Z" fill="black"/>
<path d="M101.18 1563.64L94.5146 1545.74L76.8014 1525.2L71.6398 1531.35L101.18 1563.64Z" fill="black"/>
<path d="M68.6333 1527.86L73.7921 1521.7L55.9184 1500.97L37.5057 1489.83L68.6333 1527.86Z" fill="black"/>
<path d="M45.4535 1482.97C45.4535 1482.97 62.9668 1463.14 68.2239 1458.93L41.66 1428.12C41.66 1428.12 19.786 1447.32 20.233 1456.06L45.4535 1482.97Z" fill="black"/>
<path d="M81.193 1804.36L101.055 1702.64C101.055 1702.64 98.2458 1702.28 96.0815 1702.32C94.0676 1702.36 93.1639 1699.79 94.7839 1698.58C96.1102 1697.59 98.4005 1696.6 102.266 1695.85C102.266 1695.85 112.884 1651.55 124.488 1639.07C131.32 1631.74 133.634 1623.83 141.194 1619.9C146.486 1617.16 154.334 1616.35 168.07 1619.04L148.953 1725.29L122.767 1870.87L97.5845 1866.35C97.5845 1866.35 77.4965 1858.05 81.1811 1804.38L81.193 1804.36Z" fill="#B7B7B7"/>
<path d="M113.297 1685.58L115.523 1722.38C115.523 1722.38 144.453 1722.65 148.98 1725.27L157.179 1679.69C157.179 1679.69 119.277 1675.47 113.294 1685.57L113.297 1685.58Z" fill="black"/>
<path d="M108.282 1706.27L111.647 1725.08L106.846 1751.77L99.266 1749.1L108.282 1706.27Z" fill="black"/>
<path d="M98.4488 1753.63L106.029 1756.3L101.185 1783.24L91.0196 1802.2L98.4488 1753.63Z" fill="black"/>
<path d="M101.34 1804.07C101.34 1804.07 126.514 1812.24 133.166 1813.17L125.957 1853.21C125.957 1853.21 97.3627 1847.81 93.2958 1840.06L101.325 1804.08L101.34 1804.07Z" fill="black"/>
<path d="M131.333 1631.25C129.85 1630.86 144.032 1628.59 146.194 1620.92C153.928 1629.76 149.785 1636.11 131.333 1631.25Z" fill="#FFE601"/>
<path d="M184.941 1823.04L201.774 1720.77C201.774 1720.77 204.528 1721.41 206.547 1722.2C208.433 1722.94 210.158 1720.84 209.07 1719.15C208.177 1717.76 206.364 1716.04 203 1713.97C203 1713.97 217.902 1667.26 211.374 1651.52C204.846 1635.78 201.66 1624.56 168.085 1619.04L148.968 1725.29L122.781 1870.87L147.963 1875.39C147.963 1875.39 169.686 1874.62 184.938 1823.02L184.941 1823.04Z" fill="#B7B7B7"/>
<path d="M196.267 1700.52L181.362 1734.24C181.362 1734.24 154.155 1724.41 148.983 1725.29L157.182 1679.71C157.182 1679.71 194.181 1688.96 196.267 1700.52Z" fill="black"/>
<path d="M193.754 1721.64L184.044 1738.1L179.243 1764.79L187.275 1764.94L193.754 1721.64Z" fill="black"/>
<path d="M186.458 1769.47L178.426 1769.32L173.581 1796.27L176.494 1817.6L186.458 1769.47Z" fill="black"/>
<path d="M166.174 1815.73C166.174 1815.73 139.731 1814.61 133.166 1813.17L125.957 1853.21C125.957 1853.21 154.638 1858.11 161.159 1852.27L166.174 1815.73Z" fill="black"/>
<path d="M207.46 1646.89C207.644 1648.42 196.481 1639.98 197.136 1632.03C197.136 1632.03 206.134 1635.47 207.46 1646.89Z" fill="#FFE601"/>
<path d="M165.593 1618.81C166.007 1620.98 168.102 1622.4 170.271 1621.98C172.44 1621.57 173.862 1619.48 173.447 1617.31C173.033 1615.14 170.938 1613.71 168.769 1614.13C166.6 1614.54 165.178 1616.64 165.593 1618.81Z" fill="black"/>
<path d="M169.96 1618.68C170.65 1622.29 174.139 1624.66 177.751 1623.97C181.363 1623.28 183.732 1619.79 183.042 1616.18C182.351 1612.56 178.863 1610.2 175.251 1610.89C171.638 1611.58 169.27 1615.06 169.96 1618.68Z" fill="black"/>
<path d="M173.371 1621.79C174.17 1625.97 178.21 1628.72 182.393 1627.92C186.576 1627.12 189.319 1623.08 188.519 1618.89C187.72 1614.71 183.681 1611.97 179.498 1612.77C175.314 1613.57 172.571 1617.61 173.371 1621.79Z" fill="black"/>
<path d="M186.594 1624.76C187.978 1632 194.97 1636.75 202.21 1635.36C209.451 1633.98 214.2 1626.99 212.816 1619.75C211.432 1612.51 204.44 1607.76 197.199 1609.14C189.958 1610.52 185.21 1617.52 186.594 1624.76Z" fill="black"/>
<path d="M173.652 1609.89C174.681 1615.27 179.878 1618.8 185.259 1617.77C190.641 1616.74 194.17 1611.55 193.142 1606.17C192.113 1600.78 186.916 1597.25 181.535 1598.28C176.153 1599.31 172.624 1604.51 173.652 1609.89Z" fill="black"/>
<path d="M180.317 1607.53C181.907 1615.85 189.938 1621.3 198.256 1619.71C206.573 1618.12 212.027 1610.09 210.437 1601.77C208.848 1593.46 200.817 1588 192.499 1589.59C184.182 1591.18 178.728 1599.21 180.317 1607.53Z" fill="black"/>
<path d="M189.266 1620.88C190.618 1627.96 197.453 1632.6 204.531 1631.25C211.608 1629.89 216.25 1623.06 214.897 1615.98C213.544 1608.9 206.71 1604.26 199.632 1605.61C192.554 1606.97 187.913 1613.8 189.266 1620.88Z" fill="black"/>
<path d="M203.311 1609.49C204.989 1618.27 213.469 1624.03 222.251 1622.35C231.033 1620.67 236.792 1612.19 235.114 1603.41C233.435 1594.63 224.955 1588.87 216.173 1590.55C207.391 1592.22 201.632 1600.71 203.311 1609.49Z" fill="black"/>
</g>
<defs>
<clipPath id="clip0_235_4">
<rect width="117" height="73" fill="white" transform="translate(65 50.4512) rotate(-25.544)"/>
</clipPath>
<clipPath id="clip1_235_4">
<rect width="117" height="73" fill="white" transform="translate(139.202 1079) rotate(35.3172)"/>
</clipPath>
<clipPath id="clip2_235_4">
<rect width="488" height="194" fill="white" transform="translate(190.598 1370.47) rotate(79.181)"/>
</clipPath>
</defs>
</svg>
