<svg width="345" height="1899" viewBox="0 0 345 1899" fill="none" xmlns="http://www.w3.org/2000/svg">
<g clip-path="url(#clip0_235_3)">
<path d="M137.514 52.3608L169.074 35.5153C169.794 35.1272 170.671 35.1842 171.333 35.6537L193.298 51.2156C194.588 52.1297 194.477 54.0857 193.094 54.8674L162.319 72.2688C161.592 72.6787 160.698 72.6351 160.018 72.1533L137.268 56.0355C135.96 55.1089 136.096 53.1178 137.519 52.355L137.514 52.3608Z" stroke="#1D1D1B" stroke-width="2" stroke-miterlimit="10"/>
<path d="M120.695 72.6387C131.021 79.9552 145.377 77.4397 152.759 67.0203C160.141 56.6009 157.754 42.2232 147.427 34.9068C137.101 27.5903 122.745 30.1058 115.363 40.5252C107.981 50.9446 110.368 65.3223 120.695 72.6387Z" stroke="#1D1D1B" stroke-width="2" stroke-miterlimit="10"/>
<path d="M177.603 112.957C187.93 120.274 202.286 117.758 209.668 107.339C217.05 96.9193 214.663 82.5415 204.336 75.2251C194.009 67.9087 179.653 70.4241 172.271 80.8435C164.889 91.2629 167.276 105.641 177.603 112.957Z" stroke="#1D1D1B" stroke-width="2" stroke-miterlimit="10"/>
<path d="M190.97 94.0919L199.121 47.8636C199.658 44.8264 203.164 43.3645 205.664 45.1352L213.406 50.6204C213.865 50.9457 215.102 51.9103 214.541 51.839C197.381 49.6169 221.253 64.4595 204.384 59.0789" stroke="#1D1D1B" stroke-width="2" stroke-miterlimit="10" stroke-linecap="round"/>
<path d="M171.333 35.6538L174.347 22.9473" stroke="#1D1D1B" stroke-width="2" stroke-miterlimit="10"/>
<path d="M169.389 19.4346L182.78 28.9224" stroke="#1D1D1B" stroke-width="2" stroke-miterlimit="10" stroke-linecap="round"/>
</g>
<g clip-path="url(#clip1_235_3)">
<path d="M117.155 1861.87L110.888 1826.64C110.742 1825.84 111.067 1825.02 111.718 1824.54L133.306 1808.46C134.575 1807.51 136.401 1808.22 136.716 1809.78L143.754 1844.43C143.92 1845.25 143.602 1846.08 142.933 1846.58L120.573 1863.24C119.288 1864.19 117.436 1863.45 117.151 1861.86L117.155 1861.87Z" stroke="#1D1D1B" stroke-width="2" stroke-miterlimit="10"/>
<path d="M131.241 1884.13C141.391 1876.57 143.436 1862.14 135.808 1851.9C128.18 1841.66 113.769 1839.48 103.619 1847.04C93.4688 1854.6 91.4242 1869.03 99.0519 1879.27C106.68 1889.51 121.091 1891.69 131.241 1884.13Z" stroke="#1D1D1B" stroke-width="2" stroke-miterlimit="10"/>
<path d="M187.175 1842.47C197.325 1834.91 199.37 1820.48 191.742 1810.24C184.114 1799.99 169.703 1797.82 159.553 1805.38C149.403 1812.94 147.358 1827.37 154.986 1837.61C162.614 1847.85 177.025 1850.03 187.175 1842.47Z" stroke="#1D1D1B" stroke-width="2" stroke-miterlimit="10"/>
<path d="M173.364 1823.92L131.918 1801.88C129.196 1800.43 128.889 1796.65 131.346 1794.82L138.955 1789.15C139.406 1788.81 140.706 1787.94 140.465 1788.45C133.048 1804.08 154.542 1785.97 144.211 1800.35" stroke="#1D1D1B" stroke-width="2" stroke-miterlimit="10" stroke-linecap="round"/>
<path d="M111.718 1824.54L100.565 1817.75" stroke="#1D1D1B" stroke-width="2" stroke-miterlimit="10"/>
<path d="M95.6919 1821.37L108.854 1811.57" stroke="#1D1D1B" stroke-width="2" stroke-miterlimit="10" stroke-linecap="round"/>
</g>
<g clip-path="url(#clip2_235_3)">
<path d="M98.5466 886.751L80.8568 784.628C80.8568 784.628 78.1088 785.291 76.1048 786.103C74.235 786.85 72.4782 784.77 73.5682 783.065C74.454 781.671 76.2528 779.943 79.583 777.844C79.583 777.844 64.2876 731.246 70.6816 715.471C77.0805 699.681 80.156 688.43 113.7 682.63L133.699 788.715L161.096 934.064L135.948 938.804C135.948 938.804 114.227 938.213 98.5325 886.746L98.5466 886.751Z" fill="#8E74B2"/>
<path d="M86.2047 764.33L101.383 797.923C101.383 797.923 128.506 787.854 133.685 788.709L125.109 743.205C125.109 743.205 88.1912 752.778 86.1998 764.344L86.2047 764.33Z" fill="black"/>
<path d="M88.8838 785.444L98.7351 801.806L103.756 828.47L95.7382 828.675L88.8838 785.444Z" fill="black"/>
<path d="M96.5885 833.21L104.612 832.99L109.691 859.898L106.937 881.246L96.5885 833.21Z" fill="black"/>
<path d="M117.254 879.297C117.254 879.297 143.677 877.965 150.236 876.469L157.766 916.448C157.766 916.448 129.119 921.589 122.563 915.792L117.254 879.297Z" fill="black"/>
<path d="M74.553 710.822C74.388 712.341 85.4766 703.813 84.7474 695.882C84.7474 695.882 75.7769 699.401 74.553 710.822Z" fill="#FFE601"/>
<path d="M202.134 867.23L181.427 765.675C181.427 765.675 184.238 765.288 186.395 765.311C188.411 765.331 189.281 762.753 187.658 761.564C186.327 760.589 184.022 759.623 180.153 758.891C180.153 758.891 173.609 706.261 158.537 698.313C144.635 690.982 141.56 688.346 113.7 682.63L133.699 788.714L161.096 934.063L186.243 929.323C186.243 929.323 206.259 920.861 202.139 867.216L202.134 867.23Z" fill="#8E74B2"/>
<path d="M169.046 748.715L167.124 785.532C167.124 785.532 138.202 786.038 133.685 788.709L125.11 743.204C125.11 743.204 162.976 738.661 169.046 748.715Z" fill="black"/>
<path d="M174.232 769.354L171.021 788.186L176.047 814.835L183.594 812.108L174.232 769.354Z" fill="black"/>
<path d="M184.449 816.628L176.898 819.369L181.963 846.271L192.305 865.146L184.449 816.628Z" fill="black"/>
<path d="M181.989 867.095C181.989 867.095 156.892 875.469 150.236 876.469L157.766 916.448C157.766 916.448 186.316 910.812 190.315 903.022L181.989 867.095Z" fill="black"/>
<path d="M312.242 571.116L244.05 649.155C244.05 649.155 246.297 650.88 248.192 651.926C249.951 652.907 249.446 655.581 247.436 655.818C245.793 656.007 243.316 655.714 239.593 654.428C239.593 654.428 208.191 687.43 191.897 692.401C182.308 695.321 176.339 701.005 167.83 700.609C161.878 700.326 154.68 697.092 144.143 687.88L213.968 605.539L309.629 492.724L329.147 509.266C329.147 509.266 342.366 526.518 312.261 571.107L312.242 571.116Z" fill="#B7B7B7"/>
<path d="M224.901 657.777L241.428 624.827C241.428 624.827 216.535 610.084 213.935 605.543L183.981 640.868C183.981 640.868 214.657 663.526 224.896 657.791L224.901 657.777Z" fill="black"/>
<path d="M239.614 642.396L246.136 624.435L263.674 603.751L268.894 609.861L239.614 642.396Z" fill="black"/>
<path d="M271.875 606.349L266.654 600.239L284.357 579.358L302.661 568.051L271.875 606.349Z" fill="black"/>
<path d="M294.67 561.258C294.67 561.258 276.985 541.568 271.698 537.425L298.013 506.402C298.013 506.402 320.043 525.415 319.676 534.157L294.684 561.263L294.67 561.258Z" fill="black"/>
<path d="M182.05 695.741C183.137 696.822 169.73 691.671 164.015 697.22C161.756 685.696 168.523 682.283 182.05 695.741Z" fill="#FFE601"/>
<path d="M231.85 502.926L166.001 582.963C166.001 582.963 163.937 581.031 162.589 579.333C161.328 577.746 158.78 578.702 158.874 580.709C158.95 582.36 159.656 584.757 161.53 588.232C161.53 588.232 125.213 621.171 122.967 638.063C120.721 654.955 117.85 666.261 144.129 687.875L213.954 605.534L309.615 492.719L290.096 476.177C290.096 476.177 270.918 465.948 231.845 502.941L231.85 502.926Z" fill="#B7B7B7"/>
<path d="M160.61 603.247L190.414 581.55C190.414 581.55 209.022 603.698 213.94 605.53L183.986 640.854C183.986 640.854 156.62 614.289 160.61 603.247Z" fill="black"/>
<path d="M173.378 586.229L190.032 576.861L207.57 556.177L200.695 552.02L173.378 586.229Z" fill="black"/>
<path d="M203.676 548.508L210.551 552.665L228.254 531.784L236.43 511.87L203.676 548.508Z" fill="black"/>
<path d="M244.421 518.662C244.421 518.662 266.74 532.887 271.698 537.425L298.013 506.401C298.013 506.401 275.654 487.783 267.085 489.563L244.421 518.662Z" fill="black"/>
<path d="M124.035 644.026C124.64 642.613 130.064 655.515 125.513 662.061C125.513 662.061 119.453 654.575 124.035 644.026Z" fill="#FFE601"/>
<path d="M146.171 689.322C146.9 687.237 145.801 684.957 143.717 684.227C141.633 683.498 139.352 684.597 138.623 686.682C137.893 688.766 138.992 691.047 141.076 691.776C143.161 692.505 145.442 691.407 146.171 689.322Z" fill="black"/>
<path d="M142.327 687.245C143.542 683.774 141.712 679.975 138.24 678.761C134.769 677.546 130.97 679.376 129.756 682.848C128.542 686.319 130.371 690.118 133.843 691.332C137.314 692.547 141.113 690.717 142.327 687.245Z" fill="black"/>
<path d="M140.937 682.841C142.344 678.821 140.225 674.422 136.205 673.016C132.185 671.61 127.786 673.729 126.38 677.749C124.973 681.769 127.092 686.168 131.112 687.574C135.132 688.981 139.531 686.861 140.937 682.841Z" fill="black"/>
<path d="M130.985 673.643C133.419 666.684 129.752 659.07 122.793 656.635C115.834 654.201 108.22 657.87 105.786 664.828C103.352 671.787 107.019 679.402 113.978 681.836C120.937 684.27 128.551 680.602 130.985 673.643Z" fill="black"/>
<path d="M134.726 692.995C136.535 687.823 133.809 682.163 128.637 680.354C123.466 678.545 117.806 681.271 115.997 686.444C114.188 691.616 116.914 697.275 122.086 699.084C127.258 700.893 132.917 698.167 134.726 692.995Z" fill="black"/>
<path d="M127.776 691.695C130.572 683.701 126.359 674.955 118.366 672.159C110.373 669.363 101.627 673.576 98.8307 681.57C96.0347 689.563 100.248 698.309 108.241 701.105C116.234 703.901 124.98 699.688 127.776 691.695Z" fill="black"/>
<path d="M126.729 675.658C129.108 668.856 125.523 661.413 118.721 659.033C111.919 656.654 104.477 660.24 102.097 667.042C99.7179 673.844 103.303 681.287 110.105 683.666C116.907 686.046 124.35 682.46 126.729 675.658Z" fill="black"/>
<path d="M108.865 678.47C111.817 670.03 107.369 660.795 98.929 657.843C90.4893 654.891 81.2544 659.339 78.3021 667.779C75.3498 676.22 79.7982 685.455 88.2379 688.407C96.6775 691.359 105.912 686.91 108.865 678.47Z" fill="black"/>
</g>
<defs>
<clipPath id="clip0_235_3">
<rect width="117" height="73" fill="white" transform="translate(143.201) rotate(35.3172)"/>
</clipPath>
<clipPath id="clip1_235_3">
<rect width="117" height="73" fill="white" transform="translate(69.1152 1840.27) rotate(-36.6798)"/>
</clipPath>
<clipPath id="clip2_235_3">
<rect width="488" height="194" fill="white" transform="translate(0 891.633) rotate(-70.7205)"/>
</clipPath>
</defs>
</svg>
