<svg width="210" height="1485" viewBox="0 0 210 1485" fill="none" xmlns="http://www.w3.org/2000/svg">
<g clip-path="url(#clip0_234_2)">
<path d="M144.695 215.002V2.45654L-5.59196 2.45654V215.002H144.695Z" fill="#888989" stroke="#1D1D1B" stroke-miterlimit="10"/>
<path d="M113.464 343.434L113.464 215.002H-5.59186L-5.59186 343.434H113.464Z" fill="#888989" stroke="#1D1D1B" stroke-miterlimit="10"/>
<path d="M133.833 205.037V14.207L7.98304 14.207L7.98304 205.037H133.833Z" fill="#888989" stroke="#1D1D1B" stroke-miterlimit="10"/>
<path d="M144.695 2.45654L183.366 72.364V254.698C183.366 254.837 163.53 233.818 163.429 233.717L144.695 215.002V2.45654Z" fill="#888989" stroke="#1D1D1B" stroke-miterlimit="10"/>
<path d="M183.366 254.698L158.067 256.597L113.464 214.99H144.695L163.505 233.78C163.581 233.856 183.468 254.685 183.366 254.685V254.698Z" fill="#888989" stroke="#1D1D1B" stroke-miterlimit="10"/>
<path d="M158.067 256.597V372.19C158.067 372.266 157.978 372.316 157.915 372.278L113.464 343.434V215.002L158.067 256.61V256.597Z" fill="#888989" stroke="#1D1D1B" stroke-miterlimit="10"/>
<path d="M-5.59177 343.421L40.976 369.784L157.636 372.367C157.763 372.367 157.814 372.202 157.712 372.126L113.477 343.421H-5.57909H-5.59177Z" fill="#888989" stroke="#1D1D1B" stroke-miterlimit="10"/>
<path d="M152.3 31.8452L164.024 49.952V72.5792L152.3 58.0304V31.8452Z" fill="#5C4C9A" stroke="#1D1D1B" stroke-miterlimit="10"/>
<path d="M152.3 79.7837L164.024 97.8778V120.518L152.3 105.969V79.7837Z" fill="#5C4C9A" stroke="#1D1D1B" stroke-miterlimit="10"/>
<path d="M152.211 128.571L163.936 146.678V169.305L152.211 154.756V128.571Z" fill="#5C4C9A" stroke="#1D1D1B" stroke-miterlimit="10"/>
<path d="M152.211 173.939L163.936 192.046V214.673L152.211 200.125V173.939Z" fill="#5C4C9A" stroke="#1D1D1B" stroke-miterlimit="10"/>
<path d="M169.449 55.7388L181.186 73.8456V96.4727L169.449 81.924V55.7388Z" fill="#5C4C9A" stroke="#1D1D1B" stroke-miterlimit="10"/>
<path d="M169.449 103.677L181.186 121.784V144.411L169.449 129.862V103.677Z" fill="#5C4C9A" stroke="#1D1D1B" stroke-miterlimit="10"/>
<path d="M169.361 152.477L181.085 170.571V193.211L169.361 178.662V152.477Z" fill="#5C4C9A" stroke="#1D1D1B" stroke-miterlimit="10"/>
<path d="M169.361 197.833L181.085 215.939V238.566L169.361 224.018V197.833Z" fill="#5C4C9A" stroke="#1D1D1B" stroke-miterlimit="10"/>
<path d="M123.211 248.912L134.948 267.018V289.646L123.211 275.097V248.912Z" fill="#5C4C9A" stroke="#1D1D1B" stroke-miterlimit="10"/>
<path d="M122.096 293.685L133.833 311.791V334.419L122.096 319.87V293.685Z" fill="#5C4C9A" stroke="#1D1D1B" stroke-miterlimit="10"/>
</g>
<g clip-path="url(#clip1_234_2)">
<path d="M143.695 948.002V735.457H-6.59196V948.002H143.695Z" fill="#888989" stroke="#1D1D1B" stroke-miterlimit="10"/>
<path d="M112.464 1076.43L112.464 948.002H-6.59186L-6.59186 1076.43H112.464Z" fill="#888989" stroke="#1D1D1B" stroke-miterlimit="10"/>
<path d="M132.833 938.037V747.207H6.98304L6.98304 938.037H132.833Z" fill="#888989" stroke="#1D1D1B" stroke-miterlimit="10"/>
<path d="M143.695 735.457L182.366 805.364V987.698C182.366 987.837 162.53 966.818 162.429 966.717L143.695 948.002V735.457Z" fill="#888989" stroke="#1D1D1B" stroke-miterlimit="10"/>
<path d="M182.366 987.698L157.067 989.597L112.464 947.99H143.695L162.505 966.78C162.581 966.856 182.468 987.685 182.366 987.685V987.698Z" fill="#888989" stroke="#1D1D1B" stroke-miterlimit="10"/>
<path d="M157.067 989.597V1105.19C157.067 1105.27 156.978 1105.32 156.915 1105.28L112.464 1076.43V948.002L157.067 989.61V989.597Z" fill="#888989" stroke="#1D1D1B" stroke-miterlimit="10"/>
<path d="M-6.59177 1076.42L39.976 1102.78L156.636 1105.37C156.763 1105.37 156.814 1105.2 156.712 1105.13L112.477 1076.42H-6.57909H-6.59177Z" fill="#888989" stroke="#1D1D1B" stroke-miterlimit="10"/>
<path d="M151.3 764.845L163.024 782.952V805.579L151.3 791.03V764.845Z" fill="#5C4C9A" stroke="#1D1D1B" stroke-miterlimit="10"/>
<path d="M151.3 812.784L163.024 830.878V853.518L151.3 838.969V812.784Z" fill="#5C4C9A" stroke="#1D1D1B" stroke-miterlimit="10"/>
<path d="M151.211 861.571L162.936 879.678V902.305L151.211 887.756V861.571Z" fill="#5C4C9A" stroke="#1D1D1B" stroke-miterlimit="10"/>
<path d="M151.211 906.939L162.936 925.046V947.673L151.211 933.125V906.939Z" fill="#5C4C9A" stroke="#1D1D1B" stroke-miterlimit="10"/>
<path d="M168.449 788.739L180.186 806.846V829.473L168.449 814.924V788.739Z" fill="#5C4C9A" stroke="#1D1D1B" stroke-miterlimit="10"/>
<path d="M168.449 836.677L180.186 854.784V877.411L168.449 862.862V836.677Z" fill="#5C4C9A" stroke="#1D1D1B" stroke-miterlimit="10"/>
<path d="M168.361 885.477L180.085 903.571V926.211L168.361 911.662V885.477Z" fill="#5C4C9A" stroke="#1D1D1B" stroke-miterlimit="10"/>
<path d="M168.361 930.833L180.085 948.939V971.566L168.361 957.018V930.833Z" fill="#5C4C9A" stroke="#1D1D1B" stroke-miterlimit="10"/>
<path d="M122.211 981.912L133.948 1000.02V1022.65L122.211 1008.1V981.912Z" fill="#5C4C9A" stroke="#1D1D1B" stroke-miterlimit="10"/>
<path d="M121.096 1026.68L132.833 1044.79V1067.42L121.096 1052.87V1026.68Z" fill="#5C4C9A" stroke="#1D1D1B" stroke-miterlimit="10"/>
</g>
<g clip-path="url(#clip2_234_2)">
<path d="M159.845 550.373L159.845 279.135H-31.927L-31.927 550.373H159.845Z" fill="#888989" stroke="#1D1D1B" stroke-miterlimit="10"/>
<path d="M119.993 714.27L119.993 550.373H-31.9269V714.27H119.993Z" fill="#888989" stroke="#1D1D1B" stroke-miterlimit="10"/>
<path d="M145.984 537.656L145.984 294.13H-14.6048L-14.6048 537.656H145.984Z" fill="#888989" stroke="#1D1D1B" stroke-miterlimit="10"/>
<path d="M159.845 279.135L209.191 368.346L209.191 601.03C209.191 601.208 183.879 574.385 183.75 574.255L159.845 550.373V279.135Z" fill="#888989" stroke="#1D1D1B" stroke-miterlimit="10"/>
<path d="M209.191 601.03L176.909 603.454L119.993 550.357H159.845L183.847 574.336C183.944 574.433 209.321 601.014 209.191 601.014V601.03Z" fill="#888989" stroke="#1D1D1B" stroke-miterlimit="10"/>
<path d="M176.909 603.454V750.966C176.909 751.063 176.795 751.128 176.715 751.079L119.993 714.27V550.373L176.909 603.47V603.454Z" fill="#888989" stroke="#1D1D1B" stroke-miterlimit="10"/>
<path d="M-31.927 714.253L27.4953 747.896L176.359 751.192C176.52 751.192 176.585 750.982 176.456 750.885L120.009 714.253H-31.9109H-31.927Z" fill="#888989" stroke="#1D1D1B" stroke-miterlimit="10"/>
<path d="M169.55 316.639L184.51 339.745V368.621L169.55 350.055V316.639Z" fill="#5C4C9A" stroke="#1D1D1B" stroke-miterlimit="10"/>
<path d="M169.55 377.815L184.51 400.906V429.798L169.55 411.231V377.815Z" fill="#5C4C9A" stroke="#1D1D1B" stroke-miterlimit="10"/>
<path d="M169.436 440.074L184.397 463.181V492.056L169.436 473.49V440.074Z" fill="#5C4C9A" stroke="#1D1D1B" stroke-miterlimit="10"/>
<path d="M169.436 497.971L184.397 521.078V549.953L169.436 531.387V497.971Z" fill="#5C4C9A" stroke="#1D1D1B" stroke-miterlimit="10"/>
<path d="M191.433 347.13L206.41 370.237V399.113L191.433 380.546V347.13Z" fill="#5C4C9A" stroke="#1D1D1B" stroke-miterlimit="10"/>
<path d="M191.433 408.307L206.41 431.413V460.289L191.433 441.723V408.307Z" fill="#5C4C9A" stroke="#1D1D1B" stroke-miterlimit="10"/>
<path d="M191.32 470.582L206.28 493.673V522.564L191.32 503.998V470.582Z" fill="#5C4C9A" stroke="#1D1D1B" stroke-miterlimit="10"/>
<path d="M191.32 528.462L206.28 551.569V580.444L191.32 561.878V528.462Z" fill="#5C4C9A" stroke="#1D1D1B" stroke-miterlimit="10"/>
<path d="M132.431 593.646L147.408 616.752V645.628L132.431 627.061V593.646Z" fill="#5C4C9A" stroke="#1D1D1B" stroke-miterlimit="10"/>
<path d="M131.007 650.783L145.984 673.89V702.765L131.007 684.199V650.783Z" fill="#5C4C9A" stroke="#1D1D1B" stroke-miterlimit="10"/>
</g>
<g clip-path="url(#clip3_234_2)">
<path d="M158.845 1283.37L158.845 1012.13H-32.927L-32.927 1283.37H158.845Z" fill="#888989" stroke="#1D1D1B" stroke-miterlimit="10"/>
<path d="M118.993 1447.27L118.993 1283.37H-32.9269V1447.27H118.993Z" fill="#888989" stroke="#1D1D1B" stroke-miterlimit="10"/>
<path d="M144.984 1270.66L144.984 1027.13H-15.6048L-15.6048 1270.66H144.984Z" fill="#888989" stroke="#1D1D1B" stroke-miterlimit="10"/>
<path d="M158.845 1012.13L208.191 1101.35L208.191 1334.03C208.191 1334.21 182.879 1307.38 182.75 1307.26L158.845 1283.37V1012.13Z" fill="#888989" stroke="#1D1D1B" stroke-miterlimit="10"/>
<path d="M208.191 1334.03L175.909 1336.45L118.993 1283.36H158.845L182.847 1307.34C182.944 1307.43 208.321 1334.01 208.191 1334.01V1334.03Z" fill="#888989" stroke="#1D1D1B" stroke-miterlimit="10"/>
<path d="M175.909 1336.45V1483.97C175.909 1484.06 175.795 1484.13 175.715 1484.08L118.993 1447.27V1283.37L175.909 1336.47V1336.45Z" fill="#888989" stroke="#1D1D1B" stroke-miterlimit="10"/>
<path d="M-32.927 1447.25L26.4953 1480.9L175.359 1484.19C175.52 1484.19 175.585 1483.98 175.456 1483.88L119.009 1447.25H-32.9109H-32.927Z" fill="#888989" stroke="#1D1D1B" stroke-miterlimit="10"/>
<path d="M168.55 1049.64L183.51 1072.75V1101.62L168.55 1083.05V1049.64Z" fill="#5C4C9A" stroke="#1D1D1B" stroke-miterlimit="10"/>
<path d="M168.55 1110.82L183.51 1133.91V1162.8L168.55 1144.23V1110.82Z" fill="#5C4C9A" stroke="#1D1D1B" stroke-miterlimit="10"/>
<path d="M168.436 1173.07L183.397 1196.18V1225.06L168.436 1206.49V1173.07Z" fill="#5C4C9A" stroke="#1D1D1B" stroke-miterlimit="10"/>
<path d="M168.436 1230.97L183.397 1254.08V1282.95L168.436 1264.39V1230.97Z" fill="#5C4C9A" stroke="#1D1D1B" stroke-miterlimit="10"/>
<path d="M190.433 1080.13L205.41 1103.24V1132.11L190.433 1113.55V1080.13Z" fill="#5C4C9A" stroke="#1D1D1B" stroke-miterlimit="10"/>
<path d="M190.433 1141.31L205.41 1164.41V1193.29L190.433 1174.72V1141.31Z" fill="#5C4C9A" stroke="#1D1D1B" stroke-miterlimit="10"/>
<path d="M190.32 1203.58L205.28 1226.67V1255.56L190.32 1237V1203.58Z" fill="#5C4C9A" stroke="#1D1D1B" stroke-miterlimit="10"/>
<path d="M190.32 1261.46L205.28 1284.57V1313.44L190.32 1294.88V1261.46Z" fill="#5C4C9A" stroke="#1D1D1B" stroke-miterlimit="10"/>
<path d="M131.431 1326.65L146.408 1349.75V1378.63L131.431 1360.06V1326.65Z" fill="#5C4C9A" stroke="#1D1D1B" stroke-miterlimit="10"/>
<path d="M130.007 1383.78L144.984 1406.89V1435.76L130.007 1417.2V1383.78Z" fill="#5C4C9A" stroke="#1D1D1B" stroke-miterlimit="10"/>
</g>
<defs>
<clipPath id="clip0_234_2">
<rect width="373" height="192" fill="white" transform="matrix(0 1 -1 0 184 0)"/>
</clipPath>
<clipPath id="clip1_234_2">
<rect width="373" height="192" fill="white" transform="matrix(0 1 -1 0 183 733)"/>
</clipPath>
<clipPath id="clip2_234_2">
<rect width="476" height="245" fill="white" transform="matrix(0 1 -1 0 210 276)"/>
</clipPath>
<clipPath id="clip3_234_2">
<rect width="476" height="245" fill="white" transform="matrix(0 1 -1 0 209 1009)"/>
</clipPath>
</defs>
</svg>
