<svg width="226" height="1485" viewBox="0 0 226 1485" fill="none" xmlns="http://www.w3.org/2000/svg">
<g clip-path="url(#clip0_232_2)">
<path d="M73.0132 215.002L73.0132 2.45654L241.303 2.45654V215.002H73.0132Z" fill="#888989" stroke="#1D1D1B" stroke-miterlimit="10"/>
<path d="M107.985 343.434L107.985 215.002H241.303V343.434H107.985Z" fill="#888989" stroke="#1D1D1B" stroke-miterlimit="10"/>
<path d="M85.1772 205.037L85.1772 14.207L226.102 14.207V205.037H85.1772Z" fill="#888989" stroke="#1D1D1B" stroke-miterlimit="10"/>
<path d="M73.0132 2.45654L29.7095 72.364L29.7095 254.698C29.7095 254.837 51.922 233.818 52.0355 233.717L73.0132 215.002L73.0132 2.45654Z" fill="#888989" stroke="#1D1D1B" stroke-miterlimit="10"/>
<path d="M29.7099 254.698L58.0397 256.597L107.986 214.99H73.0136L51.9508 233.78C51.8656 233.856 29.5964 254.685 29.7099 254.685V254.698Z" fill="#888989" stroke="#1D1D1B" stroke-miterlimit="10"/>
<path d="M58.0396 256.597L58.0396 372.19C58.0396 372.266 58.1389 372.316 58.2099 372.278L107.986 343.434V215.002L58.0396 256.61V256.597Z" fill="#888989" stroke="#1D1D1B" stroke-miterlimit="10"/>
<path d="M241.303 343.421L189.157 369.784L58.522 372.367C58.3801 372.367 58.3233 372.202 58.4369 372.126L107.971 343.421H241.289H241.303Z" fill="#888989" stroke="#1D1D1B" stroke-miterlimit="10"/>
<path d="M64.4974 31.8452L51.3687 49.952V72.5792L64.4974 58.0304V31.8452Z" fill="#5C4C9A" stroke="#1D1D1B" stroke-miterlimit="10"/>
<path d="M64.4974 79.7837L51.3687 97.8778V120.518L64.4974 105.969V79.7837Z" fill="#5C4C9A" stroke="#1D1D1B" stroke-miterlimit="10"/>
<path d="M64.5966 128.571L51.4678 146.678V169.305L64.5966 154.756V128.571Z" fill="#5C4C9A" stroke="#1D1D1B" stroke-miterlimit="10"/>
<path d="M64.5966 173.939L51.4678 192.046V214.673L64.5966 200.125V173.939Z" fill="#5C4C9A" stroke="#1D1D1B" stroke-miterlimit="10"/>
<path d="M45.2939 55.7388L32.1509 73.8456V96.4727L45.2939 81.924V55.7388Z" fill="#5C4C9A" stroke="#1D1D1B" stroke-miterlimit="10"/>
<path d="M45.2939 103.677L32.1509 121.784V144.411L45.2939 129.862V103.677Z" fill="#5C4C9A" stroke="#1D1D1B" stroke-miterlimit="10"/>
<path d="M45.3934 152.477L32.2646 170.571V193.211L45.3934 178.662V152.477Z" fill="#5C4C9A" stroke="#1D1D1B" stroke-miterlimit="10"/>
<path d="M45.3934 197.833L32.2646 215.939V238.566L45.3934 224.018V197.833Z" fill="#5C4C9A" stroke="#1D1D1B" stroke-miterlimit="10"/>
<path d="M97.0712 248.912L83.9282 267.018V289.646L97.0712 275.097V248.912Z" fill="#5C4C9A" stroke="#1D1D1B" stroke-miterlimit="10"/>
<path d="M98.3202 293.685L85.1772 311.791V334.419L98.3202 319.87V293.685Z" fill="#5C4C9A" stroke="#1D1D1B" stroke-miterlimit="10"/>
</g>
<g clip-path="url(#clip1_232_2)">
<path d="M75.0132 948.002L75.0132 735.457H243.303V948.002H75.0132Z" fill="#888989" stroke="#1D1D1B" stroke-miterlimit="10"/>
<path d="M109.985 1076.43L109.985 948.002H243.303V1076.43H109.985Z" fill="#888989" stroke="#1D1D1B" stroke-miterlimit="10"/>
<path d="M87.1772 938.037L87.1772 747.207H228.102V938.037H87.1772Z" fill="#888989" stroke="#1D1D1B" stroke-miterlimit="10"/>
<path d="M75.0132 735.457L31.7095 805.364L31.7095 987.698C31.7095 987.837 53.922 966.818 54.0355 966.717L75.0132 948.002L75.0132 735.457Z" fill="#888989" stroke="#1D1D1B" stroke-miterlimit="10"/>
<path d="M31.7099 987.698L60.0397 989.597L109.986 947.99H75.0136L53.9508 966.78C53.8656 966.856 31.5964 987.685 31.7099 987.685V987.698Z" fill="#888989" stroke="#1D1D1B" stroke-miterlimit="10"/>
<path d="M60.0396 989.597L60.0396 1105.19C60.0396 1105.27 60.1389 1105.32 60.2099 1105.28L109.986 1076.43V948.002L60.0396 989.61V989.597Z" fill="#888989" stroke="#1D1D1B" stroke-miterlimit="10"/>
<path d="M243.303 1076.42L191.157 1102.78L60.522 1105.37C60.3801 1105.37 60.3233 1105.2 60.4369 1105.13L109.971 1076.42H243.289H243.303Z" fill="#888989" stroke="#1D1D1B" stroke-miterlimit="10"/>
<path d="M66.4974 764.845L53.3687 782.952V805.579L66.4974 791.03V764.845Z" fill="#5C4C9A" stroke="#1D1D1B" stroke-miterlimit="10"/>
<path d="M66.4974 812.784L53.3687 830.878V853.518L66.4974 838.969V812.784Z" fill="#5C4C9A" stroke="#1D1D1B" stroke-miterlimit="10"/>
<path d="M66.5966 861.571L53.4678 879.678V902.305L66.5966 887.756V861.571Z" fill="#5C4C9A" stroke="#1D1D1B" stroke-miterlimit="10"/>
<path d="M66.5966 906.939L53.4678 925.046V947.673L66.5966 933.125V906.939Z" fill="#5C4C9A" stroke="#1D1D1B" stroke-miterlimit="10"/>
<path d="M47.2939 788.739L34.1509 806.846V829.473L47.2939 814.924V788.739Z" fill="#5C4C9A" stroke="#1D1D1B" stroke-miterlimit="10"/>
<path d="M47.2939 836.677L34.1509 854.784V877.411L47.2939 862.862V836.677Z" fill="#5C4C9A" stroke="#1D1D1B" stroke-miterlimit="10"/>
<path d="M47.3934 885.477L34.2646 903.571V926.211L47.3934 911.662V885.477Z" fill="#5C4C9A" stroke="#1D1D1B" stroke-miterlimit="10"/>
<path d="M47.3934 930.833L34.2646 948.939V971.566L47.3934 957.018V930.833Z" fill="#5C4C9A" stroke="#1D1D1B" stroke-miterlimit="10"/>
<path d="M99.0712 981.912L85.9282 1000.02V1022.65L99.0712 1008.1V981.912Z" fill="#5C4C9A" stroke="#1D1D1B" stroke-miterlimit="10"/>
<path d="M100.32 1026.68L87.1772 1044.79V1067.42L100.32 1052.87V1026.68Z" fill="#5C4C9A" stroke="#1D1D1B" stroke-miterlimit="10"/>
</g>
<g clip-path="url(#clip2_232_2)">
<path d="M56.2964 550.373L56.2964 279.135H271.551V550.373H56.2964Z" fill="#888989" stroke="#1D1D1B" stroke-miterlimit="10"/>
<path d="M101.028 714.27L101.028 550.373H271.551V714.27H101.028Z" fill="#888989" stroke="#1D1D1B" stroke-miterlimit="10"/>
<path d="M71.8545 537.656L71.8545 294.13H252.108L252.108 537.656H71.8545Z" fill="#888989" stroke="#1D1D1B" stroke-miterlimit="10"/>
<path d="M56.2962 279.135L0.907715 368.346L0.907715 601.03C0.907715 601.208 29.3191 574.385 29.4643 574.255L56.2962 550.373L56.2962 279.135Z" fill="#888989" stroke="#1D1D1B" stroke-miterlimit="10"/>
<path d="M0.90778 601.03L37.1436 603.454L101.028 550.357H56.2963L29.3554 574.336C29.2465 574.433 0.762546 601.014 0.90778 601.014V601.03Z" fill="#888989" stroke="#1D1D1B" stroke-miterlimit="10"/>
<path d="M37.1436 603.454L37.1436 750.966C37.1436 751.063 37.2706 751.128 37.3614 751.079L101.028 714.27L101.028 550.373L37.1436 603.47V603.454Z" fill="#888989" stroke="#1D1D1B" stroke-miterlimit="10"/>
<path d="M271.551 714.253L204.852 747.896L37.7609 751.192C37.5793 751.192 37.5067 750.982 37.652 750.885L101.01 714.253H271.533H271.551Z" fill="#888989" stroke="#1D1D1B" stroke-miterlimit="10"/>
<path d="M45.4035 316.639L28.6108 339.745L28.6108 368.621L45.4035 350.055V316.639Z" fill="#5C4C9A" stroke="#1D1D1B" stroke-miterlimit="10"/>
<path d="M45.4035 377.815L28.6108 400.906L28.6108 429.798L45.4035 411.231V377.815Z" fill="#5C4C9A" stroke="#1D1D1B" stroke-miterlimit="10"/>
<path d="M45.5309 440.074L28.7383 463.181L28.7383 492.056L45.5309 473.49V440.074Z" fill="#5C4C9A" stroke="#1D1D1B" stroke-miterlimit="10"/>
<path d="M45.5309 497.971L28.7383 521.078L28.7383 549.953L45.5309 531.387V497.971Z" fill="#5C4C9A" stroke="#1D1D1B" stroke-miterlimit="10"/>
<path d="M20.8411 347.13L4.03027 370.237L4.03027 399.113L20.8411 380.546L20.8411 347.13Z" fill="#5C4C9A" stroke="#1D1D1B" stroke-miterlimit="10"/>
<path d="M20.8411 408.307L4.03027 431.413L4.03027 460.289L20.8411 441.723L20.8411 408.307Z" fill="#5C4C9A" stroke="#1D1D1B" stroke-miterlimit="10"/>
<path d="M20.9679 470.582L4.17529 493.673L4.17529 522.564L20.9679 503.998L20.9679 470.582Z" fill="#5C4C9A" stroke="#1D1D1B" stroke-miterlimit="10"/>
<path d="M20.9679 528.462L4.17529 551.569L4.17529 580.444L20.9679 561.878L20.9679 528.462Z" fill="#5C4C9A" stroke="#1D1D1B" stroke-miterlimit="10"/>
<path d="M87.0676 593.646L70.2568 616.752V645.628L87.0676 627.061V593.646Z" fill="#5C4C9A" stroke="#1D1D1B" stroke-miterlimit="10"/>
<path d="M88.6653 650.783L71.8545 673.89V702.765L88.6653 684.199V650.783Z" fill="#5C4C9A" stroke="#1D1D1B" stroke-miterlimit="10"/>
</g>
<g clip-path="url(#clip3_232_2)">
<path d="M57.2964 1283.37L57.2964 1012.13H272.551V1283.37H57.2964Z" fill="#888989" stroke="#1D1D1B" stroke-miterlimit="10"/>
<path d="M102.028 1447.27L102.028 1283.37H272.551V1447.27H102.028Z" fill="#888989" stroke="#1D1D1B" stroke-miterlimit="10"/>
<path d="M72.8545 1270.66L72.8545 1027.13H253.108L253.108 1270.66H72.8545Z" fill="#888989" stroke="#1D1D1B" stroke-miterlimit="10"/>
<path d="M57.2962 1012.13L1.90771 1101.35L1.90771 1334.03C1.90771 1334.21 30.3191 1307.38 30.4643 1307.26L57.2962 1283.37L57.2962 1012.13Z" fill="#888989" stroke="#1D1D1B" stroke-miterlimit="10"/>
<path d="M1.90778 1334.03L38.1436 1336.45L102.028 1283.36H57.2963L30.3554 1307.34C30.2465 1307.43 1.76255 1334.01 1.90778 1334.01V1334.03Z" fill="#888989" stroke="#1D1D1B" stroke-miterlimit="10"/>
<path d="M38.1436 1336.45L38.1436 1483.97C38.1436 1484.06 38.2706 1484.13 38.3614 1484.08L102.028 1447.27L102.028 1283.37L38.1436 1336.47V1336.45Z" fill="#888989" stroke="#1D1D1B" stroke-miterlimit="10"/>
<path d="M272.551 1447.25L205.852 1480.9L38.7609 1484.19C38.5793 1484.19 38.5067 1483.98 38.652 1483.88L102.01 1447.25H272.533H272.551Z" fill="#888989" stroke="#1D1D1B" stroke-miterlimit="10"/>
<path d="M46.4035 1049.64L29.6108 1072.75L29.6108 1101.62L46.4035 1083.05V1049.64Z" fill="#5C4C9A" stroke="#1D1D1B" stroke-miterlimit="10"/>
<path d="M46.4035 1110.82L29.6108 1133.91L29.6108 1162.8L46.4035 1144.23V1110.82Z" fill="#5C4C9A" stroke="#1D1D1B" stroke-miterlimit="10"/>
<path d="M46.5309 1173.07L29.7383 1196.18L29.7383 1225.06L46.5309 1206.49V1173.07Z" fill="#5C4C9A" stroke="#1D1D1B" stroke-miterlimit="10"/>
<path d="M46.5309 1230.97L29.7383 1254.08L29.7383 1282.95L46.5309 1264.39V1230.97Z" fill="#5C4C9A" stroke="#1D1D1B" stroke-miterlimit="10"/>
<path d="M21.8411 1080.13L5.03027 1103.24L5.03027 1132.11L21.8411 1113.55L21.8411 1080.13Z" fill="#5C4C9A" stroke="#1D1D1B" stroke-miterlimit="10"/>
<path d="M21.8411 1141.31L5.03027 1164.41L5.03027 1193.29L21.8411 1174.72L21.8411 1141.31Z" fill="#5C4C9A" stroke="#1D1D1B" stroke-miterlimit="10"/>
<path d="M21.9679 1203.58L5.17529 1226.67L5.17529 1255.56L21.9679 1237L21.9679 1203.58Z" fill="#5C4C9A" stroke="#1D1D1B" stroke-miterlimit="10"/>
<path d="M21.9679 1261.46L5.17529 1284.57L5.17529 1313.44L21.9679 1294.88L21.9679 1261.46Z" fill="#5C4C9A" stroke="#1D1D1B" stroke-miterlimit="10"/>
<path d="M88.0676 1326.65L71.2568 1349.75V1378.63L88.0676 1360.06V1326.65Z" fill="#5C4C9A" stroke="#1D1D1B" stroke-miterlimit="10"/>
<path d="M89.6653 1383.78L72.8545 1406.89V1435.76L89.6653 1417.2V1383.78Z" fill="#5C4C9A" stroke="#1D1D1B" stroke-miterlimit="10"/>
</g>
<defs>
<clipPath id="clip0_232_2">
<rect width="373" height="215" fill="white" transform="matrix(0 1 1 0 29 0)"/>
</clipPath>
<clipPath id="clip1_232_2">
<rect width="373" height="215" fill="white" transform="matrix(0 1 1 0 31 733)"/>
</clipPath>
<clipPath id="clip2_232_2">
<rect width="476" height="275" fill="white" transform="matrix(0 1 1 0 0 276)"/>
</clipPath>
<clipPath id="clip3_232_2">
<rect width="476" height="275" fill="white" transform="matrix(0 1 1 0 1 1009)"/>
</clipPath>
</defs>
</svg>
