<?xml version="1.0" encoding="UTF-8"?>
<svg xmlns="http://www.w3.org/2000/svg" xmlns:xlink="http://www.w3.org/1999/xlink" version="1.1" viewBox="0 0 566.9 566.9">
  <defs>
    <style>
      .cls-1 {
        fill: none;
      }

      .cls-2 {
        fill: #3c3c3b;
      }

      .cls-3 {
        fill: #008d36;
      }

      .cls-4 {
        fill: #878787;
      }

      .cls-5 {
        fill: url(#Nouveau_motif_2);
        opacity: .8;
      }

      .cls-6 {
        fill: #9d9d9c;
      }

      .cls-7 {
        fill: #b2b2b2;
      }
    </style>
    <pattern id="Nouveau_motif_2" data-name="Nouveau motif 2" x="0" y="0" width="621.8" height="708.7" patternUnits="userSpaceOnUse" viewBox="0 0 621.8 708.7">
      <g>
        <rect class="cls-1" x="0" width="621.8" height="708.7"/>
        <g>
          <path class="cls-1" d="M594.6,702.1"/>
          <path class="cls-3" d="M664.2,694.4h2.7v7.8h-71c-1.5-.1-3.1-.6-4.2-1.7-1-1-1.9-2.5-1.9-4.8,0-1.8.7-3.5,1.9-4.8,1-1,2.6-2,4.8-1.7.3,0,.5-.1.5-.4.1-1.5.9-5.8,5.8-7.2.3,0,.6-.4.7-.7.4-1.7,2-6.6,8.8-4.2.5.2,1,0,1.2-.5.7-1.5,2.8-4.4,8.2-3.9,0,0,7,.4,6.6,8,0,.3.2.5.4.5,0,0,.1,0,.2,0,.7-.2,2-.3,3.5.2.5.1,1,0,1.3-.4.7-1.1,2.4-2.9,5.7-2.7.4,0,.8,0,1.2.1,0,0,4.2,1.1,4.8,4.8,0,.4.4.8.8.8.7,0,1.6.4,2.3,1.2.4.4,1,.5,1.4.2.9-.6,2.5-1.3,4.1-.6.5.2,1.1,0,1.4-.4.6-1,1.9-2.5,4.4-3.2,1.8-.5,3.8-.2,5.5.5,1.9.8,4.2,2.3,4,4.8h-5.4s0,8.3,0,8.3Z"/>
        </g>
        <g>
          <path class="cls-4" d="M446.7,652.2c0,1.4-.3,2.7-.7,4-.7,2-2,3.6-3.6,4.9-1.6,1.3-3.6,2.2-5.8,2.4-.4,0-.8,0-1.2,0-2.9,0-5.5-1.1-7.5-2.8-2.4-2.1-3.8-5.1-3.8-8.5,0-5,3.2-9.2,7.6-10.7,1.2-.4,2.4-.6,3.8-.6s.4,0,.6,0c3.3.2,6.2,1.8,8.2,4.2,1.2,1.5,2.1,3.4,2.4,5.4,0,.6.1,1.2.1,1.7Z"/>
          <path class="cls-4" d="M529.5,652.2c0,3.3-1.4,6.4-3.7,8.4-2,1.8-4.7,2.9-7.6,2.9s-1,0-1.5,0c-2.2-.3-4.1-1.2-5.7-2.5-1.5-1.3-2.7-2.9-3.4-4.8-.5-1.2-.7-2.6-.7-4s0-1.2.1-1.7c.3-2,1.2-3.9,2.4-5.4,1.8-2.2,4.4-3.7,7.4-4.1.5,0,1,0,1.4,0,1.5,0,3,.3,4.3.9,4.1,1.7,7,5.8,7,10.5Z"/>
          <path class="cls-4" d="M535.1,606.1c0,5.9-4.4,10.7-10.1,11.3-.4,0-.8,0-1.2,0-1.6,0-3.1-.3-4.5-.9-1.3-.6-2.5-1.4-3.5-2.4-1.4-1.4-2.4-3.1-2.9-5.1-.3-.9-.4-1.9-.4-2.9s0-1.6.3-2.4c.3-1.5,1-3,1.9-4.2,2.1-2.9,5.4-4.7,9.2-4.7,6.3,0,11.4,5.1,11.4,11.4Z"/>
          <path class="cls-4" d="M441.3,606.1c0,1-.1,1.9-.4,2.9-.5,2.1-1.7,3.9-3.2,5.4-1.2,1.1-2.5,2-4.1,2.5-1.2.4-2.4.6-3.7.6s-.3,0-.5,0c-6-.3-10.8-5.2-10.8-11.3s5.1-11.4,11.4-11.4,7.2,1.9,9.2,4.7c.8,1.2,1.5,2.5,1.8,3.9.2.9.3,1.8.3,2.7Z"/>
          <path class="cls-4" d="M488.2,584.7c0,.8,0,1.5-.2,2.2-.3,1.7-1,3.2-2,4.5-1.5,2-3.7,3.5-6.2,4.2-.9.3-1.9.4-3,.4s-2.2-.2-3.3-.5c-2.6-.8-4.7-2.4-6.2-4.6-.7-1.1-1.3-2.4-1.6-3.7-.2-.8-.3-1.7-.3-2.6,0-6.3,5.1-11.4,11.4-11.4s11.4,5.1,11.4,11.4Z"/>
          <path class="cls-4" d="M493.4,634.6c0,1.2-.1,2.4-.4,3.5-.4,2.1-1.3,4-2.4,5.7-1.8,2.6-4.3,4.7-7.2,6-1.6.7-3.3,1.1-5.1,1.2-.4,0-.9,0-1.3,0s-1.2,0-1.8,0c-1.8-.2-3.5-.7-5-1.4-2.9-1.3-5.3-3.4-7-6.1h0c-1-1.5-1.7-3.2-2.1-5-.3-1.2-.4-2.5-.4-3.8,0-2.2.4-4.3,1.2-6.2.7-1.7,1.7-3.3,2.9-4.7,2.3-2.6,5.4-4.4,8.9-5.2h0c1.1-.2,2.2-.4,3.4-.4s1.9,0,2.8.2c3.5.6,6.7,2.3,9.1,4.8,1.4,1.5,2.5,3.2,3.3,5.1.8,1.9,1.2,4,1.2,6.2Z"/>
          <path class="cls-1" d="M432.1,641.4"/>
          <path class="cls-7" d="M436,640.9c-.2,0-.4,0-.6,0-1.3,0-2.6.2-3.8.6l-2.2-24.1c.2,0,.3,0,.5,0,1.3,0,2.6-.2,3.7-.6l2.3,24.1Z"/>
          <path class="cls-7" d="M467.4,591.1l-26.4,12.3c-.3-1.4-1-2.8-1.8-3.9l26.6-12.1c.3,1.3.9,2.6,1.6,3.7Z"/>
          <path class="cls-7" d="M514.5,599.5c-.9,1.2-1.5,2.7-1.9,4.2l-26.6-12.2c1-1.3,1.7-2.8,2-4.5l26.5,12.5Z"/>
          <path class="cls-7" d="M524.9,617.4l-2.5,24.4c-1.3-.6-2.8-.9-4.3-.9s-1,0-1.4,0l2.6-24.5c1.4.6,2.9.9,4.5.9s.8,0,1.2,0Z"/>
          <path class="cls-7" d="M464.7,623.7c-1.2,1.4-2.2,2.9-2.9,4.7l-24.1-14.1c1.5-1.4,2.6-3.3,3.2-5.4l23.8,14.8Z"/>
          <path class="cls-7" d="M479.8,595.7v22.8c-.9-.2-1.8-.2-2.8-.2s-2.3.1-3.4.4v-22.9c1,.3,2.1.5,3.3.5s2-.1,3-.4Z"/>
          <path class="cls-7" d="M515.7,614.1l-23.5,14.2c-.8-1.9-1.9-3.6-3.3-5.1l23.9-14.3c.5,2,1.5,3.7,2.9,5.1Z"/>
          <path class="cls-7" d="M509.3,645.1c-1.2,1.5-2.1,3.4-2.4,5.4l-16.3-6.8c1.1-1.7,2-3.6,2.4-5.7l16.3,7Z"/>
          <path class="cls-7" d="M463.2,643.4l-16.6,7.1c-.3-2-1.2-3.9-2.4-5.4l16.9-6.7c.4,1.8,1.2,3.5,2.1,5Z"/>
          <path class="cls-7" d="M436.6,663.5h0s-4.3,14.3-4.3,14.3c-3.3-.2-5,1.6-5.7,2.7-.3.4-.8.6-1.3.4-1.5-.5-2.8-.3-3.5-.2,0,0-.1,0-.2,0l6.3-20c2,1.8,4.6,2.8,7.5,2.8s.8,0,1.2,0Z"/>
          <path class="cls-1" d="M460.8,699.4"/>
          <path class="cls-1" d="M460.8,702.2"/>
          <path class="cls-1" d="M466,693.8"/>
          <path class="cls-1" d="M444.2,702.2"/>
          <path class="cls-7" d="M475.2,650.9l-4.3,23.6-2.1,11.7h-5.6s1.7-8.7,1.7-8.7l1.2-6.2,4.1-21.8c1.6.7,3.2,1.2,5,1.4Z"/>
          <path class="cls-7" d="M490.2,686.3h-5.6s-2.1-11.8-2.1-11.8l-4.2-23.6c1.8-.1,3.5-.6,5.1-1.2l4,21.6,1.2,6.6,1.6,8.4Z"/>
          <line class="cls-1" x1="490.2" y1="686.3" x2="490.2" y2="686.3"/>
          <line class="cls-1" x1="484.6" y1="686.3" x2="484.6" y2="686.3"/>
          <path class="cls-7" d="M466,671.3l-1.2,6.2h0l-22.4-16.4c1.6-1.3,2.8-3,3.6-4.9l20,15.1Z"/>
          <path class="cls-7" d="M510.9,661l-22.2,16.9-1.2-6.6,20.1-15.1c.7,1.9,1.9,3.5,3.4,4.8Z"/>
          <path class="cls-7" d="M531.7,680.3c0,0,0,0-.1,0-.9-.3-2.3-.6-3.6.3-.3.2-.8.1-1.1-.2-.8-1-2.6-2.7-5.2-2.6l-5.1-14.3c.5,0,1,0,1.5,0,2.9,0,5.6-1.1,7.6-2.9l6,19.7Z"/>
          <path class="cls-4" d="M484.6,686.3h-15.9c0,0,2.1-11.8,2.1-11.8,0,0,4.9-3.4,11.6,0h0l2.1,11.8Z"/>
          <path class="cls-1" d="M387.3,702.1"/>
          <path class="cls-3" d="M456.9,694.4h2.7v7.8h-71c-1.5-.1-3.1-.6-4.2-1.7-1-1-1.9-2.5-1.9-4.8,0-1.8.7-3.5,1.9-4.8,1-1,2.6-2,4.8-1.7.3,0,.5-.1.5-.4.1-1.5.9-5.8,5.8-7.2.3,0,.6-.4.7-.7.4-1.7,2-6.6,8.8-4.2.5.2,1,0,1.2-.5.7-1.5,2.8-4.4,8.2-3.9,0,0,7,.4,6.6,8,0,.3.2.5.4.5,0,0,.1,0,.2,0,.7-.2,2-.3,3.5.2.5.1,1,0,1.3-.4.7-1.1,2.4-2.9,5.7-2.7.4,0,.8,0,1.2.1,0,0,4.2,1.1,4.8,4.8,0,.4.4.8.8.8.7,0,1.6.4,2.3,1.2.4.4,1,.5,1.4.2.9-.6,2.5-1.3,4.1-.6.5.2,1.1,0,1.4-.4.6-1,1.9-2.5,4.4-3.2,1.8-.5,3.8-.2,5.5.5,1.9.8,4.2,2.3,4,4.8h-5.4s0,8.3,0,8.3Z"/>
          <path class="cls-3" d="M570.9,696.2c0,1.1-.4,2.1-.9,2.8-1.2,2-3.5,3.1-5.8,3.1h-70.4v-7.5c0,0,2.9,0,2.9,0v-8.4h-5.5c-.2-5.2,6.6-5.8,6.6-5.8,4.3-.5,6.5,2.2,7.4,3.6.3.4.8.6,1.2.4,1.7-.8,3.3,0,4.2.5.4.3,1,.1,1.2-.3.7-.9,1.7-1.1,2.4-1.1.4,0,.7-.3.7-.7,0-3.2,3.8-4.5,3.8-4.5,1.1-.5,2.1-.7,3-.7,2.6,0,4.4,1.7,5.2,2.6.3.3.7.4,1.1.2,1.2-.9,2.6-.6,3.6-.3,0,0,0,0,.1,0,.4,0,.7-.3.7-.7-.7-4.9,4.9-7,4.9-7,5.5-2.2,8.8,1.7,10,3.5.3.4.8.6,1.3.4,6.1-2.4,8.2,2.7,8.7,4.3,0,.3.3.5.6.6,4.2,1.2,5.4,5,5.7,6.9,0,.6.6,1,1.2.9,3.1-.2,4.8,2,5.5,3.6.5,1.1.8,2.2.7,3.4Z"/>
          <g>
            <polygon class="cls-6" points="496.7 686.3 496.7 694.7 493.7 694.7 460.9 694.5 459.6 694.4 456.9 694.4 456.9 686.2 462.3 686.2 463.2 686.2 468.8 686.2 484.6 686.3 490.2 686.3 491.2 686.3 496.7 686.3"/>
            <polygon class="cls-6" points="493.8 702.2 459.6 702.2 459.6 694.4 460.9 694.5 493.7 694.7 493.8 702.2"/>
          </g>
        </g>
        <g>
          <path class="cls-4" d="M239.5,652.2c0,1.4-.3,2.7-.7,4-.7,2-2,3.6-3.6,4.9-1.6,1.3-3.6,2.2-5.8,2.4-.4,0-.8,0-1.2,0-2.9,0-5.5-1.1-7.5-2.8-2.4-2.1-3.8-5.1-3.8-8.5,0-5,3.2-9.2,7.6-10.7,1.2-.4,2.4-.6,3.8-.6s.4,0,.6,0c3.3.2,6.2,1.8,8.2,4.2,1.2,1.5,2.1,3.4,2.4,5.4,0,.6.1,1.2.1,1.7Z"/>
          <path class="cls-4" d="M322.2,652.2c0,3.3-1.4,6.4-3.7,8.4-2,1.8-4.7,2.9-7.6,2.9s-1,0-1.5,0c-2.2-.3-4.1-1.2-5.7-2.5-1.5-1.3-2.7-2.9-3.4-4.8-.5-1.2-.7-2.6-.7-4s0-1.2.1-1.7c.3-2,1.2-3.9,2.4-5.4,1.8-2.2,4.4-3.7,7.4-4.1.5,0,1,0,1.4,0,1.5,0,3,.3,4.3.9,4.1,1.7,7,5.8,7,10.5Z"/>
          <path class="cls-4" d="M327.8,606.1c0,5.9-4.4,10.7-10.1,11.3-.4,0-.8,0-1.2,0-1.6,0-3.1-.3-4.5-.9-1.3-.6-2.5-1.4-3.5-2.4-1.4-1.4-2.4-3.1-2.9-5.1-.3-.9-.4-1.9-.4-2.9s0-1.6.3-2.4c.3-1.5,1-3,1.9-4.2,2.1-2.9,5.4-4.7,9.2-4.7,6.3,0,11.4,5.1,11.4,11.4Z"/>
          <path class="cls-4" d="M234,606.1c0,1-.1,1.9-.4,2.9-.5,2.1-1.7,3.9-3.2,5.4-1.2,1.1-2.5,2-4.1,2.5-1.2.4-2.4.6-3.7.6s-.3,0-.5,0c-6-.3-10.8-5.2-10.8-11.3s5.1-11.4,11.4-11.4,7.2,1.9,9.2,4.7c.8,1.2,1.5,2.5,1.8,3.9.2.9.3,1.8.3,2.7Z"/>
          <path class="cls-4" d="M280.9,584.7c0,.8,0,1.5-.2,2.2-.3,1.7-1,3.2-2,4.5-1.5,2-3.7,3.5-6.2,4.2-.9.3-1.9.4-3,.4s-2.2-.2-3.3-.5c-2.6-.8-4.7-2.4-6.2-4.6-.7-1.1-1.3-2.4-1.6-3.7-.2-.8-.3-1.7-.3-2.6,0-6.3,5.1-11.4,11.4-11.4s11.4,5.1,11.4,11.4Z"/>
          <path class="cls-4" d="M286.1,634.6c0,1.2-.1,2.4-.4,3.5-.4,2.1-1.3,4-2.4,5.7-1.8,2.6-4.3,4.7-7.2,6-1.6.7-3.3,1.1-5.1,1.2-.4,0-.9,0-1.3,0s-1.2,0-1.8,0c-1.8-.2-3.5-.7-5-1.4-2.9-1.3-5.3-3.4-7-6.1h0c-1-1.5-1.7-3.2-2.1-5-.3-1.2-.4-2.5-.4-3.8,0-2.2.4-4.3,1.2-6.2.7-1.7,1.7-3.3,2.9-4.7,2.3-2.6,5.4-4.4,8.9-5.2h0c1.1-.2,2.2-.4,3.4-.4s1.9,0,2.8.2c3.5.6,6.7,2.3,9.1,4.8,1.4,1.5,2.5,3.2,3.3,5.1.8,1.9,1.2,4,1.2,6.2Z"/>
          <path class="cls-1" d="M224.9,641.4"/>
          <path class="cls-7" d="M228.8,640.9c-.2,0-.4,0-.6,0-1.3,0-2.6.2-3.8.6l-2.2-24.1c.2,0,.3,0,.5,0,1.3,0,2.6-.2,3.7-.6l2.3,24.1Z"/>
          <path class="cls-7" d="M260.1,591.1l-26.4,12.3c-.3-1.4-1-2.8-1.8-3.9l26.6-12.1c.3,1.3.9,2.6,1.6,3.7Z"/>
          <path class="cls-7" d="M307.2,599.5c-.9,1.2-1.5,2.7-1.9,4.2l-26.6-12.2c1-1.3,1.7-2.8,2-4.5l26.5,12.5Z"/>
          <path class="cls-7" d="M317.7,617.4l-2.5,24.4c-1.3-.6-2.8-.9-4.3-.9s-1,0-1.4,0l2.6-24.5c1.4.6,2.9.9,4.5.9s.8,0,1.2,0Z"/>
          <path class="cls-7" d="M257.5,623.7c-1.2,1.4-2.2,2.9-2.9,4.7l-24.1-14.1c1.5-1.4,2.6-3.3,3.2-5.4l23.8,14.8Z"/>
          <path class="cls-7" d="M272.5,595.7v22.8c-.9-.2-1.8-.2-2.8-.2s-2.3.1-3.4.4v-22.9c1,.3,2.1.5,3.3.5s2-.1,3-.4Z"/>
          <path class="cls-7" d="M308.4,614.1l-23.5,14.2c-.8-1.9-1.9-3.6-3.3-5.1l23.9-14.3c.5,2,1.5,3.7,2.9,5.1Z"/>
          <path class="cls-7" d="M302,645.1c-1.2,1.5-2.1,3.4-2.4,5.4l-16.3-6.8c1.1-1.7,2-3.6,2.4-5.7l16.3,7Z"/>
          <path class="cls-7" d="M255.9,643.4l-16.6,7.1c-.3-2-1.2-3.9-2.4-5.4l16.9-6.7c.4,1.8,1.2,3.5,2.1,5Z"/>
          <path class="cls-7" d="M229.3,663.5h0s-4.3,14.3-4.3,14.3c-3.3-.2-5,1.6-5.7,2.7-.3.4-.8.6-1.3.4-1.5-.5-2.8-.3-3.5-.2,0,0-.1,0-.2,0l6.3-20c2,1.8,4.6,2.8,7.5,2.8s.8,0,1.2,0Z"/>
          <path class="cls-1" d="M253.5,699.4"/>
          <path class="cls-1" d="M253.5,702.2"/>
          <path class="cls-1" d="M258.7,693.8"/>
          <path class="cls-1" d="M236.9,702.2"/>
          <path class="cls-7" d="M267.9,650.9l-4.3,23.6-2.1,11.7h-5.6s1.7-8.7,1.7-8.7l1.2-6.2,4.1-21.8c1.6.7,3.2,1.2,5,1.4Z"/>
          <path class="cls-7" d="M282.9,686.3h-5.6s-2.1-11.8-2.1-11.8l-4.2-23.6c1.8-.1,3.5-.6,5.1-1.2l4,21.6,1.2,6.6,1.6,8.4Z"/>
          <line class="cls-1" x1="282.9" y1="686.3" x2="282.9" y2="686.3"/>
          <line class="cls-1" x1="277.4" y1="686.3" x2="277.4" y2="686.3"/>
          <path class="cls-7" d="M258.8,671.3l-1.2,6.2h0l-22.4-16.4c1.6-1.3,2.8-3,3.6-4.9l20,15.1Z"/>
          <path class="cls-7" d="M303.6,661l-22.2,16.9-1.2-6.6,20.1-15.1c.7,1.9,1.9,3.5,3.4,4.8Z"/>
          <path class="cls-7" d="M324.4,680.3c0,0,0,0-.1,0-.9-.3-2.3-.6-3.6.3-.3.2-.8.1-1.1-.2-.8-1-2.6-2.7-5.2-2.6l-5.1-14.3c.5,0,1,0,1.5,0,2.9,0,5.6-1.1,7.6-2.9l6,19.7Z"/>
          <path class="cls-4" d="M277.4,686.3h-15.9c0,0,2.1-11.8,2.1-11.8,0,0,4.9-3.4,11.6,0h0l2.1,11.8Z"/>
          <path class="cls-1" d="M180.1,702.1"/>
          <path class="cls-3" d="M249.6,694.4h2.7v7.8h-71c-1.5-.1-3.1-.6-4.2-1.7-1-1-1.9-2.5-1.9-4.8,0-1.8.7-3.5,1.9-4.8,1-1,2.6-2,4.8-1.7.3,0,.5-.1.5-.4.1-1.5.9-5.8,5.8-7.2.3,0,.6-.4.7-.7.4-1.7,2-6.6,8.8-4.2.5.2,1,0,1.2-.5.7-1.5,2.8-4.4,8.2-3.9,0,0,7,.4,6.6,8,0,.3.2.5.4.5,0,0,.1,0,.2,0,.7-.2,2-.3,3.5.2.5.1,1,0,1.3-.4.7-1.1,2.4-2.9,5.7-2.7.4,0,.8,0,1.2.1,0,0,4.2,1.1,4.8,4.8,0,.4.4.8.8.8.7,0,1.6.4,2.3,1.2.4.4,1,.5,1.4.2.9-.6,2.5-1.3,4.1-.6.5.2,1.1,0,1.4-.4.6-1,1.9-2.5,4.4-3.2,1.8-.5,3.8-.2,5.5.5,1.9.8,4.2,2.3,4,4.8h-5.4s0,8.3,0,8.3Z"/>
          <path class="cls-3" d="M363.6,696.2c0,1.1-.4,2.1-.9,2.8-1.2,2-3.5,3.1-5.8,3.1h-70.4v-7.5c0,0,2.9,0,2.9,0v-8.4h-5.5c-.2-5.2,6.6-5.8,6.6-5.8,4.3-.5,6.5,2.2,7.4,3.6.3.4.8.6,1.2.4,1.7-.8,3.3,0,4.2.5.4.3,1,.1,1.2-.3.7-.9,1.7-1.1,2.4-1.1.4,0,.7-.3.7-.7,0-3.2,3.8-4.5,3.8-4.5,1.1-.5,2.1-.7,3-.7,2.6,0,4.4,1.7,5.2,2.6.3.3.7.4,1.1.2,1.2-.9,2.6-.6,3.6-.3,0,0,0,0,.1,0,.4,0,.7-.3.7-.7-.7-4.9,4.9-7,4.9-7,5.5-2.2,8.8,1.7,10,3.5.3.4.8.6,1.3.4,6.1-2.4,8.2,2.7,8.7,4.3,0,.3.3.5.6.6,4.2,1.2,5.4,5,5.7,6.9,0,.6.6,1,1.2.9,3.1-.2,4.8,2,5.5,3.6.5,1.1.8,2.2.7,3.4Z"/>
          <g>
            <polygon class="cls-6" points="289.4 686.3 289.4 694.7 286.5 694.7 253.6 694.5 252.3 694.4 249.6 694.4 249.6 686.2 255 686.2 255.9 686.2 261.5 686.2 277.4 686.3 282.9 686.3 284 686.3 289.4 686.3"/>
            <polygon class="cls-6" points="286.5 702.2 252.3 702.2 252.3 694.4 253.6 694.5 286.5 694.7 286.5 702.2"/>
          </g>
        </g>
        <g>
          <path class="cls-4" d="M32.2,652.2c0,1.4-.3,2.7-.7,4-.7,2-2,3.6-3.6,4.9-1.6,1.3-3.6,2.2-5.8,2.4-.4,0-.8,0-1.2,0-2.9,0-5.5-1.1-7.5-2.8-2.4-2.1-3.8-5.1-3.8-8.5,0-5,3.2-9.2,7.6-10.7,1.2-.4,2.4-.6,3.8-.6s.4,0,.6,0c3.3.2,6.2,1.8,8.2,4.2,1.2,1.5,2.1,3.4,2.4,5.4,0,.6.1,1.2.1,1.7Z"/>
          <path class="cls-4" d="M114.9,652.2c0,3.3-1.4,6.4-3.7,8.4-2,1.8-4.7,2.9-7.6,2.9s-1,0-1.5,0c-2.2-.3-4.1-1.2-5.7-2.5-1.5-1.3-2.7-2.9-3.4-4.8-.5-1.2-.7-2.6-.7-4s0-1.2.1-1.7c.3-2,1.2-3.9,2.4-5.4,1.8-2.2,4.4-3.7,7.4-4.1.5,0,1,0,1.4,0,1.5,0,3,.3,4.3.9,4.1,1.7,7,5.8,7,10.5Z"/>
          <path class="cls-4" d="M120.6,606.1c0,5.9-4.4,10.7-10.1,11.3-.4,0-.8,0-1.2,0-1.6,0-3.1-.3-4.5-.9-1.3-.6-2.5-1.4-3.5-2.4-1.4-1.4-2.4-3.1-2.9-5.1-.3-.9-.4-1.9-.4-2.9s0-1.6.3-2.4c.3-1.5,1-3,1.9-4.2,2.1-2.9,5.4-4.7,9.2-4.7,6.3,0,11.4,5.1,11.4,11.4Z"/>
          <path class="cls-4" d="M26.8,606.1c0,1-.1,1.9-.4,2.9-.5,2.1-1.7,3.9-3.2,5.4-1.2,1.1-2.5,2-4.1,2.5-1.2.4-2.4.6-3.7.6s-.3,0-.5,0c-6-.3-10.8-5.2-10.8-11.3s5.1-11.4,11.4-11.4,7.2,1.9,9.2,4.7c.8,1.2,1.5,2.5,1.8,3.9.2.9.3,1.8.3,2.7Z"/>
          <path class="cls-4" d="M73.7,584.7c0,.8,0,1.5-.2,2.2-.3,1.7-1,3.2-2,4.5-1.5,2-3.7,3.5-6.2,4.2-.9.3-1.9.4-3,.4s-2.2-.2-3.3-.5c-2.6-.8-4.7-2.4-6.2-4.6-.7-1.1-1.3-2.4-1.6-3.7-.2-.8-.3-1.7-.3-2.6,0-6.3,5.1-11.4,11.4-11.4s11.4,5.1,11.4,11.4Z"/>
          <path class="cls-4" d="M78.9,634.6c0,1.2-.1,2.4-.4,3.5-.4,2.1-1.3,4-2.4,5.7-1.8,2.6-4.3,4.7-7.2,6-1.6.7-3.3,1.1-5.1,1.2-.4,0-.9,0-1.3,0s-1.2,0-1.8,0c-1.8-.2-3.5-.7-5-1.4-2.9-1.3-5.3-3.4-7-6.1h0c-1-1.5-1.7-3.2-2.1-5-.3-1.2-.4-2.5-.4-3.8,0-2.2.4-4.3,1.2-6.2.7-1.7,1.7-3.3,2.9-4.7,2.3-2.6,5.4-4.4,8.9-5.2h0c1.1-.2,2.2-.4,3.4-.4s1.9,0,2.8.2c3.5.6,6.7,2.3,9.1,4.8,1.4,1.5,2.5,3.2,3.3,5.1.8,1.9,1.2,4,1.2,6.2Z"/>
          <path class="cls-1" d="M17.6,641.4"/>
          <path class="cls-7" d="M21.5,640.9c-.2,0-.4,0-.6,0-1.3,0-2.6.2-3.8.6l-2.2-24.1c.2,0,.3,0,.5,0,1.3,0,2.6-.2,3.7-.6l2.3,24.1Z"/>
          <path class="cls-7" d="M52.9,591.1l-26.4,12.3c-.3-1.4-1-2.8-1.8-3.9l26.6-12.1c.3,1.3.9,2.6,1.6,3.7Z"/>
          <path class="cls-7" d="M100,599.5c-.9,1.2-1.5,2.7-1.9,4.2l-26.6-12.2c1-1.3,1.7-2.8,2-4.5l26.5,12.5Z"/>
          <path class="cls-7" d="M110.4,617.4l-2.5,24.4c-1.3-.6-2.8-.9-4.3-.9s-1,0-1.4,0l2.6-24.5c1.4.6,2.9.9,4.5.9s.8,0,1.2,0Z"/>
          <path class="cls-7" d="M50.2,623.7c-1.2,1.4-2.2,2.9-2.9,4.7l-24.1-14.1c1.5-1.4,2.6-3.3,3.2-5.4l23.8,14.8Z"/>
          <path class="cls-7" d="M65.3,595.7v22.8c-.9-.2-1.8-.2-2.8-.2s-2.3.1-3.4.4v-22.9c1,.3,2.1.5,3.3.5s2-.1,3-.4Z"/>
          <path class="cls-7" d="M101.2,614.1l-23.5,14.2c-.8-1.9-1.9-3.6-3.3-5.1l23.9-14.3c.5,2,1.5,3.7,2.9,5.1Z"/>
          <path class="cls-7" d="M94.8,645.1c-1.2,1.5-2.1,3.4-2.4,5.4l-16.3-6.8c1.1-1.7,2-3.6,2.4-5.7l16.3,7Z"/>
          <path class="cls-7" d="M48.7,643.4l-16.6,7.1c-.3-2-1.2-3.9-2.4-5.4l16.9-6.7c.4,1.8,1.2,3.5,2.1,5Z"/>
          <path class="cls-7" d="M22.1,663.5h0s-4.3,14.3-4.3,14.3c-3.3-.2-5,1.6-5.7,2.7-.3.4-.8.6-1.3.4-1.5-.5-2.8-.3-3.5-.2,0,0-.1,0-.2,0l6.3-20c2,1.8,4.6,2.8,7.5,2.8s.8,0,1.2,0Z"/>
          <path class="cls-1" d="M46.3,699.4"/>
          <path class="cls-1" d="M46.3,702.2"/>
          <path class="cls-1" d="M51.4,693.8"/>
          <path class="cls-1" d="M29.7,702.2"/>
          <path class="cls-7" d="M60.7,650.9l-4.3,23.6-2.1,11.7h-5.6s1.7-8.7,1.7-8.7l1.2-6.2,4.1-21.8c1.6.7,3.2,1.2,5,1.4Z"/>
          <path class="cls-7" d="M75.7,686.3h-5.6s-2.1-11.8-2.1-11.8l-4.2-23.6c1.8-.1,3.5-.6,5.1-1.2l4,21.6,1.2,6.6,1.6,8.4Z"/>
          <line class="cls-1" x1="75.7" y1="686.3" x2="75.7" y2="686.3"/>
          <line class="cls-1" x1="70.1" y1="686.3" x2="70.1" y2="686.3"/>
          <path class="cls-7" d="M51.5,671.3l-1.2,6.2h0l-22.4-16.4c1.6-1.3,2.8-3,3.6-4.9l20,15.1Z"/>
          <path class="cls-7" d="M96.4,661l-22.2,16.9-1.2-6.6,20.1-15.1c.7,1.9,1.9,3.5,3.4,4.8Z"/>
          <path class="cls-7" d="M117.2,680.3c0,0,0,0-.1,0-.9-.3-2.3-.6-3.6.3-.3.2-.8.1-1.1-.2-.8-1-2.6-2.7-5.2-2.6l-5.1-14.3c.5,0,1,0,1.5,0,2.9,0,5.6-1.1,7.6-2.9l6,19.7Z"/>
          <path class="cls-4" d="M70.1,686.3h-15.9c0,0,2.1-11.8,2.1-11.8,0,0,4.9-3.4,11.6,0h0l2.1,11.8Z"/>
          <path class="cls-3" d="M42.4,694.4h2.7v7.8H-25.9c-1.5-.1-3.1-.6-4.2-1.7-1-1-1.9-2.5-1.9-4.8,0-1.8.7-3.5,1.9-4.8,1-1,2.6-2,4.8-1.7.3,0,.5-.1.5-.4.1-1.5.9-5.8,5.8-7.2.3,0,.6-.4.7-.7.4-1.7,2-6.6,8.8-4.2.5.2,1,0,1.2-.5.7-1.5,2.8-4.4,8.2-3.9,0,0,7,.4,6.6,8,0,.3.2.5.4.5,0,0,.1,0,.2,0,.7-.2,2-.3,3.5.2.5.1,1,0,1.3-.4.7-1.1,2.4-2.9,5.7-2.7.4,0,.8,0,1.2.1,0,0,4.2,1.1,4.8,4.8,0,.4.4.8.8.8.7,0,1.6.4,2.3,1.2.4.4,1,.5,1.4.2.9-.6,2.5-1.3,4.1-.6.5.2,1.1,0,1.4-.4.6-1,1.9-2.5,4.4-3.2,1.8-.5,3.8-.2,5.5.5,1.9.8,4.2,2.3,4,4.8h-5.4s0,8.3,0,8.3Z"/>
          <path class="cls-3" d="M156.4,696.2c0,1.1-.4,2.1-.9,2.8-1.2,2-3.5,3.1-5.8,3.1h-70.4v-7.5c0,0,2.9,0,2.9,0v-8.4h-5.5c-.2-5.2,6.6-5.8,6.6-5.8,4.3-.5,6.5,2.2,7.4,3.6.3.4.8.6,1.2.4,1.7-.8,3.3,0,4.2.5.4.3,1,.1,1.2-.3.7-.9,1.7-1.1,2.4-1.1.4,0,.7-.3.7-.7,0-3.2,3.8-4.5,3.8-4.5,1.1-.5,2.1-.7,3-.7,2.6,0,4.4,1.7,5.2,2.6.3.3.7.4,1.1.2,1.2-.9,2.6-.6,3.6-.3,0,0,0,0,.1,0,.4,0,.7-.3.7-.7-.7-4.9,4.9-7,4.9-7,5.5-2.2,8.8,1.7,10,3.5.3.4.8.6,1.3.4,6.1-2.4,8.2,2.7,8.7,4.3,0,.3.3.5.6.6,4.2,1.2,5.4,5,5.7,6.9,0,.6.6,1,1.2.9,3.1-.2,4.8,2,5.5,3.6.5,1.1.8,2.2.7,3.4Z"/>
          <g>
            <polygon class="cls-6" points="82.1 686.3 82.1 694.7 79.2 694.7 46.4 694.5 45.1 694.4 42.4 694.4 42.4 686.2 47.8 686.2 48.7 686.2 54.2 686.2 70.1 686.3 75.7 686.3 76.7 686.3 82.1 686.3"/>
            <polygon class="cls-6" points="79.3 702.2 45.1 702.2 45.1 694.4 46.4 694.5 79.2 694.7 79.3 702.2"/>
          </g>
        </g>
        <g>
          <path class="cls-4" d="M571.1,510.5c0,1.4-.3,2.7-.7,4-.7,2-2,3.6-3.6,4.9-1.6,1.3-3.6,2.2-5.8,2.4-.4,0-.8,0-1.2,0-2.9,0-5.5-1.1-7.5-2.8-2.4-2.1-3.8-5.1-3.8-8.5,0-5,3.2-9.2,7.6-10.7,1.2-.4,2.4-.6,3.8-.6s.4,0,.6,0c3.3.2,6.2,1.8,8.2,4.2,1.2,1.5,2.1,3.4,2.4,5.4,0,.6.1,1.2.1,1.7Z"/>
          <path class="cls-4" d="M565.7,464.4c0,1-.1,1.9-.4,2.9-.5,2.1-1.7,3.9-3.2,5.4-1.2,1.1-2.5,2-4.1,2.5-1.2.4-2.4.6-3.7.6s-.3,0-.5,0c-6-.3-10.8-5.2-10.8-11.3s5.1-11.4,11.4-11.4,7.2,1.9,9.2,4.7c.8,1.2,1.5,2.5,1.8,3.9.2.9.3,1.8.3,2.7Z"/>
          <path class="cls-4" d="M612.6,443c0,.8,0,1.5-.2,2.2-.3,1.7-1,3.2-2,4.5-1.5,2-3.7,3.5-6.2,4.2-.9.3-1.9.4-3,.4s-2.2-.2-3.3-.5c-2.6-.8-4.7-2.4-6.2-4.6-.7-1.1-1.3-2.4-1.6-3.7-.2-.8-.3-1.7-.3-2.6,0-6.3,5.1-11.4,11.4-11.4s11.4,5.1,11.4,11.4Z"/>
          <path class="cls-4" d="M617.7,492.9c0,1.2-.1,2.4-.4,3.5-.4,2.1-1.3,4-2.4,5.7-1.8,2.6-4.3,4.7-7.2,6-1.6.7-3.3,1.1-5.1,1.2-.4,0-.9,0-1.3,0s-1.2,0-1.8,0c-1.8-.2-3.5-.7-5-1.4-2.9-1.3-5.3-3.4-7-6.1h0c-1-1.5-1.7-3.2-2.1-5-.3-1.2-.4-2.5-.4-3.8,0-2.2.4-4.3,1.2-6.2.7-1.7,1.7-3.3,2.9-4.7,2.3-2.6,5.4-4.4,8.9-5.2h0c1.1-.2,2.2-.4,3.4-.4s1.9,0,2.8.2c3.5.6,6.7,2.3,9.1,4.8,1.4,1.5,2.5,3.2,3.3,5.1.8,1.9,1.2,4,1.2,6.2Z"/>
          <path class="cls-1" d="M556.5,499.6"/>
          <path class="cls-7" d="M560.4,499.2c-.2,0-.4,0-.6,0-1.3,0-2.6.2-3.8.6l-2.2-24.1c.2,0,.3,0,.5,0,1.3,0,2.6-.2,3.7-.6l2.3,24.1Z"/>
          <path class="cls-7" d="M591.8,449.3l-26.4,12.3c-.3-1.4-1-2.8-1.8-3.9l26.6-12.1c.3,1.3.9,2.6,1.6,3.7Z"/>
          <path class="cls-7" d="M638.9,457.7c-.9,1.2-1.5,2.7-1.9,4.2l-26.6-12.2c1-1.3,1.7-2.8,2-4.5l26.5,12.5Z"/>
          <path class="cls-7" d="M589.1,482c-1.2,1.4-2.2,2.9-2.9,4.7l-24.1-14.1c1.5-1.4,2.6-3.3,3.2-5.4l23.8,14.8Z"/>
          <path class="cls-7" d="M604.2,454v22.8c-.9-.2-1.8-.2-2.8-.2s-2.3.1-3.4.4v-22.9c1,.3,2.1.5,3.3.5s2-.1,3-.4Z"/>
          <path class="cls-7" d="M640.1,472.4l-23.5,14.2c-.8-1.9-1.9-3.6-3.3-5.1l23.9-14.3c.5,2,1.5,3.7,2.9,5.1Z"/>
          <path class="cls-7" d="M633.7,503.3c-1.2,1.5-2.1,3.4-2.4,5.4l-16.3-6.8c1.1-1.7,2-3.6,2.4-5.7l16.3,7Z"/>
          <path class="cls-7" d="M587.5,501.7l-16.6,7.1c-.3-2-1.2-3.9-2.4-5.4l16.9-6.7c.4,1.8,1.2,3.5,2.1,5Z"/>
          <path class="cls-7" d="M561,521.8h0s-4.3,14.3-4.3,14.3c-3.3-.2-5,1.6-5.7,2.7-.3.4-.8.6-1.3.4-1.5-.5-2.8-.3-3.5-.2,0,0-.1,0-.2,0l6.3-20c2,1.8,4.6,2.8,7.5,2.8s.8,0,1.2,0Z"/>
          <path class="cls-1" d="M585.1,557.7"/>
          <path class="cls-1" d="M585.1,560.5"/>
          <path class="cls-1" d="M590.3,552.1"/>
          <path class="cls-1" d="M568.5,560.5"/>
          <path class="cls-7" d="M599.5,509.2l-4.3,23.6-2.1,11.7h-5.6s1.7-8.7,1.7-8.7l1.2-6.2,4.1-21.8c1.6.7,3.2,1.2,5,1.4Z"/>
          <path class="cls-7" d="M614.6,544.6h-5.6s-2.1-11.8-2.1-11.8l-4.2-23.6c1.8-.1,3.5-.6,5.1-1.2l4,21.6,1.2,6.6,1.6,8.4Z"/>
          <line class="cls-1" x1="614.6" y1="544.6" x2="614.6" y2="544.6"/>
          <line class="cls-1" x1="609" y1="544.5" x2="609" y2="544.6"/>
          <path class="cls-7" d="M590.4,529.6l-1.2,6.2h0l-22.4-16.4c1.6-1.3,2.8-3,3.6-4.9l20,15.1Z"/>
          <path class="cls-7" d="M635.2,519.3l-22.2,16.9-1.2-6.6,20.1-15.1c.7,1.9,1.9,3.5,3.4,4.8Z"/>
          <path class="cls-4" d="M609,544.5h-15.9c0,0,2.1-11.8,2.1-11.8,0,0,4.9-3.4,11.6,0h0l2.1,11.8Z"/>
          <path class="cls-1" d="M511.7,560.3"/>
          <path class="cls-3" d="M581.3,552.7h2.7v7.8h-71c-1.5-.1-3.1-.6-4.2-1.7-1-1-1.9-2.5-1.9-4.8,0-1.8.7-3.5,1.9-4.8,1-1,2.6-2,4.8-1.7.3,0,.5-.1.5-.4.1-1.5.9-5.8,5.8-7.2.3,0,.6-.4.7-.7.4-1.7,2-6.6,8.8-4.2.5.2,1,0,1.2-.5.7-1.5,2.8-4.4,8.2-3.9,0,0,7,.4,6.6,8,0,.3.2.5.4.5,0,0,.1,0,.2,0,.7-.2,2-.3,3.5.2.5.1,1,0,1.3-.4.7-1.1,2.4-2.9,5.7-2.7.4,0,.8,0,1.2.1,0,0,4.2,1.1,4.8,4.8,0,.4.4.8.8.8.7,0,1.6.4,2.3,1.2.4.4,1,.5,1.4.2.9-.6,2.5-1.3,4.1-.6.5.2,1.1,0,1.4-.4.6-1,1.9-2.5,4.4-3.2,1.8-.5,3.8-.2,5.5.5,1.9.8,4.2,2.3,4,4.8h-5.4s0,8.3,0,8.3Z"/>
          <path class="cls-3" d="M695.2,554.5c0,1.1-.4,2.1-.9,2.8-1.2,2-3.5,3.1-5.8,3.1h-70.4v-7.5c0,0,2.9,0,2.9,0v-8.4h-5.5c-.2-5.2,6.6-5.8,6.6-5.8,4.3-.5,6.5,2.2,7.4,3.6.3.4.8.6,1.2.4,1.7-.8,3.3,0,4.2.5.4.3,1,.1,1.2-.3.7-.9,1.7-1.1,2.4-1.1.4,0,.7-.3.7-.7,0-3.2,3.8-4.5,3.8-4.5,1.1-.5,2.1-.7,3-.7,2.6,0,4.4,1.7,5.2,2.6.3.3.7.4,1.1.2,1.2-.9,2.6-.6,3.6-.3,0,0,0,0,.1,0,.4,0,.7-.3.7-.7-.7-4.9,4.9-7,4.9-7,5.5-2.2,8.8,1.7,10,3.5.3.4.8.6,1.3.4,6.1-2.4,8.2,2.7,8.7,4.3,0,.3.3.5.6.6,4.2,1.2,5.4,5,5.7,6.9,0,.6.6,1,1.2.9,3.1-.2,4.8,2,5.5,3.6.5,1.1.8,2.2.7,3.4Z"/>
          <g>
            <polygon class="cls-6" points="621 544.6 621 553 618.1 553 585.3 552.7 584 552.7 581.3 552.7 581.3 544.4 586.6 544.4 587.6 544.5 593.1 544.5 609 544.5 614.6 544.6 615.6 544.6 621 544.6"/>
            <polygon class="cls-6" points="618.1 560.5 584 560.5 584 552.7 585.3 552.7 618.1 553 618.1 560.5"/>
          </g>
        </g>
        <g>
          <path class="cls-4" d="M363.8,510.5c0,1.4-.3,2.7-.7,4-.7,2-2,3.6-3.6,4.9-1.6,1.3-3.6,2.2-5.8,2.4-.4,0-.8,0-1.2,0-2.9,0-5.5-1.1-7.5-2.8-2.4-2.1-3.8-5.1-3.8-8.5,0-5,3.2-9.2,7.6-10.7,1.2-.4,2.4-.6,3.8-.6s.4,0,.6,0c3.3.2,6.2,1.8,8.2,4.2,1.2,1.5,2.1,3.4,2.4,5.4,0,.6.1,1.2.1,1.7Z"/>
          <path class="cls-4" d="M446.6,510.5c0,3.3-1.4,6.4-3.7,8.4-2,1.8-4.7,2.9-7.6,2.9s-1,0-1.5,0c-2.2-.3-4.1-1.2-5.7-2.5-1.5-1.3-2.7-2.9-3.4-4.8-.5-1.2-.7-2.6-.7-4s0-1.2.1-1.7c.3-2,1.2-3.9,2.4-5.4,1.8-2.2,4.4-3.7,7.4-4.1.5,0,1,0,1.4,0,1.5,0,3,.3,4.3.9,4.1,1.7,7,5.8,7,10.5Z"/>
          <path class="cls-4" d="M452.2,464.4c0,5.9-4.4,10.7-10.1,11.3-.4,0-.8,0-1.2,0-1.6,0-3.1-.3-4.5-.9-1.3-.6-2.5-1.4-3.5-2.4-1.4-1.4-2.4-3.1-2.9-5.1-.3-.9-.4-1.9-.4-2.9s0-1.6.3-2.4c.3-1.5,1-3,1.9-4.2,2.1-2.9,5.4-4.7,9.2-4.7,6.3,0,11.4,5.1,11.4,11.4Z"/>
          <path class="cls-4" d="M358.4,464.4c0,1-.1,1.9-.4,2.9-.5,2.1-1.7,3.9-3.2,5.4-1.2,1.1-2.5,2-4.1,2.5-1.2.4-2.4.6-3.7.6s-.3,0-.5,0c-6-.3-10.8-5.2-10.8-11.3s5.1-11.4,11.4-11.4,7.2,1.9,9.2,4.7c.8,1.2,1.5,2.5,1.8,3.9.2.9.3,1.8.3,2.7Z"/>
          <path class="cls-4" d="M405.3,443c0,.8,0,1.5-.2,2.2-.3,1.7-1,3.2-2,4.5-1.5,2-3.7,3.5-6.2,4.2-.9.3-1.9.4-3,.4s-2.2-.2-3.3-.5c-2.6-.8-4.7-2.4-6.2-4.6-.7-1.1-1.3-2.4-1.6-3.7-.2-.8-.3-1.7-.3-2.6,0-6.3,5.1-11.4,11.4-11.4s11.4,5.1,11.4,11.4Z"/>
          <path class="cls-4" d="M410.5,492.9c0,1.2-.1,2.4-.4,3.5-.4,2.1-1.3,4-2.4,5.7-1.8,2.6-4.3,4.7-7.2,6-1.6.7-3.3,1.1-5.1,1.2-.4,0-.9,0-1.3,0s-1.2,0-1.8,0c-1.8-.2-3.5-.7-5-1.4-2.9-1.3-5.3-3.4-7-6.1h0c-1-1.5-1.7-3.2-2.1-5-.3-1.2-.4-2.5-.4-3.8,0-2.2.4-4.3,1.2-6.2.7-1.7,1.7-3.3,2.9-4.7,2.3-2.6,5.4-4.4,8.9-5.2h0c1.1-.2,2.2-.4,3.4-.4s1.9,0,2.8.2c3.5.6,6.7,2.3,9.1,4.8,1.4,1.5,2.5,3.2,3.3,5.1.8,1.9,1.2,4,1.2,6.2Z"/>
          <path class="cls-1" d="M349.2,499.6"/>
          <path class="cls-7" d="M353.1,499.2c-.2,0-.4,0-.6,0-1.3,0-2.6.2-3.8.6l-2.2-24.1c.2,0,.3,0,.5,0,1.3,0,2.6-.2,3.7-.6l2.3,24.1Z"/>
          <path class="cls-7" d="M384.5,449.3l-26.4,12.3c-.3-1.4-1-2.8-1.8-3.9l26.6-12.1c.3,1.3.9,2.6,1.6,3.7Z"/>
          <path class="cls-7" d="M431.6,457.7c-.9,1.2-1.5,2.7-1.9,4.2l-26.6-12.2c1-1.3,1.7-2.8,2-4.5l26.5,12.5Z"/>
          <path class="cls-7" d="M442,475.6l-2.5,24.4c-1.3-.6-2.8-.9-4.3-.9s-1,0-1.4,0l2.6-24.5c1.4.6,2.9.9,4.5.9s.8,0,1.2,0Z"/>
          <path class="cls-7" d="M381.8,482c-1.2,1.4-2.2,2.9-2.9,4.7l-24.1-14.1c1.5-1.4,2.6-3.3,3.2-5.4l23.8,14.8Z"/>
          <path class="cls-7" d="M396.9,454v22.8c-.9-.2-1.8-.2-2.8-.2s-2.3.1-3.4.4v-22.9c1,.3,2.1.5,3.3.5s2-.1,3-.4Z"/>
          <path class="cls-7" d="M432.8,472.4l-23.5,14.2c-.8-1.9-1.9-3.6-3.3-5.1l23.9-14.3c.5,2,1.5,3.7,2.9,5.1Z"/>
          <path class="cls-7" d="M426.4,503.3c-1.2,1.5-2.1,3.4-2.4,5.4l-16.3-6.8c1.1-1.7,2-3.6,2.4-5.7l16.3,7Z"/>
          <path class="cls-7" d="M380.3,501.7l-16.6,7.1c-.3-2-1.2-3.9-2.4-5.4l16.9-6.7c.4,1.8,1.2,3.5,2.1,5Z"/>
          <path class="cls-7" d="M353.7,521.8h0s-4.3,14.3-4.3,14.3c-3.3-.2-5,1.6-5.7,2.7-.3.4-.8.6-1.3.4-1.5-.5-2.8-.3-3.5-.2,0,0-.1,0-.2,0l6.3-20c2,1.8,4.6,2.8,7.5,2.8s.8,0,1.2,0Z"/>
          <path class="cls-1" d="M377.9,557.7"/>
          <path class="cls-1" d="M377.9,560.5"/>
          <path class="cls-1" d="M383.1,552.1"/>
          <path class="cls-1" d="M361.3,560.5"/>
          <path class="cls-7" d="M392.3,509.2l-4.3,23.6-2.1,11.7h-5.6s1.7-8.7,1.7-8.7l1.2-6.2,4.1-21.8c1.6.7,3.2,1.2,5,1.4Z"/>
          <path class="cls-7" d="M407.3,544.6h-5.6s-2.1-11.8-2.1-11.8l-4.2-23.6c1.8-.1,3.5-.6,5.1-1.2l4,21.6,1.2,6.6,1.6,8.4Z"/>
          <line class="cls-1" x1="407.3" y1="544.6" x2="407.3" y2="544.6"/>
          <line class="cls-1" x1="401.7" y1="544.5" x2="401.7" y2="544.6"/>
          <path class="cls-7" d="M383.1,529.6l-1.2,6.2h0l-22.4-16.4c1.6-1.3,2.8-3,3.6-4.9l20,15.1Z"/>
          <path class="cls-7" d="M428,519.3l-22.2,16.9-1.2-6.6,20.1-15.1c.7,1.9,1.9,3.5,3.4,4.8Z"/>
          <path class="cls-7" d="M448.8,538.6c0,0,0,0-.1,0-.9-.3-2.3-.6-3.6.3-.3.2-.8.1-1.1-.2-.8-1-2.6-2.7-5.2-2.6l-5.1-14.3c.5,0,1,0,1.5,0,2.9,0,5.6-1.1,7.6-2.9l6,19.7Z"/>
          <path class="cls-4" d="M401.7,544.5h-15.9c0,0,2.1-11.8,2.1-11.8,0,0,4.9-3.4,11.6,0h0l2.1,11.8Z"/>
          <path class="cls-1" d="M304.4,560.3"/>
          <path class="cls-3" d="M374,552.7h2.7v7.8h-71c-1.5-.1-3.1-.6-4.2-1.7-1-1-1.9-2.5-1.9-4.8,0-1.8.7-3.5,1.9-4.8,1-1,2.6-2,4.8-1.7.3,0,.5-.1.5-.4.1-1.5.9-5.8,5.8-7.2.3,0,.6-.4.7-.7.4-1.7,2-6.6,8.8-4.2.5.2,1,0,1.2-.5.7-1.5,2.8-4.4,8.2-3.9,0,0,7,.4,6.6,8,0,.3.2.5.4.5,0,0,.1,0,.2,0,.7-.2,2-.3,3.5.2.5.1,1,0,1.3-.4.7-1.1,2.4-2.9,5.7-2.7.4,0,.8,0,1.2.1,0,0,4.2,1.1,4.8,4.8,0,.4.4.8.8.8.7,0,1.6.4,2.3,1.2.4.4,1,.5,1.4.2.9-.6,2.5-1.3,4.1-.6.5.2,1.1,0,1.4-.4.6-1,1.9-2.5,4.4-3.2,1.8-.5,3.8-.2,5.5.5,1.9.8,4.2,2.3,4,4.8h-5.4s0,8.3,0,8.3Z"/>
          <path class="cls-3" d="M488,554.5c0,1.1-.4,2.1-.9,2.8-1.2,2-3.5,3.1-5.8,3.1h-70.4v-7.5c0,0,2.9,0,2.9,0v-8.4h-5.5c-.2-5.2,6.6-5.8,6.6-5.8,4.3-.5,6.5,2.2,7.4,3.6.3.4.8.6,1.2.4,1.7-.8,3.3,0,4.2.5.4.3,1,.1,1.2-.3.7-.9,1.7-1.1,2.4-1.1.4,0,.7-.3.7-.7,0-3.2,3.8-4.5,3.8-4.5,1.1-.5,2.1-.7,3-.7,2.6,0,4.4,1.7,5.2,2.6.3.3.7.4,1.1.2,1.2-.9,2.6-.6,3.6-.3,0,0,0,0,.1,0,.4,0,.7-.3.7-.7-.7-4.9,4.9-7,4.9-7,5.5-2.2,8.8,1.7,10,3.5.3.4.8.6,1.3.4,6.1-2.4,8.2,2.7,8.7,4.3,0,.3.3.5.6.6,4.2,1.2,5.4,5,5.7,6.9,0,.6.6,1,1.2.9,3.1-.2,4.8,2,5.5,3.6.5,1.1.8,2.2.7,3.4Z"/>
          <g>
            <polygon class="cls-6" points="413.8 544.6 413.8 553 410.8 553 378 552.7 376.7 552.7 374 552.7 374 544.4 379.4 544.4 380.3 544.5 385.9 544.5 401.7 544.5 407.3 544.6 408.3 544.6 413.8 544.6"/>
            <polygon class="cls-6" points="410.9 560.5 376.7 560.5 376.7 552.7 378 552.7 410.8 553 410.9 560.5"/>
          </g>
        </g>
        <g>
          <path class="cls-4" d="M156.6,510.5c0,1.4-.3,2.7-.7,4-.7,2-2,3.6-3.6,4.9-1.6,1.3-3.6,2.2-5.8,2.4-.4,0-.8,0-1.2,0-2.9,0-5.5-1.1-7.5-2.8-2.4-2.1-3.8-5.1-3.8-8.5,0-5,3.2-9.2,7.6-10.7,1.2-.4,2.4-.6,3.8-.6s.4,0,.6,0c3.3.2,6.2,1.8,8.2,4.2,1.2,1.5,2.1,3.4,2.4,5.4,0,.6.1,1.2.1,1.7Z"/>
          <path class="cls-4" d="M239.3,510.5c0,3.3-1.4,6.4-3.7,8.4-2,1.8-4.7,2.9-7.6,2.9s-1,0-1.5,0c-2.2-.3-4.1-1.2-5.7-2.5-1.5-1.3-2.7-2.9-3.4-4.8-.5-1.2-.7-2.6-.7-4s0-1.2.1-1.7c.3-2,1.2-3.9,2.4-5.4,1.8-2.2,4.4-3.7,7.4-4.1.5,0,1,0,1.4,0,1.5,0,3,.3,4.3.9,4.1,1.7,7,5.8,7,10.5Z"/>
          <path class="cls-4" d="M244.9,464.4c0,5.9-4.4,10.7-10.1,11.3-.4,0-.8,0-1.2,0-1.6,0-3.1-.3-4.5-.9-1.3-.6-2.5-1.4-3.5-2.4-1.4-1.4-2.4-3.1-2.9-5.1-.3-.9-.4-1.9-.4-2.9s0-1.6.3-2.4c.3-1.5,1-3,1.9-4.2,2.1-2.9,5.4-4.7,9.2-4.7,6.3,0,11.4,5.1,11.4,11.4Z"/>
          <path class="cls-4" d="M151.1,464.4c0,1-.1,1.9-.4,2.9-.5,2.1-1.7,3.9-3.2,5.4-1.2,1.1-2.5,2-4.1,2.5-1.2.4-2.4.6-3.7.6s-.3,0-.5,0c-6-.3-10.8-5.2-10.8-11.3s5.1-11.4,11.4-11.4,7.2,1.9,9.2,4.7c.8,1.2,1.5,2.5,1.8,3.9.2.9.3,1.8.3,2.7Z"/>
          <path class="cls-4" d="M198,443c0,.8,0,1.5-.2,2.2-.3,1.7-1,3.2-2,4.5-1.5,2-3.7,3.5-6.2,4.2-.9.3-1.9.4-3,.4s-2.2-.2-3.3-.5c-2.6-.8-4.7-2.4-6.2-4.6-.7-1.1-1.3-2.4-1.6-3.7-.2-.8-.3-1.7-.3-2.6,0-6.3,5.1-11.4,11.4-11.4s11.4,5.1,11.4,11.4Z"/>
          <path class="cls-4" d="M203.2,492.9c0,1.2-.1,2.4-.4,3.5-.4,2.1-1.3,4-2.4,5.7-1.8,2.6-4.3,4.7-7.2,6-1.6.7-3.3,1.1-5.1,1.2-.4,0-.9,0-1.3,0s-1.2,0-1.8,0c-1.8-.2-3.5-.7-5-1.4-2.9-1.3-5.3-3.4-7-6.1h0c-1-1.5-1.7-3.2-2.1-5-.3-1.2-.4-2.5-.4-3.8,0-2.2.4-4.3,1.2-6.2.7-1.7,1.7-3.3,2.9-4.7,2.3-2.6,5.4-4.4,8.9-5.2h0c1.1-.2,2.2-.4,3.4-.4s1.9,0,2.8.2c3.5.6,6.7,2.3,9.1,4.8,1.4,1.5,2.5,3.2,3.3,5.1.8,1.9,1.2,4,1.2,6.2Z"/>
          <path class="cls-1" d="M141.9,499.6"/>
          <path class="cls-7" d="M145.9,499.2c-.2,0-.4,0-.6,0-1.3,0-2.6.2-3.8.6l-2.2-24.1c.2,0,.3,0,.5,0,1.3,0,2.6-.2,3.7-.6l2.3,24.1Z"/>
          <path class="cls-7" d="M177.2,449.3l-26.4,12.3c-.3-1.4-1-2.8-1.8-3.9l26.6-12.1c.3,1.3.9,2.6,1.6,3.7Z"/>
          <path class="cls-7" d="M224.3,457.7c-.9,1.2-1.5,2.7-1.9,4.2l-26.6-12.2c1-1.3,1.7-2.8,2-4.5l26.5,12.5Z"/>
          <path class="cls-7" d="M234.8,475.6l-2.5,24.4c-1.3-.6-2.8-.9-4.3-.9s-1,0-1.4,0l2.6-24.5c1.4.6,2.9.9,4.5.9s.8,0,1.2,0Z"/>
          <path class="cls-7" d="M174.6,482c-1.2,1.4-2.2,2.9-2.9,4.7l-24.1-14.1c1.5-1.4,2.6-3.3,3.2-5.4l23.8,14.8Z"/>
          <path class="cls-7" d="M189.6,454v22.8c-.9-.2-1.8-.2-2.8-.2s-2.3.1-3.4.4v-22.9c1,.3,2.1.5,3.3.5s2-.1,3-.4Z"/>
          <path class="cls-7" d="M225.5,472.4l-23.5,14.2c-.8-1.9-1.9-3.6-3.3-5.1l23.9-14.3c.5,2,1.5,3.7,2.9,5.1Z"/>
          <path class="cls-7" d="M219.1,503.3c-1.2,1.5-2.1,3.4-2.4,5.4l-16.3-6.8c1.1-1.7,2-3.6,2.4-5.7l16.3,7Z"/>
          <path class="cls-7" d="M173,501.7l-16.6,7.1c-.3-2-1.2-3.9-2.4-5.4l16.9-6.7c.4,1.8,1.2,3.5,2.1,5Z"/>
          <path class="cls-7" d="M146.4,521.8h0s-4.3,14.3-4.3,14.3c-3.3-.2-5,1.6-5.7,2.7-.3.4-.8.6-1.3.4-1.5-.5-2.8-.3-3.5-.2,0,0-.1,0-.2,0l6.3-20c2,1.8,4.6,2.8,7.5,2.8s.8,0,1.2,0Z"/>
          <path class="cls-1" d="M170.6,557.7"/>
          <path class="cls-1" d="M170.6,560.5"/>
          <path class="cls-1" d="M175.8,552.1"/>
          <path class="cls-1" d="M154,560.5"/>
          <path class="cls-7" d="M185,509.2l-4.3,23.6-2.1,11.7h-5.6s1.7-8.7,1.7-8.7l1.2-6.2,4.1-21.8c1.6.7,3.2,1.2,5,1.4Z"/>
          <path class="cls-7" d="M200,544.6h-5.6s-2.1-11.8-2.1-11.8l-4.2-23.6c1.8-.1,3.5-.6,5.1-1.2l4,21.6,1.2,6.6,1.6,8.4Z"/>
          <line class="cls-1" x1="200" y1="544.6" x2="200" y2="544.6"/>
          <line class="cls-1" x1="194.5" y1="544.5" x2="194.5" y2="544.6"/>
          <path class="cls-7" d="M175.9,529.6l-1.2,6.2h0l-22.4-16.4c1.6-1.3,2.8-3,3.6-4.9l20,15.1Z"/>
          <path class="cls-7" d="M220.7,519.3l-22.2,16.9-1.2-6.6,20.1-15.1c.7,1.9,1.9,3.5,3.4,4.8Z"/>
          <path class="cls-7" d="M241.5,538.6c0,0,0,0-.1,0-.9-.3-2.3-.6-3.6.3-.3.2-.8.1-1.1-.2-.8-1-2.6-2.7-5.2-2.6l-5.1-14.3c.5,0,1,0,1.5,0,2.9,0,5.6-1.1,7.6-2.9l6,19.7Z"/>
          <path class="cls-4" d="M194.5,544.5h-15.9c0,0,2.1-11.8,2.1-11.8,0,0,4.9-3.4,11.6,0h0l2.1,11.8Z"/>
          <path class="cls-1" d="M97.2,560.3"/>
          <path class="cls-3" d="M166.7,552.7h2.7v7.8h-71c-1.5-.1-3.1-.6-4.2-1.7-1-1-1.9-2.5-1.9-4.8,0-1.8.7-3.5,1.9-4.8,1-1,2.6-2,4.8-1.7.3,0,.5-.1.5-.4.1-1.5.9-5.8,5.8-7.2.3,0,.6-.4.7-.7.4-1.7,2-6.6,8.8-4.2.5.2,1,0,1.2-.5.7-1.5,2.8-4.4,8.2-3.9,0,0,7,.4,6.6,8,0,.3.2.5.4.5,0,0,.1,0,.2,0,.7-.2,2-.3,3.5.2.5.1,1,0,1.3-.4.7-1.1,2.4-2.9,5.7-2.7.4,0,.8,0,1.2.1,0,0,4.2,1.1,4.8,4.8,0,.4.4.8.8.8.7,0,1.6.4,2.3,1.2.4.4,1,.5,1.4.2.9-.6,2.5-1.3,4.1-.6.5.2,1.1,0,1.4-.4.6-1,1.9-2.5,4.4-3.2,1.8-.5,3.8-.2,5.5.5,1.9.8,4.2,2.3,4,4.8h-5.4s0,8.3,0,8.3Z"/>
          <path class="cls-3" d="M280.7,554.5c0,1.1-.4,2.1-.9,2.8-1.2,2-3.5,3.1-5.8,3.1h-70.4v-7.5c0,0,2.9,0,2.9,0v-8.4h-5.5c-.2-5.2,6.6-5.8,6.6-5.8,4.3-.5,6.5,2.2,7.4,3.6.3.4.8.6,1.2.4,1.7-.8,3.3,0,4.2.5.4.3,1,.1,1.2-.3.7-.9,1.7-1.1,2.4-1.1.4,0,.7-.3.7-.7,0-3.2,3.8-4.5,3.8-4.5,1.1-.5,2.1-.7,3-.7,2.6,0,4.4,1.7,5.2,2.6.3.3.7.4,1.1.2,1.2-.9,2.6-.6,3.6-.3,0,0,0,0,.1,0,.4,0,.7-.3.7-.7-.7-4.9,4.9-7,4.9-7,5.5-2.2,8.8,1.7,10,3.5.3.4.8.6,1.3.4,6.1-2.4,8.2,2.7,8.7,4.3,0,.3.3.5.6.6,4.2,1.2,5.4,5,5.7,6.9,0,.6.6,1,1.2.9,3.1-.2,4.8,2,5.5,3.6.5,1.1.8,2.2.7,3.4Z"/>
          <g>
            <polygon class="cls-6" points="206.5 544.6 206.5 553 203.6 553 170.7 552.7 169.4 552.7 166.7 552.7 166.7 544.4 172.1 544.4 173 544.5 178.6 544.5 194.5 544.5 200 544.6 201.1 544.6 206.5 544.6"/>
            <polygon class="cls-6" points="203.6 560.5 169.4 560.5 169.4 552.7 170.7 552.7 203.6 553 203.6 560.5"/>
          </g>
        </g>
        <g>
          <path class="cls-4" d="M32,510.5c0,3.3-1.4,6.4-3.7,8.4-2,1.8-4.7,2.9-7.6,2.9s-1,0-1.5,0c-2.2-.3-4.1-1.2-5.7-2.5-1.5-1.3-2.7-2.9-3.4-4.8-.5-1.2-.7-2.6-.7-4s0-1.2.1-1.7c.3-2,1.2-3.9,2.4-5.4,1.8-2.2,4.4-3.7,7.4-4.1.5,0,1,0,1.4,0,1.5,0,3,.3,4.3.9,4.1,1.7,7,5.8,7,10.5Z"/>
          <path class="cls-4" d="M37.6,464.4c0,5.9-4.4,10.7-10.1,11.3-.4,0-.8,0-1.2,0-1.6,0-3.1-.3-4.5-.9-1.3-.6-2.5-1.4-3.5-2.4-1.4-1.4-2.4-3.1-2.9-5.1-.3-.9-.4-1.9-.4-2.9s0-1.6.3-2.4c.3-1.5,1-3,1.9-4.2,2.1-2.9,5.4-4.7,9.2-4.7,6.3,0,11.4,5.1,11.4,11.4Z"/>
          <path class="cls-7" d="M17.1,457.7c-.9,1.2-1.5,2.7-1.9,4.2l-26.6-12.2c1-1.3,1.7-2.8,2-4.5l26.5,12.5Z"/>
          <path class="cls-7" d="M27.5,475.6l-2.5,24.4c-1.3-.6-2.8-.9-4.3-.9s-1,0-1.4,0l2.6-24.5c1.4.6,2.9.9,4.5.9s.8,0,1.2,0Z"/>
          <path class="cls-7" d="M18.3,472.4l-23.5,14.2c-.8-1.9-1.9-3.6-3.3-5.1l23.9-14.3c.5,2,1.5,3.7,2.9,5.1Z"/>
          <path class="cls-7" d="M11.9,503.3c-1.2,1.5-2.1,3.4-2.4,5.4l-16.3-6.8c1.1-1.7,2-3.6,2.4-5.7l16.3,7Z"/>
          <path class="cls-7" d="M13.4,519.3l-22.2,16.9-1.2-6.6,20.1-15.1c.7,1.9,1.9,3.5,3.4,4.8Z"/>
          <path class="cls-7" d="M34.3,538.6c0,0,0,0-.1,0-.9-.3-2.3-.6-3.6.3-.3.2-.8.1-1.1-.2-.8-1-2.6-2.7-5.2-2.6l-5.1-14.3c.5,0,1,0,1.5,0,2.9,0,5.6-1.1,7.6-2.9l6,19.7Z"/>
          <path class="cls-3" d="M73.4,554.5c0,1.1-.4,2.1-.9,2.8-1.2,2-3.5,3.1-5.8,3.1H-3.7v-7.5c0,0,2.9,0,2.9,0v-8.4h-5.5c-.2-5.2,6.6-5.8,6.6-5.8,4.3-.5,6.5,2.2,7.4,3.6.3.4.8.6,1.2.4,1.7-.8,3.3,0,4.2.5.4.3,1,.1,1.2-.3.7-.9,1.7-1.1,2.4-1.1.4,0,.7-.3.7-.7,0-3.2,3.8-4.5,3.8-4.5,1.1-.5,2.1-.7,3-.7,2.6,0,4.4,1.7,5.2,2.6.3.3.7.4,1.1.2,1.2-.9,2.6-.6,3.6-.3,0,0,0,0,.1,0,.4,0,.7-.3.7-.7-.7-4.9,4.9-7,4.9-7,5.5-2.2,8.8,1.7,10,3.5.3.4.8.6,1.3.4,6.1-2.4,8.2,2.7,8.7,4.3,0,.3.3.5.6.6,4.2,1.2,5.4,5,5.7,6.9,0,.6.6,1,1.2.9,3.1-.2,4.8,2,5.5,3.6.5,1.1.8,2.2.7,3.4Z"/>
        </g>
        <g>
          <path class="cls-4" d="M488.2,368.8c0,1.4-.3,2.7-.7,4-.7,2-2,3.6-3.6,4.9-1.6,1.3-3.6,2.2-5.8,2.4-.4,0-.8,0-1.2,0-2.9,0-5.5-1.1-7.5-2.8-2.4-2.1-3.8-5.1-3.8-8.5,0-5,3.2-9.2,7.6-10.7,1.2-.4,2.4-.6,3.8-.6s.4,0,.6,0c3.3.2,6.2,1.8,8.2,4.2,1.2,1.5,2.1,3.4,2.4,5.4,0,.6.1,1.2.1,1.7Z"/>
          <path class="cls-4" d="M570.9,368.8c0,3.3-1.4,6.4-3.7,8.4-2,1.8-4.7,2.9-7.6,2.9s-1,0-1.5,0c-2.2-.3-4.1-1.2-5.7-2.5-1.5-1.3-2.7-2.9-3.4-4.8-.5-1.2-.7-2.6-.7-4s0-1.2.1-1.7c.3-2,1.2-3.9,2.4-5.4,1.8-2.2,4.4-3.7,7.4-4.1.5,0,1,0,1.4,0,1.5,0,3,.3,4.3.9,4.1,1.7,7,5.8,7,10.5Z"/>
          <path class="cls-4" d="M576.5,322.6c0,5.9-4.4,10.7-10.1,11.3-.4,0-.8,0-1.2,0-1.6,0-3.1-.3-4.5-.9-1.3-.6-2.5-1.4-3.5-2.4-1.4-1.4-2.4-3.1-2.9-5.1-.3-.9-.4-1.9-.4-2.9s0-1.6.3-2.4c.3-1.5,1-3,1.9-4.2,2.1-2.9,5.4-4.7,9.2-4.7,6.3,0,11.4,5.1,11.4,11.4Z"/>
          <path class="cls-4" d="M482.8,322.6c0,1-.1,1.9-.4,2.9-.5,2.1-1.7,3.9-3.2,5.4-1.2,1.1-2.5,2-4.1,2.5-1.2.4-2.4.6-3.7.6s-.3,0-.5,0c-6-.3-10.8-5.2-10.8-11.3s5.1-11.4,11.4-11.4,7.2,1.9,9.2,4.7c.8,1.2,1.5,2.5,1.8,3.9.2.9.3,1.8.3,2.7Z"/>
          <path class="cls-4" d="M529.6,301.3c0,.8,0,1.5-.2,2.2-.3,1.7-1,3.2-2,4.5-1.5,2-3.7,3.5-6.2,4.2-.9.3-1.9.4-3,.4s-2.2-.2-3.3-.5c-2.6-.8-4.7-2.4-6.2-4.6-.7-1.1-1.3-2.4-1.6-3.7-.2-.8-.3-1.7-.3-2.6,0-6.3,5.1-11.4,11.4-11.4s11.4,5.1,11.4,11.4Z"/>
          <path class="cls-4" d="M534.8,351.1c0,1.2-.1,2.4-.4,3.5-.4,2.1-1.3,4-2.4,5.7-1.8,2.6-4.3,4.7-7.2,6-1.6.7-3.3,1.1-5.1,1.2-.4,0-.9,0-1.3,0s-1.2,0-1.8,0c-1.8-.2-3.5-.7-5-1.4-2.9-1.3-5.3-3.4-7-6.1h0c-1-1.5-1.7-3.2-2.1-5-.3-1.2-.4-2.5-.4-3.8,0-2.2.4-4.3,1.2-6.2.7-1.7,1.7-3.3,2.9-4.7,2.3-2.6,5.4-4.4,8.9-5.2h0c1.1-.2,2.2-.4,3.4-.4s1.9,0,2.8.2c3.5.6,6.7,2.3,9.1,4.8,1.4,1.5,2.5,3.2,3.3,5.1.8,1.9,1.2,4,1.2,6.2Z"/>
          <path class="cls-1" d="M473.6,357.9"/>
          <path class="cls-7" d="M477.5,357.4c-.2,0-.4,0-.6,0-1.3,0-2.6.2-3.8.6l-2.2-24.1c.2,0,.3,0,.5,0,1.3,0,2.6-.2,3.7-.6l2.3,24.1Z"/>
          <path class="cls-7" d="M508.9,307.6l-26.4,12.3c-.3-1.4-1-2.8-1.8-3.9l26.6-12.1c.3,1.3.9,2.6,1.6,3.7Z"/>
          <path class="cls-7" d="M556,316c-.9,1.2-1.5,2.7-1.9,4.2l-26.6-12.2c1-1.3,1.7-2.8,2-4.5l26.5,12.5Z"/>
          <path class="cls-7" d="M566.4,333.9l-2.5,24.4c-1.3-.6-2.8-.9-4.3-.9s-1,0-1.4,0l2.6-24.5c1.4.6,2.9.9,4.5.9s.8,0,1.2,0Z"/>
          <path class="cls-7" d="M506.2,340.3c-1.2,1.4-2.2,2.9-2.9,4.7l-24.1-14.1c1.5-1.4,2.6-3.3,3.2-5.4l23.8,14.8Z"/>
          <path class="cls-7" d="M521.3,312.2v22.8c-.9-.2-1.8-.2-2.8-.2s-2.3.1-3.4.4v-22.9c1,.3,2.1.5,3.3.5s2-.1,3-.4Z"/>
          <path class="cls-7" d="M557.2,330.7l-23.5,14.2c-.8-1.9-1.9-3.6-3.3-5.1l23.9-14.3c.5,2,1.5,3.7,2.9,5.1Z"/>
          <path class="cls-7" d="M550.8,361.6c-1.2,1.5-2.1,3.4-2.4,5.4l-16.3-6.8c1.1-1.7,2-3.6,2.4-5.7l16.3,7Z"/>
          <path class="cls-7" d="M504.6,360l-16.6,7.1c-.3-2-1.2-3.9-2.4-5.4l16.9-6.7c.4,1.8,1.2,3.5,2.1,5Z"/>
          <path class="cls-7" d="M478,380.1h0s-4.3,14.3-4.3,14.3c-3.3-.2-5,1.6-5.7,2.7-.3.4-.8.6-1.3.4-1.5-.5-2.8-.3-3.5-.2,0,0-.1,0-.2,0l6.3-20c2,1.8,4.6,2.8,7.5,2.8s.8,0,1.2,0Z"/>
          <path class="cls-1" d="M502.2,416"/>
          <path class="cls-1" d="M502.2,418.7"/>
          <path class="cls-1" d="M507.4,410.4"/>
          <path class="cls-1" d="M485.6,418.7"/>
          <path class="cls-7" d="M516.6,367.4l-4.3,23.6-2.1,11.7h-5.6s1.7-8.7,1.7-8.7l1.2-6.2,4.1-21.8c1.6.7,3.2,1.2,5,1.4Z"/>
          <path class="cls-7" d="M531.7,402.8h-5.6s-2.1-11.8-2.1-11.8l-4.2-23.6c1.8-.1,3.5-.6,5.1-1.2l4,21.6,1.2,6.6,1.6,8.4Z"/>
          <line class="cls-1" x1="531.7" y1="402.8" x2="531.7" y2="402.8"/>
          <line class="cls-1" x1="526.1" y1="402.8" x2="526.1" y2="402.8"/>
          <path class="cls-7" d="M507.5,387.8l-1.2,6.2h0l-22.4-16.4c1.6-1.3,2.8-3,3.6-4.9l20,15.1Z"/>
          <path class="cls-7" d="M552.3,377.5l-22.2,16.9-1.2-6.6,20.1-15.1c.7,1.9,1.9,3.5,3.4,4.8Z"/>
          <path class="cls-7" d="M573.1,396.9c0,0,0,0-.1,0-.9-.3-2.3-.6-3.6.3-.3.2-.8.1-1.1-.2-.8-1-2.6-2.7-5.2-2.6l-5.1-14.3c.5,0,1,0,1.5,0,2.9,0,5.6-1.1,7.6-2.9l6,19.7Z"/>
          <path class="cls-4" d="M526.1,402.8h-15.9c0,0,2.1-11.8,2.1-11.8,0,0,4.9-3.4,11.6,0h0l2.1,11.8Z"/>
          <path class="cls-1" d="M428.8,418.6"/>
          <path class="cls-3" d="M498.3,411h2.7v7.8h-71c-1.5-.1-3.1-.6-4.2-1.7-1-1-1.9-2.5-1.9-4.8,0-1.8.7-3.5,1.9-4.8,1-1,2.6-2,4.8-1.7.3,0,.5-.1.5-.4.1-1.5.9-5.8,5.8-7.2.3,0,.6-.4.7-.7.4-1.7,2-6.6,8.8-4.2.5.2,1,0,1.2-.5.7-1.5,2.8-4.4,8.2-3.9,0,0,7,.4,6.6,8,0,.3.2.5.4.5,0,0,.1,0,.2,0,.7-.2,2-.3,3.5.2.5.1,1,0,1.3-.4.7-1.1,2.4-2.9,5.7-2.7.4,0,.8,0,1.2.1,0,0,4.2,1.1,4.8,4.8,0,.4.4.8.8.8.7,0,1.6.4,2.3,1.2.4.4,1,.5,1.4.2.9-.6,2.5-1.3,4.1-.6.5.2,1.1,0,1.4-.4.6-1,1.9-2.5,4.4-3.2,1.8-.5,3.8-.2,5.5.5,1.9.8,4.2,2.3,4,4.8h-5.4s0,8.3,0,8.3Z"/>
          <path class="cls-3" d="M612.3,412.8c0,1.1-.4,2.1-.9,2.8-1.2,2-3.5,3.1-5.8,3.1h-70.4v-7.5c0,0,2.9,0,2.9,0v-8.4h-5.5c-.2-5.2,6.6-5.8,6.6-5.8,4.3-.5,6.5,2.2,7.4,3.6.3.4.8.6,1.2.4,1.7-.8,3.3,0,4.2.5.4.3,1,.1,1.2-.3.7-.9,1.7-1.1,2.4-1.1.4,0,.7-.3.7-.7,0-3.2,3.8-4.5,3.8-4.5,1.1-.5,2.1-.7,3-.7,2.6,0,4.4,1.7,5.2,2.6.3.3.7.4,1.1.2,1.2-.9,2.6-.6,3.6-.3,0,0,0,0,.1,0,.4,0,.7-.3.7-.7-.7-4.9,4.9-7,4.9-7,5.5-2.2,8.8,1.7,10,3.5.3.4.8.6,1.3.4,6.1-2.4,8.2,2.7,8.7,4.3,0,.3.3.5.6.6,4.2,1.2,5.4,5,5.7,6.9,0,.6.6,1,1.2.9,3.1-.2,4.8,2,5.5,3.6.5,1.1.8,2.2.7,3.4Z"/>
          <g>
            <polygon class="cls-6" points="538.1 402.9 538.1 411.3 535.2 411.3 502.4 411 501.1 411 498.3 411 498.3 402.7 503.7 402.7 504.7 402.7 510.2 402.7 526.1 402.8 531.7 402.8 532.7 402.8 538.1 402.9"/>
            <polygon class="cls-6" points="535.2 418.7 501.1 418.7 501.1 411 502.4 411 535.2 411.3 535.2 418.7"/>
          </g>
        </g>
        <g>
          <path class="cls-4" d="M280.9,368.8c0,1.4-.3,2.7-.7,4-.7,2-2,3.6-3.6,4.9-1.6,1.3-3.6,2.2-5.8,2.4-.4,0-.8,0-1.2,0-2.9,0-5.5-1.1-7.5-2.8-2.4-2.1-3.8-5.1-3.8-8.5,0-5,3.2-9.2,7.6-10.7,1.2-.4,2.4-.6,3.8-.6s.4,0,.6,0c3.3.2,6.2,1.8,8.2,4.2,1.2,1.5,2.1,3.4,2.4,5.4,0,.6.1,1.2.1,1.7Z"/>
          <path class="cls-4" d="M363.7,368.8c0,3.3-1.4,6.4-3.7,8.4-2,1.8-4.7,2.9-7.6,2.9s-1,0-1.5,0c-2.2-.3-4.1-1.2-5.7-2.5-1.5-1.3-2.7-2.9-3.4-4.8-.5-1.2-.7-2.6-.7-4s0-1.2.1-1.7c.3-2,1.2-3.9,2.4-5.4,1.8-2.2,4.4-3.7,7.4-4.1.5,0,1,0,1.4,0,1.5,0,3,.3,4.3.9,4.1,1.7,7,5.8,7,10.5Z"/>
          <path class="cls-4" d="M369.3,322.6c0,5.9-4.4,10.7-10.1,11.3-.4,0-.8,0-1.2,0-1.6,0-3.1-.3-4.5-.9-1.3-.6-2.5-1.4-3.5-2.4-1.4-1.4-2.4-3.1-2.9-5.1-.3-.9-.4-1.9-.4-2.9s0-1.6.3-2.4c.3-1.5,1-3,1.9-4.2,2.1-2.9,5.4-4.7,9.2-4.7,6.3,0,11.4,5.1,11.4,11.4Z"/>
          <path class="cls-4" d="M275.5,322.6c0,1-.1,1.9-.4,2.9-.5,2.1-1.7,3.9-3.2,5.4-1.2,1.1-2.5,2-4.1,2.5-1.2.4-2.4.6-3.7.6s-.3,0-.5,0c-6-.3-10.8-5.2-10.8-11.3s5.1-11.4,11.4-11.4,7.2,1.9,9.2,4.7c.8,1.2,1.5,2.5,1.8,3.9.2.9.3,1.8.3,2.7Z"/>
          <path class="cls-4" d="M322.4,301.3c0,.8,0,1.5-.2,2.2-.3,1.7-1,3.2-2,4.5-1.5,2-3.7,3.5-6.2,4.2-.9.3-1.9.4-3,.4s-2.2-.2-3.3-.5c-2.6-.8-4.7-2.4-6.2-4.6-.7-1.1-1.3-2.4-1.6-3.7-.2-.8-.3-1.7-.3-2.6,0-6.3,5.1-11.4,11.4-11.4s11.4,5.1,11.4,11.4Z"/>
          <path class="cls-4" d="M327.6,351.1c0,1.2-.1,2.4-.4,3.5-.4,2.1-1.3,4-2.4,5.7-1.8,2.6-4.3,4.7-7.2,6-1.6.7-3.3,1.1-5.1,1.2-.4,0-.9,0-1.3,0s-1.2,0-1.8,0c-1.8-.2-3.5-.7-5-1.4-2.9-1.3-5.3-3.4-7-6.1h0c-1-1.5-1.7-3.2-2.1-5-.3-1.2-.4-2.5-.4-3.8,0-2.2.4-4.3,1.2-6.2.7-1.7,1.7-3.3,2.9-4.7,2.3-2.6,5.4-4.4,8.9-5.2h0c1.1-.2,2.2-.4,3.4-.4s1.9,0,2.8.2c3.5.6,6.7,2.3,9.1,4.8,1.4,1.5,2.5,3.2,3.3,5.1.8,1.9,1.2,4,1.2,6.2Z"/>
          <path class="cls-1" d="M266.3,357.9"/>
          <path class="cls-7" d="M270.2,357.4c-.2,0-.4,0-.6,0-1.3,0-2.6.2-3.8.6l-2.2-24.1c.2,0,.3,0,.5,0,1.3,0,2.6-.2,3.7-.6l2.3,24.1Z"/>
          <path class="cls-7" d="M301.6,307.6l-26.4,12.3c-.3-1.4-1-2.8-1.8-3.9l26.6-12.1c.3,1.3.9,2.6,1.6,3.7Z"/>
          <path class="cls-7" d="M348.7,316c-.9,1.2-1.5,2.7-1.9,4.2l-26.6-12.2c1-1.3,1.7-2.8,2-4.5l26.5,12.5Z"/>
          <path class="cls-7" d="M359.1,333.9l-2.5,24.4c-1.3-.6-2.8-.9-4.3-.9s-1,0-1.4,0l2.6-24.5c1.4.6,2.9.9,4.5.9s.8,0,1.2,0Z"/>
          <path class="cls-7" d="M298.9,340.3c-1.2,1.4-2.2,2.9-2.9,4.7l-24.1-14.1c1.5-1.4,2.6-3.3,3.2-5.4l23.8,14.8Z"/>
          <path class="cls-7" d="M314,312.2v22.8c-.9-.2-1.8-.2-2.8-.2s-2.3.1-3.4.4v-22.9c1,.3,2.1.5,3.3.5s2-.1,3-.4Z"/>
          <path class="cls-7" d="M349.9,330.7l-23.5,14.2c-.8-1.9-1.9-3.6-3.3-5.1l23.9-14.3c.5,2,1.5,3.7,2.9,5.1Z"/>
          <path class="cls-7" d="M343.5,361.6c-1.2,1.5-2.1,3.4-2.4,5.4l-16.3-6.8c1.1-1.7,2-3.6,2.4-5.7l16.3,7Z"/>
          <path class="cls-7" d="M297.4,360l-16.6,7.1c-.3-2-1.2-3.9-2.4-5.4l16.9-6.7c.4,1.8,1.2,3.5,2.1,5Z"/>
          <path class="cls-7" d="M270.8,380.1h0s-4.3,14.3-4.3,14.3c-3.3-.2-5,1.6-5.7,2.7-.3.4-.8.6-1.3.4-1.5-.5-2.8-.3-3.5-.2,0,0-.1,0-.2,0l6.3-20c2,1.8,4.6,2.8,7.5,2.8s.8,0,1.2,0Z"/>
          <path class="cls-1" d="M295,416"/>
          <path class="cls-1" d="M295,418.7"/>
          <path class="cls-1" d="M300.1,410.4"/>
          <path class="cls-1" d="M278.4,418.7"/>
          <path class="cls-7" d="M309.4,367.4l-4.3,23.6-2.1,11.7h-5.6s1.7-8.7,1.7-8.7l1.2-6.2,4.1-21.8c1.6.7,3.2,1.2,5,1.4Z"/>
          <path class="cls-7" d="M324.4,402.8h-5.6s-2.1-11.8-2.1-11.8l-4.2-23.6c1.8-.1,3.5-.6,5.1-1.2l4,21.6,1.2,6.6,1.6,8.4Z"/>
          <line class="cls-1" x1="324.4" y1="402.8" x2="324.4" y2="402.8"/>
          <line class="cls-1" x1="318.8" y1="402.8" x2="318.8" y2="402.8"/>
          <path class="cls-7" d="M300.2,387.8l-1.2,6.2h0l-22.4-16.4c1.6-1.3,2.8-3,3.6-4.9l20,15.1Z"/>
          <path class="cls-7" d="M345.1,377.5l-22.2,16.9-1.2-6.6,20.1-15.1c.7,1.9,1.9,3.5,3.4,4.8Z"/>
          <path class="cls-7" d="M365.9,396.9c0,0,0,0-.1,0-.9-.3-2.3-.6-3.6.3-.3.2-.8.1-1.1-.2-.8-1-2.6-2.7-5.2-2.6l-5.1-14.3c.5,0,1,0,1.5,0,2.9,0,5.6-1.1,7.6-2.9l6,19.7Z"/>
          <path class="cls-4" d="M318.8,402.8h-15.9c0,0,2.1-11.8,2.1-11.8,0,0,4.9-3.4,11.6,0h0l2.1,11.8Z"/>
          <path class="cls-1" d="M221.5,418.6"/>
          <path class="cls-3" d="M291.1,411h2.7v7.8h-71c-1.5-.1-3.1-.6-4.2-1.7-1-1-1.9-2.5-1.9-4.8,0-1.8.7-3.5,1.9-4.8,1-1,2.6-2,4.8-1.7.3,0,.5-.1.5-.4.1-1.5.9-5.8,5.8-7.2.3,0,.6-.4.7-.7.4-1.7,2-6.6,8.8-4.2.5.2,1,0,1.2-.5.7-1.5,2.8-4.4,8.2-3.9,0,0,7,.4,6.6,8,0,.3.2.5.4.5,0,0,.1,0,.2,0,.7-.2,2-.3,3.5.2.5.1,1,0,1.3-.4.7-1.1,2.4-2.9,5.7-2.7.4,0,.8,0,1.2.1,0,0,4.2,1.1,4.8,4.8,0,.4.4.8.8.8.7,0,1.6.4,2.3,1.2.4.4,1,.5,1.4.2.9-.6,2.5-1.3,4.1-.6.5.2,1.1,0,1.4-.4.6-1,1.9-2.5,4.4-3.2,1.8-.5,3.8-.2,5.5.5,1.9.8,4.2,2.3,4,4.8h-5.4s0,8.3,0,8.3Z"/>
          <path class="cls-3" d="M405.1,412.8c0,1.1-.4,2.1-.9,2.8-1.2,2-3.5,3.1-5.8,3.1h-70.4v-7.5c0,0,2.9,0,2.9,0v-8.4h-5.5c-.2-5.2,6.6-5.8,6.6-5.8,4.3-.5,6.5,2.2,7.4,3.6.3.4.8.6,1.2.4,1.7-.8,3.3,0,4.2.5.4.3,1,.1,1.2-.3.7-.9,1.7-1.1,2.4-1.1.4,0,.7-.3.7-.7,0-3.2,3.8-4.5,3.8-4.5,1.1-.5,2.1-.7,3-.7,2.6,0,4.4,1.7,5.2,2.6.3.3.7.4,1.1.2,1.2-.9,2.6-.6,3.6-.3,0,0,0,0,.1,0,.4,0,.7-.3.7-.7-.7-4.9,4.9-7,4.9-7,5.5-2.2,8.8,1.7,10,3.5.3.4.8.6,1.3.4,6.1-2.4,8.2,2.7,8.7,4.3,0,.3.3.5.6.6,4.2,1.2,5.4,5,5.7,6.9,0,.6.6,1,1.2.9,3.1-.2,4.8,2,5.5,3.6.5,1.1.8,2.2.7,3.4Z"/>
          <g>
            <polygon class="cls-6" points="330.9 402.9 330.9 411.3 327.9 411.3 295.1 411 293.8 411 291.1 411 291.1 402.7 296.5 402.7 297.4 402.7 302.9 402.7 318.8 402.8 324.4 402.8 325.4 402.8 330.9 402.9"/>
            <polygon class="cls-6" points="328 418.7 293.8 418.7 293.8 411 295.1 411 327.9 411.3 328 418.7"/>
          </g>
        </g>
        <g>
          <path class="cls-4" d="M73.7,368.8c0,1.4-.3,2.7-.7,4-.7,2-2,3.6-3.6,4.9-1.6,1.3-3.6,2.2-5.8,2.4-.4,0-.8,0-1.2,0-2.9,0-5.5-1.1-7.5-2.8-2.4-2.1-3.8-5.1-3.8-8.5,0-5,3.2-9.2,7.6-10.7,1.2-.4,2.4-.6,3.8-.6s.4,0,.6,0c3.3.2,6.2,1.8,8.2,4.2,1.2,1.5,2.1,3.4,2.4,5.4,0,.6.1,1.2.1,1.7Z"/>
          <path class="cls-4" d="M156.4,368.8c0,3.3-1.4,6.4-3.7,8.4-2,1.8-4.7,2.9-7.6,2.9s-1,0-1.5,0c-2.2-.3-4.1-1.2-5.7-2.5-1.5-1.3-2.7-2.9-3.4-4.8-.5-1.2-.7-2.6-.7-4s0-1.2.1-1.7c.3-2,1.2-3.9,2.4-5.4,1.8-2.2,4.4-3.7,7.4-4.1.5,0,1,0,1.4,0,1.5,0,3,.3,4.3.9,4.1,1.7,7,5.8,7,10.5Z"/>
          <path class="cls-4" d="M162,322.6c0,5.9-4.4,10.7-10.1,11.3-.4,0-.8,0-1.2,0-1.6,0-3.1-.3-4.5-.9-1.3-.6-2.5-1.4-3.5-2.4-1.4-1.4-2.4-3.1-2.9-5.1-.3-.9-.4-1.9-.4-2.9s0-1.6.3-2.4c.3-1.5,1-3,1.9-4.2,2.1-2.9,5.4-4.7,9.2-4.7,6.3,0,11.4,5.1,11.4,11.4Z"/>
          <path class="cls-4" d="M68.2,322.6c0,1-.1,1.9-.4,2.9-.5,2.1-1.7,3.9-3.2,5.4-1.2,1.1-2.5,2-4.1,2.5-1.2.4-2.4.6-3.7.6s-.3,0-.5,0c-6-.3-10.8-5.2-10.8-11.3s5.1-11.4,11.4-11.4,7.2,1.9,9.2,4.7c.8,1.2,1.5,2.5,1.8,3.9.2.9.3,1.8.3,2.7Z"/>
          <path class="cls-4" d="M115.1,301.3c0,.8,0,1.5-.2,2.2-.3,1.7-1,3.2-2,4.5-1.5,2-3.7,3.5-6.2,4.2-.9.3-1.9.4-3,.4s-2.2-.2-3.3-.5c-2.6-.8-4.7-2.4-6.2-4.6-.7-1.1-1.3-2.4-1.6-3.7-.2-.8-.3-1.7-.3-2.6,0-6.3,5.1-11.4,11.4-11.4s11.4,5.1,11.4,11.4Z"/>
          <path class="cls-4" d="M120.3,351.1c0,1.2-.1,2.4-.4,3.5-.4,2.1-1.3,4-2.4,5.7-1.8,2.6-4.3,4.7-7.2,6-1.6.7-3.3,1.1-5.1,1.2-.4,0-.9,0-1.3,0s-1.2,0-1.8,0c-1.8-.2-3.5-.7-5-1.4-2.9-1.3-5.3-3.4-7-6.1h0c-1-1.5-1.7-3.2-2.1-5-.3-1.2-.4-2.5-.4-3.8,0-2.2.4-4.3,1.2-6.2.7-1.7,1.7-3.3,2.9-4.7,2.3-2.6,5.4-4.4,8.9-5.2h0c1.1-.2,2.2-.4,3.4-.4s1.9,0,2.8.2c3.5.6,6.7,2.3,9.1,4.8,1.4,1.5,2.5,3.2,3.3,5.1.8,1.9,1.2,4,1.2,6.2Z"/>
          <path class="cls-1" d="M59,357.9"/>
          <path class="cls-7" d="M62.9,357.4c-.2,0-.4,0-.6,0-1.3,0-2.6.2-3.8.6l-2.2-24.1c.2,0,.3,0,.5,0,1.3,0,2.6-.2,3.7-.6l2.3,24.1Z"/>
          <path class="cls-7" d="M94.3,307.6l-26.4,12.3c-.3-1.4-1-2.8-1.8-3.9l26.6-12.1c.3,1.3.9,2.6,1.6,3.7Z"/>
          <path class="cls-7" d="M141.4,316c-.9,1.2-1.5,2.7-1.9,4.2l-26.6-12.2c1-1.3,1.7-2.8,2-4.5l26.5,12.5Z"/>
          <path class="cls-7" d="M151.9,333.9l-2.5,24.4c-1.3-.6-2.8-.9-4.3-.9s-1,0-1.4,0l2.6-24.5c1.4.6,2.9.9,4.5.9s.8,0,1.2,0Z"/>
          <path class="cls-7" d="M91.7,340.3c-1.2,1.4-2.2,2.9-2.9,4.7l-24.1-14.1c1.5-1.4,2.6-3.3,3.2-5.4l23.8,14.8Z"/>
          <path class="cls-7" d="M106.7,312.2v22.8c-.9-.2-1.8-.2-2.8-.2s-2.3.1-3.4.4v-22.9c1,.3,2.1.5,3.3.5s2-.1,3-.4Z"/>
          <path class="cls-7" d="M142.6,330.7l-23.5,14.2c-.8-1.9-1.9-3.6-3.3-5.1l23.9-14.3c.5,2,1.5,3.7,2.9,5.1Z"/>
          <path class="cls-7" d="M136.2,361.6c-1.2,1.5-2.1,3.4-2.4,5.4l-16.3-6.8c1.1-1.7,2-3.6,2.4-5.7l16.3,7Z"/>
          <path class="cls-7" d="M90.1,360l-16.6,7.1c-.3-2-1.2-3.9-2.4-5.4l16.9-6.7c.4,1.8,1.2,3.5,2.1,5Z"/>
          <path class="cls-7" d="M63.5,380.1h0s-4.3,14.3-4.3,14.3c-3.3-.2-5,1.6-5.7,2.7-.3.4-.8.6-1.3.4-1.5-.5-2.8-.3-3.5-.2,0,0-.1,0-.2,0l6.3-20c2,1.8,4.6,2.8,7.5,2.8s.8,0,1.2,0Z"/>
          <path class="cls-1" d="M87.7,416"/>
          <path class="cls-1" d="M87.7,418.7"/>
          <path class="cls-1" d="M92.9,410.4"/>
          <path class="cls-1" d="M71.1,418.7"/>
          <path class="cls-7" d="M102.1,367.4l-4.3,23.6-2.1,11.7h-5.6s1.7-8.7,1.7-8.7l1.2-6.2,4.1-21.8c1.6.7,3.2,1.2,5,1.4Z"/>
          <path class="cls-7" d="M117.1,402.8h-5.6s-2.1-11.8-2.1-11.8l-4.2-23.6c1.8-.1,3.5-.6,5.1-1.2l4,21.6,1.2,6.6,1.6,8.4Z"/>
          <line class="cls-1" x1="117.1" y1="402.8" x2="117.1" y2="402.8"/>
          <line class="cls-1" x1="111.6" y1="402.8" x2="111.6" y2="402.8"/>
          <path class="cls-7" d="M93,387.8l-1.2,6.2h0l-22.4-16.4c1.6-1.3,2.8-3,3.6-4.9l20,15.1Z"/>
          <path class="cls-7" d="M137.8,377.5l-22.2,16.9-1.2-6.6,20.1-15.1c.7,1.9,1.9,3.5,3.4,4.8Z"/>
          <path class="cls-7" d="M158.6,396.9c0,0,0,0-.1,0-.9-.3-2.3-.6-3.6.3-.3.2-.8.1-1.1-.2-.8-1-2.6-2.7-5.2-2.6l-5.1-14.3c.5,0,1,0,1.5,0,2.9,0,5.6-1.1,7.6-2.9l6,19.7Z"/>
          <path class="cls-4" d="M111.6,402.8h-15.9c0,0,2.1-11.8,2.1-11.8,0,0,4.9-3.4,11.6,0h0l2.1,11.8Z"/>
          <path class="cls-1" d="M14.3,418.6"/>
          <path class="cls-3" d="M83.8,411h2.7v7.8H15.5c-1.5-.1-3.1-.6-4.2-1.7-1-1-1.9-2.5-1.9-4.8,0-1.8.7-3.5,1.9-4.8,1-1,2.6-2,4.8-1.7.3,0,.5-.1.5-.4.1-1.5.9-5.8,5.8-7.2.3,0,.6-.4.7-.7.4-1.7,2-6.6,8.8-4.2.5.2,1,0,1.2-.5.7-1.5,2.8-4.4,8.2-3.9,0,0,7,.4,6.6,8,0,.3.2.5.4.5,0,0,.1,0,.2,0,.7-.2,2-.3,3.5.2.5.1,1,0,1.3-.4.7-1.1,2.4-2.9,5.7-2.7.4,0,.8,0,1.2.1,0,0,4.2,1.1,4.8,4.8,0,.4.4.8.8.8.7,0,1.6.4,2.3,1.2.4.4,1,.5,1.4.2.9-.6,2.5-1.3,4.1-.6.5.2,1.1,0,1.4-.4.6-1,1.9-2.5,4.4-3.2,1.8-.5,3.8-.2,5.5.5,1.9.8,4.2,2.3,4,4.8h-5.4s0,8.3,0,8.3Z"/>
          <path class="cls-3" d="M197.8,412.8c0,1.1-.4,2.1-.9,2.8-1.2,2-3.5,3.1-5.8,3.1h-70.4v-7.5c0,0,2.9,0,2.9,0v-8.4h-5.5c-.2-5.2,6.6-5.8,6.6-5.8,4.3-.5,6.5,2.2,7.4,3.6.3.4.8.6,1.2.4,1.7-.8,3.3,0,4.2.5.4.3,1,.1,1.2-.3.7-.9,1.7-1.1,2.4-1.1.4,0,.7-.3.7-.7,0-3.2,3.8-4.5,3.8-4.5,1.1-.5,2.1-.7,3-.7,2.6,0,4.4,1.7,5.2,2.6.3.3.7.4,1.1.2,1.2-.9,2.6-.6,3.6-.3,0,0,0,0,.1,0,.4,0,.7-.3.7-.7-.7-4.9,4.9-7,4.9-7,5.5-2.2,8.8,1.7,10,3.5.3.4.8.6,1.3.4,6.1-2.4,8.2,2.7,8.7,4.3,0,.3.3.5.6.6,4.2,1.2,5.4,5,5.7,6.9,0,.6.6,1,1.2.9,3.1-.2,4.8,2,5.5,3.6.5,1.1.8,2.2.7,3.4Z"/>
          <g>
            <polygon class="cls-6" points="123.6 402.9 123.6 411.3 120.7 411.3 87.8 411 86.5 411 83.8 411 83.8 402.7 89.2 402.7 90.1 402.7 95.7 402.7 111.6 402.8 117.1 402.8 118.1 402.8 123.6 402.9"/>
            <polygon class="cls-6" points="120.7 418.7 86.5 418.7 86.5 411 87.8 411 120.7 411.3 120.7 418.7"/>
          </g>
        </g>
        <g>
          <path class="cls-4" d="M612.5,227c0,1.4-.3,2.7-.7,4-.7,2-2,3.6-3.6,4.9-1.6,1.3-3.6,2.2-5.8,2.4-.4,0-.8,0-1.2,0-2.9,0-5.5-1.1-7.5-2.8-2.4-2.1-3.8-5.1-3.8-8.5,0-5,3.2-9.2,7.6-10.7,1.2-.4,2.4-.6,3.8-.6s.4,0,.6,0c3.3.2,6.2,1.8,8.2,4.2,1.2,1.5,2.1,3.4,2.4,5.4,0,.6.1,1.2.1,1.7Z"/>
          <path class="cls-4" d="M607.1,180.9c0,1-.1,1.9-.4,2.9-.5,2.1-1.7,3.9-3.2,5.4-1.2,1.1-2.5,2-4.1,2.5-1.2.4-2.4.6-3.7.6s-.3,0-.5,0c-6-.3-10.8-5.2-10.8-11.3s5.1-11.4,11.4-11.4,7.2,1.9,9.2,4.7c.8,1.2,1.5,2.5,1.8,3.9.2.9.3,1.8.3,2.7Z"/>
          <path class="cls-1" d="M597.9,216.2"/>
          <path class="cls-7" d="M601.8,215.7c-.2,0-.4,0-.6,0-1.3,0-2.6.2-3.8.6l-2.2-24.1c.2,0,.3,0,.5,0,1.3,0,2.6-.2,3.7-.6l2.3,24.1Z"/>
          <path class="cls-7" d="M633.2,165.9l-26.4,12.3c-.3-1.4-1-2.8-1.8-3.9l26.6-12.1c.3,1.3.9,2.6,1.6,3.7Z"/>
          <path class="cls-7" d="M630.5,198.5c-1.2,1.4-2.2,2.9-2.9,4.7l-24.1-14.1c1.5-1.4,2.6-3.3,3.2-5.4l23.8,14.8Z"/>
          <path class="cls-7" d="M629,218.2l-16.6,7.1c-.3-2-1.2-3.9-2.4-5.4l16.9-6.7c.4,1.8,1.2,3.5,2.1,5Z"/>
          <path class="cls-7" d="M602.4,238.3h0s-4.3,14.3-4.3,14.3c-3.3-.2-5,1.6-5.7,2.7-.3.4-.8.6-1.3.4-1.5-.5-2.8-.3-3.5-.2,0,0-.1,0-.2,0l6.3-20c2,1.8,4.6,2.8,7.5,2.8s.8,0,1.2,0Z"/>
          <path class="cls-1" d="M610,277"/>
          <path class="cls-7" d="M631.8,246.1l-1.2,6.2h0l-22.4-16.4c1.6-1.3,2.8-3,3.6-4.9l20,15.1Z"/>
          <path class="cls-1" d="M553.1,276.9"/>
          <path class="cls-3" d="M622.7,269.2h2.7v7.8h-71c-1.5-.1-3.1-.6-4.2-1.7-1-1-1.9-2.5-1.9-4.8,0-1.8.7-3.5,1.9-4.8,1-1,2.6-2,4.8-1.7.3,0,.5-.1.5-.4.1-1.5.9-5.8,5.8-7.2.3,0,.6-.4.7-.7.4-1.7,2-6.6,8.8-4.2.5.2,1,0,1.2-.5.7-1.5,2.8-4.4,8.2-3.9,0,0,7,.4,6.6,8,0,.3.2.5.4.5,0,0,.1,0,.2,0,.7-.2,2-.3,3.5.2.5.1,1,0,1.3-.4.7-1.1,2.4-2.9,5.7-2.7.4,0,.8,0,1.2.1,0,0,4.2,1.1,4.8,4.8,0,.4.4.8.8.8.7,0,1.6.4,2.3,1.2.4.4,1,.5,1.4.2.9-.6,2.5-1.3,4.1-.6.5.2,1.1,0,1.4-.4.6-1,1.9-2.5,4.4-3.2,1.8-.5,3.8-.2,5.5.5,1.9.8,4.2,2.3,4,4.8h-5.4s0,8.3,0,8.3Z"/>
        </g>
        <g>
          <path class="cls-4" d="M405.3,227c0,1.4-.3,2.7-.7,4-.7,2-2,3.6-3.6,4.9-1.6,1.3-3.6,2.2-5.8,2.4-.4,0-.8,0-1.2,0-2.9,0-5.5-1.1-7.5-2.8-2.4-2.1-3.8-5.1-3.8-8.5,0-5,3.2-9.2,7.6-10.7,1.2-.4,2.4-.6,3.8-.6s.4,0,.6,0c3.3.2,6.2,1.8,8.2,4.2,1.2,1.5,2.1,3.4,2.4,5.4,0,.6.1,1.2.1,1.7Z"/>
          <path class="cls-4" d="M488,227c0,3.3-1.4,6.4-3.7,8.4-2,1.8-4.7,2.9-7.6,2.9s-1,0-1.5,0c-2.2-.3-4.1-1.2-5.7-2.5-1.5-1.3-2.7-2.9-3.4-4.8-.5-1.2-.7-2.6-.7-4s0-1.2.1-1.7c.3-2,1.2-3.9,2.4-5.4,1.8-2.2,4.4-3.7,7.4-4.1.5,0,1,0,1.4,0,1.5,0,3,.3,4.3.9,4.1,1.7,7,5.8,7,10.5Z"/>
          <path class="cls-4" d="M493.6,180.9c0,5.9-4.4,10.7-10.1,11.3-.4,0-.8,0-1.2,0-1.6,0-3.1-.3-4.5-.9-1.3-.6-2.5-1.4-3.5-2.4-1.4-1.4-2.4-3.1-2.9-5.1-.3-.9-.4-1.9-.4-2.9s0-1.6.3-2.4c.3-1.5,1-3,1.9-4.2,2.1-2.9,5.4-4.7,9.2-4.7,6.3,0,11.4,5.1,11.4,11.4Z"/>
          <path class="cls-4" d="M399.8,180.9c0,1-.1,1.9-.4,2.9-.5,2.1-1.7,3.9-3.2,5.4-1.2,1.1-2.5,2-4.1,2.5-1.2.4-2.4.6-3.7.6s-.3,0-.5,0c-6-.3-10.8-5.2-10.8-11.3s5.1-11.4,11.4-11.4,7.2,1.9,9.2,4.7c.8,1.2,1.5,2.5,1.8,3.9.2.9.3,1.8.3,2.7Z"/>
          <path class="cls-4" d="M446.7,159.5c0,.8,0,1.5-.2,2.2-.3,1.7-1,3.2-2,4.5-1.5,2-3.7,3.5-6.2,4.2-.9.3-1.9.4-3,.4s-2.2-.2-3.3-.5c-2.6-.8-4.7-2.4-6.2-4.6-.7-1.1-1.3-2.4-1.6-3.7-.2-.8-.3-1.7-.3-2.6,0-6.3,5.1-11.4,11.4-11.4s11.4,5.1,11.4,11.4Z"/>
          <path class="cls-4" d="M451.9,209.4c0,1.2-.1,2.4-.4,3.5-.4,2.1-1.3,4-2.4,5.7-1.8,2.6-4.3,4.7-7.2,6-1.6.7-3.3,1.1-5.1,1.2-.4,0-.9,0-1.3,0s-1.2,0-1.8,0c-1.8-.2-3.5-.7-5-1.4-2.9-1.3-5.3-3.4-7-6.1h0c-1-1.5-1.7-3.2-2.1-5-.3-1.2-.4-2.5-.4-3.8,0-2.2.4-4.3,1.2-6.2.7-1.7,1.7-3.3,2.9-4.7,2.3-2.6,5.4-4.4,8.9-5.2h0c1.1-.2,2.2-.4,3.4-.4s1.9,0,2.8.2c3.5.6,6.7,2.3,9.1,4.8,1.4,1.5,2.5,3.2,3.3,5.1.8,1.9,1.2,4,1.2,6.2Z"/>
          <path class="cls-1" d="M390.7,216.2"/>
          <path class="cls-7" d="M394.6,215.7c-.2,0-.4,0-.6,0-1.3,0-2.6.2-3.8.6l-2.2-24.1c.2,0,.3,0,.5,0,1.3,0,2.6-.2,3.7-.6l2.3,24.1Z"/>
          <path class="cls-7" d="M426,165.9l-26.4,12.3c-.3-1.4-1-2.8-1.8-3.9l26.6-12.1c.3,1.3.9,2.6,1.6,3.7Z"/>
          <path class="cls-7" d="M473.1,174.3c-.9,1.2-1.5,2.7-1.9,4.2l-26.6-12.2c1-1.3,1.7-2.8,2-4.5l26.5,12.5Z"/>
          <path class="cls-7" d="M483.5,192.2l-2.5,24.4c-1.3-.6-2.8-.9-4.3-.9s-1,0-1.4,0l2.6-24.5c1.4.6,2.9.9,4.5.9s.8,0,1.2,0Z"/>
          <path class="cls-7" d="M423.3,198.5c-1.2,1.4-2.2,2.9-2.9,4.7l-24.1-14.1c1.5-1.4,2.6-3.3,3.2-5.4l23.8,14.8Z"/>
          <path class="cls-7" d="M438.4,170.5v22.8c-.9-.2-1.8-.2-2.8-.2s-2.3.1-3.4.4v-22.9c1,.3,2.1.5,3.3.5s2-.1,3-.4Z"/>
          <path class="cls-7" d="M474.2,188.9l-23.5,14.2c-.8-1.9-1.9-3.6-3.3-5.1l23.9-14.3c.5,2,1.5,3.7,2.9,5.1Z"/>
          <path class="cls-7" d="M467.9,219.9c-1.2,1.5-2.1,3.4-2.4,5.4l-16.3-6.8c1.1-1.7,2-3.6,2.4-5.7l16.3,7Z"/>
          <path class="cls-7" d="M421.7,218.2l-16.6,7.1c-.3-2-1.2-3.9-2.4-5.4l16.9-6.7c.4,1.8,1.2,3.5,2.1,5Z"/>
          <path class="cls-7" d="M395.1,238.3h0s-4.3,14.3-4.3,14.3c-3.3-.2-5,1.6-5.7,2.7-.3.4-.8.6-1.3.4-1.5-.5-2.8-.3-3.5-.2,0,0-.1,0-.2,0l6.3-20c2,1.8,4.6,2.8,7.5,2.8s.8,0,1.2,0Z"/>
          <path class="cls-1" d="M419.3,274.2"/>
          <path class="cls-1" d="M419.3,277"/>
          <path class="cls-1" d="M424.5,268.6"/>
          <path class="cls-1" d="M402.7,277"/>
          <path class="cls-7" d="M433.7,225.7l-4.3,23.6-2.1,11.7h-5.6s1.7-8.7,1.7-8.7l1.2-6.2,4.1-21.8c1.6.7,3.2,1.2,5,1.4Z"/>
          <path class="cls-7" d="M448.8,261.1h-5.6s-2.1-11.8-2.1-11.8l-4.2-23.6c1.8-.1,3.5-.6,5.1-1.2l4,21.6,1.2,6.6,1.6,8.4Z"/>
          <line class="cls-1" x1="448.8" y1="261.1" x2="448.8" y2="261.1"/>
          <line class="cls-1" x1="443.2" y1="261.1" x2="443.2" y2="261.1"/>
          <path class="cls-7" d="M424.6,246.1l-1.2,6.2h0l-22.4-16.4c1.6-1.3,2.8-3,3.6-4.9l20,15.1Z"/>
          <path class="cls-7" d="M469.4,235.8l-22.2,16.9-1.2-6.6,20.1-15.1c.7,1.9,1.9,3.5,3.4,4.8Z"/>
          <path class="cls-7" d="M490.2,255.1c0,0,0,0-.1,0-.9-.3-2.3-.6-3.6.3-.3.2-.8.1-1.1-.2-.8-1-2.6-2.7-5.2-2.6l-5.1-14.3c.5,0,1,0,1.5,0,2.9,0,5.6-1.1,7.6-2.9l6,19.7Z"/>
          <path class="cls-4" d="M443.2,261.1h-15.9c0,0,2.1-11.8,2.1-11.8,0,0,4.9-3.4,11.6,0h0l2.1,11.8Z"/>
          <path class="cls-1" d="M345.9,276.9"/>
          <path class="cls-3" d="M415.4,269.2h2.7v7.8h-71c-1.5-.1-3.1-.6-4.2-1.7-1-1-1.9-2.5-1.9-4.8,0-1.8.7-3.5,1.9-4.8,1-1,2.6-2,4.8-1.7.3,0,.5-.1.5-.4.1-1.5.9-5.8,5.8-7.2.3,0,.6-.4.7-.7.4-1.7,2-6.6,8.8-4.2.5.2,1,0,1.2-.5.7-1.5,2.8-4.4,8.2-3.9,0,0,7,.4,6.6,8,0,.3.2.5.4.5,0,0,.1,0,.2,0,.7-.2,2-.3,3.5.2.5.1,1,0,1.3-.4.7-1.1,2.4-2.9,5.7-2.7.4,0,.8,0,1.2.1,0,0,4.2,1.1,4.8,4.8,0,.4.4.8.8.8.7,0,1.6.4,2.3,1.2.4.4,1,.5,1.4.2.9-.6,2.5-1.3,4.1-.6.5.2,1.1,0,1.4-.4.6-1,1.9-2.5,4.4-3.2,1.8-.5,3.8-.2,5.5.5,1.9.8,4.2,2.3,4,4.8h-5.4s0,8.3,0,8.3Z"/>
          <path class="cls-3" d="M529.4,271c0,1.1-.4,2.1-.9,2.8-1.2,2-3.5,3.1-5.8,3.1h-70.4v-7.5c0,0,2.9,0,2.9,0v-8.4h-5.5c-.2-5.2,6.6-5.8,6.6-5.8,4.3-.5,6.5,2.2,7.4,3.6.3.4.8.6,1.2.4,1.7-.8,3.3,0,4.2.5.4.3,1,.1,1.2-.3.7-.9,1.7-1.1,2.4-1.1.4,0,.7-.3.7-.7,0-3.2,3.8-4.5,3.8-4.5,1.1-.5,2.1-.7,3-.7,2.6,0,4.4,1.7,5.2,2.6.3.3.7.4,1.1.2,1.2-.9,2.6-.6,3.6-.3,0,0,0,0,.1,0,.4,0,.7-.3.7-.7-.7-4.9,4.9-7,4.9-7,5.5-2.2,8.8,1.7,10,3.5.3.4.8.6,1.3.4,6.1-2.4,8.2,2.7,8.7,4.3,0,.3.3.5.6.6,4.2,1.2,5.4,5,5.7,6.9,0,.6.6,1,1.2.9,3.1-.2,4.8,2,5.5,3.6.5,1.1.8,2.2.7,3.4Z"/>
          <g>
            <polygon class="cls-6" points="455.2 261.1 455.2 269.5 452.3 269.5 419.4 269.3 418.2 269.2 415.4 269.2 415.4 261 420.8 261 421.7 261 427.3 261 443.2 261.1 448.8 261.1 449.8 261.1 455.2 261.1"/>
            <polygon class="cls-6" points="452.3 277 418.2 277 418.2 269.2 419.4 269.3 452.3 269.5 452.3 277"/>
          </g>
        </g>
        <g>
          <path class="cls-4" d="M198,227c0,1.4-.3,2.7-.7,4-.7,2-2,3.6-3.6,4.9-1.6,1.3-3.6,2.2-5.8,2.4-.4,0-.8,0-1.2,0-2.9,0-5.5-1.1-7.5-2.8-2.4-2.1-3.8-5.1-3.8-8.5,0-5,3.2-9.2,7.6-10.7,1.2-.4,2.4-.6,3.8-.6s.4,0,.6,0c3.3.2,6.2,1.8,8.2,4.2,1.2,1.5,2.1,3.4,2.4,5.4,0,.6.1,1.2.1,1.7Z"/>
          <path class="cls-4" d="M280.7,227c0,3.3-1.4,6.4-3.7,8.4-2,1.8-4.7,2.9-7.6,2.9s-1,0-1.5,0c-2.2-.3-4.1-1.2-5.7-2.5-1.5-1.3-2.7-2.9-3.4-4.8-.5-1.2-.7-2.6-.7-4s0-1.2.1-1.7c.3-2,1.2-3.9,2.4-5.4,1.8-2.2,4.4-3.7,7.4-4.1.5,0,1,0,1.4,0,1.5,0,3,.3,4.3.9,4.1,1.7,7,5.8,7,10.5Z"/>
          <path class="cls-4" d="M286.4,180.9c0,5.9-4.4,10.7-10.1,11.3-.4,0-.8,0-1.2,0-1.6,0-3.1-.3-4.5-.9-1.3-.6-2.5-1.4-3.5-2.4-1.4-1.4-2.4-3.1-2.9-5.1-.3-.9-.4-1.9-.4-2.9s0-1.6.3-2.4c.3-1.5,1-3,1.9-4.2,2.1-2.9,5.4-4.7,9.2-4.7,6.3,0,11.4,5.1,11.4,11.4Z"/>
          <path class="cls-4" d="M192.6,180.9c0,1-.1,1.9-.4,2.9-.5,2.1-1.7,3.9-3.2,5.4-1.2,1.1-2.5,2-4.1,2.5-1.2.4-2.4.6-3.7.6s-.3,0-.5,0c-6-.3-10.8-5.2-10.8-11.3s5.1-11.4,11.4-11.4,7.2,1.9,9.2,4.7c.8,1.2,1.5,2.5,1.8,3.9.2.9.3,1.8.3,2.7Z"/>
          <path class="cls-4" d="M239.5,159.5c0,.8,0,1.5-.2,2.2-.3,1.7-1,3.2-2,4.5-1.5,2-3.7,3.5-6.2,4.2-.9.3-1.9.4-3,.4s-2.2-.2-3.3-.5c-2.6-.8-4.7-2.4-6.2-4.6-.7-1.1-1.3-2.4-1.6-3.7-.2-.8-.3-1.7-.3-2.6,0-6.3,5.1-11.4,11.4-11.4s11.4,5.1,11.4,11.4Z"/>
          <path class="cls-4" d="M244.7,209.4c0,1.2-.1,2.4-.4,3.5-.4,2.1-1.3,4-2.4,5.7-1.8,2.6-4.3,4.7-7.2,6-1.6.7-3.3,1.1-5.1,1.2-.4,0-.9,0-1.3,0s-1.2,0-1.8,0c-1.8-.2-3.5-.7-5-1.4-2.9-1.3-5.3-3.4-7-6.1h0c-1-1.5-1.7-3.2-2.1-5-.3-1.2-.4-2.5-.4-3.8,0-2.2.4-4.3,1.2-6.2.7-1.7,1.7-3.3,2.9-4.7,2.3-2.6,5.4-4.4,8.9-5.2h0c1.1-.2,2.2-.4,3.4-.4s1.9,0,2.8.2c3.5.6,6.7,2.3,9.1,4.8,1.4,1.5,2.5,3.2,3.3,5.1.8,1.9,1.2,4,1.2,6.2Z"/>
          <path class="cls-1" d="M183.4,216.2"/>
          <path class="cls-7" d="M187.3,215.7c-.2,0-.4,0-.6,0-1.3,0-2.6.2-3.8.6l-2.2-24.1c.2,0,.3,0,.5,0,1.3,0,2.6-.2,3.7-.6l2.3,24.1Z"/>
          <path class="cls-7" d="M218.7,165.9l-26.4,12.3c-.3-1.4-1-2.8-1.8-3.9l26.6-12.1c.3,1.3.9,2.6,1.6,3.7Z"/>
          <path class="cls-7" d="M265.8,174.3c-.9,1.2-1.5,2.7-1.9,4.2l-26.6-12.2c1-1.3,1.7-2.8,2-4.5l26.5,12.5Z"/>
          <path class="cls-7" d="M276.2,192.2l-2.5,24.4c-1.3-.6-2.8-.9-4.3-.9s-1,0-1.4,0l2.6-24.5c1.4.6,2.9.9,4.5.9s.8,0,1.2,0Z"/>
          <path class="cls-7" d="M216,198.5c-1.2,1.4-2.2,2.9-2.9,4.7l-24.1-14.1c1.5-1.4,2.6-3.3,3.2-5.4l23.8,14.8Z"/>
          <path class="cls-7" d="M231.1,170.5v22.8c-.9-.2-1.8-.2-2.8-.2s-2.3.1-3.4.4v-22.9c1,.3,2.1.5,3.3.5s2-.1,3-.4Z"/>
          <path class="cls-7" d="M267,188.9l-23.5,14.2c-.8-1.9-1.9-3.6-3.3-5.1l23.9-14.3c.5,2,1.5,3.7,2.9,5.1Z"/>
          <path class="cls-7" d="M260.6,219.9c-1.2,1.5-2.1,3.4-2.4,5.4l-16.3-6.8c1.1-1.7,2-3.6,2.4-5.7l16.3,7Z"/>
          <path class="cls-7" d="M214.5,218.2l-16.6,7.1c-.3-2-1.2-3.9-2.4-5.4l16.9-6.7c.4,1.8,1.2,3.5,2.1,5Z"/>
          <path class="cls-7" d="M187.9,238.3h0s-4.3,14.3-4.3,14.3c-3.3-.2-5,1.6-5.7,2.7-.3.4-.8.6-1.3.4-1.5-.5-2.8-.3-3.5-.2,0,0-.1,0-.2,0l6.3-20c2,1.8,4.6,2.8,7.5,2.8s.8,0,1.2,0Z"/>
          <path class="cls-1" d="M212.1,274.2"/>
          <path class="cls-1" d="M212.1,277"/>
          <path class="cls-1" d="M217.2,268.6"/>
          <path class="cls-1" d="M195.5,277"/>
          <path class="cls-7" d="M226.5,225.7l-4.3,23.6-2.1,11.7h-5.6s1.7-8.7,1.7-8.7l1.2-6.2,4.1-21.8c1.6.7,3.2,1.2,5,1.4Z"/>
          <path class="cls-7" d="M241.5,261.1h-5.6s-2.1-11.8-2.1-11.8l-4.2-23.6c1.8-.1,3.5-.6,5.1-1.2l4,21.6,1.2,6.6,1.6,8.4Z"/>
          <line class="cls-1" x1="241.5" y1="261.1" x2="241.5" y2="261.1"/>
          <line class="cls-1" x1="235.9" y1="261.1" x2="235.9" y2="261.1"/>
          <path class="cls-7" d="M217.3,246.1l-1.2,6.2h0l-22.4-16.4c1.6-1.3,2.8-3,3.6-4.9l20,15.1Z"/>
          <path class="cls-7" d="M262.2,235.8l-22.2,16.9-1.2-6.6,20.1-15.1c.7,1.9,1.9,3.5,3.4,4.8Z"/>
          <path class="cls-7" d="M283,255.1c0,0,0,0-.1,0-.9-.3-2.3-.6-3.6.3-.3.2-.8.1-1.1-.2-.8-1-2.6-2.7-5.2-2.6l-5.1-14.3c.5,0,1,0,1.5,0,2.9,0,5.6-1.1,7.6-2.9l6,19.7Z"/>
          <path class="cls-4" d="M235.9,261.1h-15.9c0,0,2.1-11.8,2.1-11.8,0,0,4.9-3.4,11.6,0h0l2.1,11.8Z"/>
          <path class="cls-1" d="M138.6,276.9"/>
          <path class="cls-3" d="M208.2,269.2h2.7v7.8h-71c-1.5-.1-3.1-.6-4.2-1.7-1-1-1.9-2.5-1.9-4.8,0-1.8.7-3.5,1.9-4.8,1-1,2.6-2,4.8-1.7.3,0,.5-.1.5-.4.1-1.5.9-5.8,5.8-7.2.3,0,.6-.4.7-.7.4-1.7,2-6.6,8.8-4.2.5.2,1,0,1.2-.5.7-1.5,2.8-4.4,8.2-3.9,0,0,7,.4,6.6,8,0,.3.2.5.4.5,0,0,.1,0,.2,0,.7-.2,2-.3,3.5.2.5.1,1,0,1.3-.4.7-1.1,2.4-2.9,5.7-2.7.4,0,.8,0,1.2.1,0,0,4.2,1.1,4.8,4.8,0,.4.4.8.8.8.7,0,1.6.4,2.3,1.2.4.4,1,.5,1.4.2.9-.6,2.5-1.3,4.1-.6.5.2,1.1,0,1.4-.4.6-1,1.9-2.5,4.4-3.2,1.8-.5,3.8-.2,5.5.5,1.9.8,4.2,2.3,4,4.8h-5.4s0,8.3,0,8.3Z"/>
          <path class="cls-3" d="M322.2,271c0,1.1-.4,2.1-.9,2.8-1.2,2-3.5,3.1-5.8,3.1h-70.4v-7.5c0,0,2.9,0,2.9,0v-8.4h-5.5c-.2-5.2,6.6-5.8,6.6-5.8,4.3-.5,6.5,2.2,7.4,3.6.3.4.8.6,1.2.4,1.7-.8,3.3,0,4.2.5.4.3,1,.1,1.2-.3.7-.9,1.7-1.1,2.4-1.1.4,0,.7-.3.7-.7,0-3.2,3.8-4.5,3.8-4.5,1.1-.5,2.1-.7,3-.7,2.6,0,4.4,1.7,5.2,2.6.3.3.7.4,1.1.2,1.2-.9,2.6-.6,3.6-.3,0,0,0,0,.1,0,.4,0,.7-.3.7-.7-.7-4.9,4.9-7,4.9-7,5.5-2.2,8.8,1.7,10,3.5.3.4.8.6,1.3.4,6.1-2.4,8.2,2.7,8.7,4.3,0,.3.3.5.6.6,4.2,1.2,5.4,5,5.7,6.9,0,.6.6,1,1.2.9,3.1-.2,4.8,2,5.5,3.6.5,1.1.8,2.2.7,3.4Z"/>
          <g>
            <polygon class="cls-6" points="248 261.1 248 269.5 245 269.5 212.2 269.3 210.9 269.2 208.2 269.2 208.2 261 213.6 261 214.5 261 220 261 235.9 261.1 241.5 261.1 242.5 261.1 248 261.1"/>
            <polygon class="cls-6" points="245.1 277 210.9 277 210.9 269.2 212.2 269.3 245 269.5 245.1 277"/>
          </g>
        </g>
        <g>
          <path class="cls-4" d="M73.5,227c0,3.3-1.4,6.4-3.7,8.4-2,1.8-4.7,2.9-7.6,2.9s-1,0-1.5,0c-2.2-.3-4.1-1.2-5.7-2.5-1.5-1.3-2.7-2.9-3.4-4.8-.5-1.2-.7-2.6-.7-4s0-1.2.1-1.7c.3-2,1.2-3.9,2.4-5.4,1.8-2.2,4.4-3.7,7.4-4.1.5,0,1,0,1.4,0,1.5,0,3,.3,4.3.9,4.1,1.7,7,5.8,7,10.5Z"/>
          <path class="cls-4" d="M79.1,180.9c0,5.9-4.4,10.7-10.1,11.3-.4,0-.8,0-1.2,0-1.6,0-3.1-.3-4.5-.9-1.3-.6-2.5-1.4-3.5-2.4-1.4-1.4-2.4-3.1-2.9-5.1-.3-.9-.4-1.9-.4-2.9s0-1.6.3-2.4c.3-1.5,1-3,1.9-4.2,2.1-2.9,5.4-4.7,9.2-4.7,6.3,0,11.4,5.1,11.4,11.4Z"/>
          <path class="cls-4" d="M32.2,159.5c0,.8,0,1.5-.2,2.2-.3,1.7-1,3.2-2,4.5-1.5,2-3.7,3.5-6.2,4.2-.9.3-1.9.4-3,.4s-2.2-.2-3.3-.5c-2.6-.8-4.7-2.4-6.2-4.6-.7-1.1-1.3-2.4-1.6-3.7-.2-.8-.3-1.7-.3-2.6,0-6.3,5.1-11.4,11.4-11.4s11.4,5.1,11.4,11.4Z"/>
          <path class="cls-4" d="M37.4,209.4c0,1.2-.1,2.4-.4,3.5-.4,2.1-1.3,4-2.4,5.7-1.8,2.6-4.3,4.7-7.2,6-1.6.7-3.3,1.1-5.1,1.2-.4,0-.9,0-1.3,0s-1.2,0-1.8,0c-1.8-.2-3.5-.7-5-1.4-2.9-1.3-5.3-3.4-7-6.1h0c-1-1.5-1.7-3.2-2.1-5-.3-1.2-.4-2.5-.4-3.8,0-2.2.4-4.3,1.2-6.2.7-1.7,1.7-3.3,2.9-4.7,2.3-2.6,5.4-4.4,8.9-5.2h0c1.1-.2,2.2-.4,3.4-.4s1.9,0,2.8.2c3.5.6,6.7,2.3,9.1,4.8,1.4,1.5,2.5,3.2,3.3,5.1.8,1.9,1.2,4,1.2,6.2Z"/>
          <path class="cls-7" d="M11.4,165.9l-26.4,12.3c-.3-1.4-1-2.8-1.8-3.9l26.6-12.1c.3,1.3.9,2.6,1.6,3.7Z"/>
          <path class="cls-7" d="M58.5,174.3c-.9,1.2-1.5,2.7-1.9,4.2l-26.6-12.2c1-1.3,1.7-2.8,2-4.5l26.5,12.5Z"/>
          <path class="cls-7" d="M69,192.2l-2.5,24.4c-1.3-.6-2.8-.9-4.3-.9s-1,0-1.4,0l2.6-24.5c1.4.6,2.9.9,4.5.9s.8,0,1.2,0Z"/>
          <path class="cls-7" d="M8.8,198.5c-1.2,1.4-2.2,2.9-2.9,4.7l-24.1-14.1c1.5-1.4,2.6-3.3,3.2-5.4l23.8,14.8Z"/>
          <path class="cls-7" d="M23.8,170.5v22.8c-.9-.2-1.8-.2-2.8-.2s-2.3.1-3.4.4v-22.9c1,.3,2.1.5,3.3.5s2-.1,3-.4Z"/>
          <path class="cls-7" d="M59.7,188.9l-23.5,14.2c-.8-1.9-1.9-3.6-3.3-5.1l23.9-14.3c.5,2,1.5,3.7,2.9,5.1Z"/>
          <path class="cls-7" d="M53.3,219.9c-1.2,1.5-2.1,3.4-2.4,5.4l-16.3-6.8c1.1-1.7,2-3.6,2.4-5.7l16.3,7Z"/>
          <path class="cls-7" d="M7.2,218.2l-16.6,7.1c-.3-2-1.2-3.9-2.4-5.4l16.9-6.7c.4,1.8,1.2,3.5,2.1,5Z"/>
          <path class="cls-1" d="M4.8,274.2"/>
          <path class="cls-1" d="M4.8,277"/>
          <path class="cls-1" d="M10,268.6"/>
          <path class="cls-7" d="M19.2,225.7l-4.3,23.6-2.1,11.7h-5.6s1.7-8.7,1.7-8.7l1.2-6.2,4.1-21.8c1.6.7,3.2,1.2,5,1.4Z"/>
          <path class="cls-7" d="M34.2,261.1h-5.6s-2.1-11.8-2.1-11.8l-4.2-23.6c1.8-.1,3.5-.6,5.1-1.2l4,21.6,1.2,6.6,1.6,8.4Z"/>
          <line class="cls-1" x1="34.2" y1="261.1" x2="34.2" y2="261.1"/>
          <line class="cls-1" x1="28.7" y1="261.1" x2="28.7" y2="261.1"/>
          <path class="cls-7" d="M10,246.1l-1.2,6.2h0l-22.4-16.4c1.6-1.3,2.8-3,3.6-4.9l20,15.1Z"/>
          <path class="cls-7" d="M54.9,235.8l-22.2,16.9-1.2-6.6,20.1-15.1c.7,1.9,1.9,3.5,3.4,4.8Z"/>
          <path class="cls-7" d="M75.7,255.1c0,0,0,0-.1,0-.9-.3-2.3-.6-3.6.3-.3.2-.8.1-1.1-.2-.8-1-2.6-2.7-5.2-2.6l-5.1-14.3c.5,0,1,0,1.5,0,2.9,0,5.6-1.1,7.6-2.9l6,19.7Z"/>
          <path class="cls-4" d="M28.7,261.1h-15.9c0,0,2.1-11.8,2.1-11.8,0,0,4.9-3.4,11.6,0h0l2.1,11.8Z"/>
          <path class="cls-3" d="M.9,269.2h2.7v7.8h-71c-1.5-.1-3.1-.6-4.2-1.7-1-1-1.9-2.5-1.9-4.8,0-1.8.7-3.5,1.9-4.8,1-1,2.6-2,4.8-1.7.3,0,.5-.1.5-.4.1-1.5.9-5.8,5.8-7.2.3,0,.6-.4.7-.7.4-1.7,2-6.6,8.8-4.2.5.2,1,0,1.2-.5.7-1.5,2.8-4.4,8.2-3.9,0,0,7,.4,6.6,8,0,.3.2.5.4.5,0,0,.1,0,.2,0,.7-.2,2-.3,3.5.2.5.1,1,0,1.3-.4.7-1.1,2.4-2.9,5.7-2.7.4,0,.8,0,1.2.1,0,0,4.2,1.1,4.8,4.8,0,.4.4.8.8.8.7,0,1.6.4,2.3,1.2.4.4,1,.5,1.4.2.9-.6,2.5-1.3,4.1-.6.5.2,1.1,0,1.4-.4.6-1,1.9-2.5,4.4-3.2,1.8-.5,3.8-.2,5.5.5,1.9.8,4.2,2.3,4,4.8H.9s0,8.3,0,8.3Z"/>
          <path class="cls-3" d="M114.9,271c0,1.1-.4,2.1-.9,2.8-1.2,2-3.5,3.1-5.8,3.1H37.8v-7.5c0,0,2.9,0,2.9,0v-8.4h-5.5c-.2-5.2,6.6-5.8,6.6-5.8,4.3-.5,6.5,2.2,7.4,3.6.3.4.8.6,1.2.4,1.7-.8,3.3,0,4.2.5.4.3,1,.1,1.2-.3.7-.9,1.7-1.1,2.4-1.1.4,0,.7-.3.7-.7,0-3.2,3.8-4.5,3.8-4.5,1.1-.5,2.1-.7,3-.7,2.6,0,4.4,1.7,5.2,2.6.3.3.7.4,1.1.2,1.2-.9,2.6-.6,3.6-.3,0,0,0,0,.1,0,.4,0,.7-.3.7-.7-.7-4.9,4.9-7,4.9-7,5.5-2.2,8.8,1.7,10,3.5.3.4.8.6,1.3.4,6.1-2.4,8.2,2.7,8.7,4.3,0,.3.3.5.6.6,4.2,1.2,5.4,5,5.7,6.9,0,.6.6,1,1.2.9,3.1-.2,4.8,2,5.5,3.6.5,1.1.8,2.2.7,3.4Z"/>
          <g>
            <polygon class="cls-6" points="40.7 261.1 40.7 269.5 37.7 269.5 4.9 269.3 3.6 269.2 .9 269.2 .9 261 6.3 261 7.2 261 12.8 261 28.7 261.1 34.2 261.1 35.2 261.1 40.7 261.1"/>
            <polygon class="cls-6" points="37.8 277 3.6 277 3.6 269.2 4.9 269.3 37.7 269.5 37.8 277"/>
          </g>
        </g>
        <g>
          <path class="cls-4" d="M529.6,85.3c0,1.4-.3,2.7-.7,4-.7,2-2,3.6-3.6,4.9-1.6,1.3-3.6,2.2-5.8,2.4-.4,0-.8,0-1.2,0-2.9,0-5.5-1.1-7.5-2.8-2.4-2.1-3.8-5.1-3.8-8.5,0-5,3.2-9.2,7.6-10.7,1.2-.4,2.4-.6,3.8-.6s.4,0,.6,0c3.3.2,6.2,1.8,8.2,4.2,1.2,1.5,2.1,3.4,2.4,5.4,0,.6.1,1.2.1,1.7Z"/>
          <path class="cls-4" d="M612.4,85.3c0,3.3-1.4,6.4-3.7,8.4-2,1.8-4.7,2.9-7.6,2.9s-1,0-1.5,0c-2.2-.3-4.1-1.2-5.7-2.5-1.5-1.3-2.7-2.9-3.4-4.8-.5-1.2-.7-2.6-.7-4s0-1.2.1-1.7c.3-2,1.2-3.9,2.4-5.4,1.8-2.2,4.4-3.7,7.4-4.1.5,0,1,0,1.4,0,1.5,0,3,.3,4.3.9,4.1,1.7,7,5.8,7,10.5Z"/>
          <path class="cls-4" d="M618,39.2c0,5.9-4.4,10.7-10.1,11.3-.4,0-.8,0-1.2,0-1.6,0-3.1-.3-4.5-.9-1.3-.6-2.5-1.4-3.5-2.4-1.4-1.4-2.4-3.1-2.9-5.1-.3-.9-.4-1.9-.4-2.9s0-1.6.3-2.4c.3-1.5,1-3,1.9-4.2,2.1-2.9,5.4-4.7,9.2-4.7,6.3,0,11.4,5.1,11.4,11.4Z"/>
          <path class="cls-4" d="M524.2,39.2c0,1-.1,1.9-.4,2.9-.5,2.1-1.7,3.9-3.2,5.4-1.2,1.1-2.5,2-4.1,2.5-1.2.4-2.4.6-3.7.6s-.3,0-.5,0c-6-.3-10.8-5.2-10.8-11.3s5.1-11.4,11.4-11.4,7.2,1.9,9.2,4.7c.8,1.2,1.5,2.5,1.8,3.9.2.9.3,1.8.3,2.7Z"/>
          <path class="cls-4" d="M571.1,17.8c0,.8,0,1.5-.2,2.2-.3,1.7-1,3.2-2,4.5-1.5,2-3.7,3.5-6.2,4.2-.9.3-1.9.4-3,.4s-2.2-.2-3.3-.5c-2.6-.8-4.7-2.4-6.2-4.6-.7-1.1-1.3-2.4-1.6-3.7-.2-.8-.3-1.7-.3-2.6,0-6.3,5.1-11.4,11.4-11.4s11.4,5.1,11.4,11.4Z"/>
          <path class="cls-4" d="M576.3,67.7c0,1.2-.1,2.4-.4,3.5-.4,2.1-1.3,4-2.4,5.7-1.8,2.6-4.3,4.7-7.2,6-1.6.7-3.3,1.1-5.1,1.2-.4,0-.9,0-1.3,0s-1.2,0-1.8,0c-1.8-.2-3.5-.7-5-1.4-2.9-1.3-5.3-3.4-7-6.1h0c-1-1.5-1.7-3.2-2.1-5-.3-1.2-.4-2.5-.4-3.8,0-2.2.4-4.3,1.2-6.2.7-1.7,1.7-3.3,2.9-4.7,2.3-2.6,5.4-4.4,8.9-5.2h0c1.1-.2,2.2-.4,3.4-.4s1.9,0,2.8.2c3.5.6,6.7,2.3,9.1,4.8,1.4,1.5,2.5,3.2,3.3,5.1.8,1.9,1.2,4,1.2,6.2Z"/>
          <path class="cls-1" d="M515,74.4"/>
          <path class="cls-7" d="M518.9,74c-.2,0-.4,0-.6,0-1.3,0-2.6.2-3.8.6l-2.2-24.1c.2,0,.3,0,.5,0,1.3,0,2.6-.2,3.7-.6l2.3,24.1Z"/>
          <path class="cls-7" d="M550.3,24.1l-26.4,12.3c-.3-1.4-1-2.8-1.8-3.9l26.6-12.1c.3,1.3.9,2.6,1.6,3.7Z"/>
          <path class="cls-7" d="M597.4,32.5c-.9,1.2-1.5,2.7-1.9,4.2l-26.6-12.2c1-1.3,1.7-2.8,2-4.5l26.5,12.5Z"/>
          <path class="cls-7" d="M607.9,50.5l-2.5,24.4c-1.3-.6-2.8-.9-4.3-.9s-1,0-1.4,0l2.6-24.5c1.4.6,2.9.9,4.5.9s.8,0,1.2,0Z"/>
          <path class="cls-7" d="M547.6,56.8c-1.2,1.4-2.2,2.9-2.9,4.7l-24.1-14.1c1.5-1.4,2.6-3.3,3.2-5.4l23.8,14.8Z"/>
          <path class="cls-7" d="M562.7,28.8v22.8c-.9-.2-1.8-.2-2.8-.2s-2.3.1-3.4.4v-22.9c1,.3,2.1.5,3.3.5s2-.1,3-.4Z"/>
          <path class="cls-7" d="M598.6,47.2l-23.5,14.2c-.8-1.9-1.9-3.6-3.3-5.1l23.9-14.3c.5,2,1.5,3.7,2.9,5.1Z"/>
          <path class="cls-7" d="M592.2,78.1c-1.2,1.5-2.1,3.4-2.4,5.4l-16.3-6.8c1.1-1.7,2-3.6,2.4-5.7l16.3,7Z"/>
          <path class="cls-7" d="M546.1,76.5l-16.6,7.1c-.3-2-1.2-3.9-2.4-5.4l16.9-6.7c.4,1.8,1.2,3.5,2.1,5Z"/>
          <path class="cls-7" d="M519.5,96.6h0s-4.3,14.3-4.3,14.3c-3.3-.2-5,1.6-5.7,2.7-.3.4-.8.6-1.3.4-1.5-.5-2.8-.3-3.5-.2,0,0-.1,0-.2,0l6.3-20c2,1.8,4.6,2.8,7.5,2.8s.8,0,1.2,0Z"/>
          <path class="cls-1" d="M543.7,132.5"/>
          <path class="cls-1" d="M543.7,135.3"/>
          <path class="cls-1" d="M548.9,126.9"/>
          <path class="cls-1" d="M527.1,135.3"/>
          <path class="cls-7" d="M558.1,84l-4.3,23.6-2.1,11.7h-5.6s1.7-8.7,1.7-8.7l1.2-6.2,4.1-21.8c1.6.7,3.2,1.2,5,1.4Z"/>
          <path class="cls-7" d="M573.1,119.4h-5.6s-2.1-11.8-2.1-11.8l-4.2-23.6c1.8-.1,3.5-.6,5.1-1.2l4,21.6,1.2,6.6,1.6,8.4Z"/>
          <line class="cls-1" x1="573.1" y1="119.4" x2="573.1" y2="119.4"/>
          <line class="cls-1" x1="567.5" y1="119.4" x2="567.5" y2="119.4"/>
          <path class="cls-7" d="M548.9,104.4l-1.2,6.2h0l-22.4-16.4c1.6-1.3,2.8-3,3.6-4.9l20,15.1Z"/>
          <path class="cls-7" d="M593.8,94.1l-22.2,16.9-1.2-6.6,20.1-15.1c.7,1.9,1.9,3.5,3.4,4.8Z"/>
          <path class="cls-7" d="M614.6,113.4c0,0,0,0-.1,0-.9-.3-2.3-.6-3.6.3-.3.2-.8.1-1.1-.2-.8-1-2.6-2.7-5.2-2.6l-5.1-14.3c.5,0,1,0,1.5,0,2.9,0,5.6-1.1,7.6-2.9l6,19.7Z"/>
          <path class="cls-4" d="M567.5,119.4h-15.9c0,0,2.1-11.8,2.1-11.8,0,0,4.9-3.4,11.6,0h0l2.1,11.8Z"/>
          <path class="cls-1" d="M470.2,135.1"/>
          <path class="cls-3" d="M539.8,127.5h2.7v7.8h-71c-1.5-.1-3.1-.6-4.2-1.7-1-1-1.9-2.5-1.9-4.8,0-1.8.7-3.5,1.9-4.8,1-1,2.6-2,4.8-1.7.3,0,.5-.1.5-.4.1-1.5.9-5.8,5.8-7.2.3,0,.6-.4.7-.7.4-1.7,2-6.6,8.8-4.2.5.2,1,0,1.2-.5.7-1.5,2.8-4.4,8.2-3.9,0,0,7,.4,6.6,8,0,.3.2.5.4.5,0,0,.1,0,.2,0,.7-.2,2-.3,3.5.2.5.1,1,0,1.3-.4.7-1.1,2.4-2.9,5.7-2.7.4,0,.8,0,1.2.1,0,0,4.2,1.1,4.8,4.8,0,.4.4.8.8.8.7,0,1.6.4,2.3,1.2.4.4,1,.5,1.4.2.9-.6,2.5-1.3,4.1-.6.5.2,1.1,0,1.4-.4.6-1,1.9-2.5,4.4-3.2,1.8-.5,3.8-.2,5.5.5,1.9.8,4.2,2.3,4,4.8h-5.4s0,8.3,0,8.3Z"/>
          <path class="cls-3" d="M653.8,129.3c0,1.1-.4,2.1-.9,2.8-1.2,2-3.5,3.1-5.8,3.1h-70.4v-7.5c0,0,2.9,0,2.9,0v-8.4h-5.5c-.2-5.2,6.6-5.8,6.6-5.8,4.3-.5,6.5,2.2,7.4,3.6.3.4.8.6,1.2.4,1.7-.8,3.3,0,4.2.5.4.3,1,.1,1.2-.3.7-.9,1.7-1.1,2.4-1.1.4,0,.7-.3.7-.7,0-3.2,3.8-4.5,3.8-4.5,1.1-.5,2.1-.7,3-.7,2.6,0,4.4,1.7,5.2,2.6.3.3.7.4,1.1.2,1.2-.9,2.6-.6,3.6-.3,0,0,0,0,.1,0,.4,0,.7-.3.7-.7-.7-4.9,4.9-7,4.9-7,5.5-2.2,8.8,1.7,10,3.5.3.4.8.6,1.3.4,6.1-2.4,8.2,2.7,8.7,4.3,0,.3.3.5.6.6,4.2,1.2,5.4,5,5.7,6.9,0,.6.6,1,1.2.9,3.1-.2,4.8,2,5.5,3.6.5,1.1.8,2.2.7,3.4Z"/>
          <g>
            <polygon class="cls-6" points="579.6 119.4 579.6 127.8 576.6 127.8 543.8 127.5 542.5 127.5 539.8 127.5 539.8 119.2 545.2 119.3 546.1 119.3 551.7 119.3 567.5 119.4 573.1 119.4 574.1 119.4 579.6 119.4"/>
            <polygon class="cls-6" points="576.7 135.3 542.5 135.3 542.5 127.5 543.8 127.5 576.6 127.8 576.7 135.3"/>
          </g>
        </g>
        <g>
          <path class="cls-4" d="M322.4,85.3c0,1.4-.3,2.7-.7,4-.7,2-2,3.6-3.6,4.9-1.6,1.3-3.6,2.2-5.8,2.4-.4,0-.8,0-1.2,0-2.9,0-5.5-1.1-7.5-2.8-2.4-2.1-3.8-5.1-3.8-8.5,0-5,3.2-9.2,7.6-10.7,1.2-.4,2.4-.6,3.8-.6s.4,0,.6,0c3.3.2,6.2,1.8,8.2,4.2,1.2,1.5,2.1,3.4,2.4,5.4,0,.6.1,1.2.1,1.7Z"/>
          <path class="cls-4" d="M405.1,85.3c0,3.3-1.4,6.4-3.7,8.4-2,1.8-4.7,2.9-7.6,2.9s-1,0-1.5,0c-2.2-.3-4.1-1.2-5.7-2.5-1.5-1.3-2.7-2.9-3.4-4.8-.5-1.2-.7-2.6-.7-4s0-1.2.1-1.7c.3-2,1.2-3.9,2.4-5.4,1.8-2.2,4.4-3.7,7.4-4.1.5,0,1,0,1.4,0,1.5,0,3,.3,4.3.9,4.1,1.7,7,5.8,7,10.5Z"/>
          <path class="cls-4" d="M410.7,39.2c0,5.9-4.4,10.7-10.1,11.3-.4,0-.8,0-1.2,0-1.6,0-3.1-.3-4.5-.9-1.3-.6-2.5-1.4-3.5-2.4-1.4-1.4-2.4-3.1-2.9-5.1-.3-.9-.4-1.9-.4-2.9s0-1.6.3-2.4c.3-1.5,1-3,1.9-4.2,2.1-2.9,5.4-4.7,9.2-4.7,6.3,0,11.4,5.1,11.4,11.4Z"/>
          <path class="cls-4" d="M316.9,39.2c0,1-.1,1.9-.4,2.9-.5,2.1-1.7,3.9-3.2,5.4-1.2,1.1-2.5,2-4.1,2.5-1.2.4-2.4.6-3.7.6s-.3,0-.5,0c-6-.3-10.8-5.2-10.8-11.3s5.1-11.4,11.4-11.4,7.2,1.9,9.2,4.7c.8,1.2,1.5,2.5,1.8,3.9.2.9.3,1.8.3,2.7Z"/>
          <path class="cls-4" d="M363.8,17.8c0,.8,0,1.5-.2,2.2-.3,1.7-1,3.2-2,4.5-1.5,2-3.7,3.5-6.2,4.2-.9.3-1.9.4-3,.4s-2.2-.2-3.3-.5c-2.6-.8-4.7-2.4-6.2-4.6-.7-1.1-1.3-2.4-1.6-3.7-.2-.8-.3-1.7-.3-2.6,0-6.3,5.1-11.4,11.4-11.4s11.4,5.1,11.4,11.4Z"/>
          <path class="cls-4" d="M369,67.7c0,1.2-.1,2.4-.4,3.5-.4,2.1-1.3,4-2.4,5.7-1.8,2.6-4.3,4.7-7.2,6-1.6.7-3.3,1.1-5.1,1.2-.4,0-.9,0-1.3,0s-1.2,0-1.8,0c-1.8-.2-3.5-.7-5-1.4-2.9-1.3-5.3-3.4-7-6.1h0c-1-1.5-1.7-3.2-2.1-5-.3-1.2-.4-2.5-.4-3.8,0-2.2.4-4.3,1.2-6.2.7-1.7,1.7-3.3,2.9-4.7,2.3-2.6,5.4-4.4,8.9-5.2h0c1.1-.2,2.2-.4,3.4-.4s1.9,0,2.8.2c3.5.6,6.7,2.3,9.1,4.8,1.4,1.5,2.5,3.2,3.3,5.1.8,1.9,1.2,4,1.2,6.2Z"/>
          <path class="cls-1" d="M307.8,74.4"/>
          <path class="cls-7" d="M311.7,74c-.2,0-.4,0-.6,0-1.3,0-2.6.2-3.8.6l-2.2-24.1c.2,0,.3,0,.5,0,1.3,0,2.6-.2,3.7-.6l2.3,24.1Z"/>
          <path class="cls-7" d="M343,24.1l-26.4,12.3c-.3-1.4-1-2.8-1.8-3.9l26.6-12.1c.3,1.3.9,2.6,1.6,3.7Z"/>
          <path class="cls-7" d="M390.2,32.5c-.9,1.2-1.5,2.7-1.9,4.2l-26.6-12.2c1-1.3,1.7-2.8,2-4.5l26.5,12.5Z"/>
          <path class="cls-7" d="M400.6,50.5l-2.5,24.4c-1.3-.6-2.8-.9-4.3-.9s-1,0-1.4,0l2.6-24.5c1.4.6,2.9.9,4.5.9s.8,0,1.2,0Z"/>
          <path class="cls-7" d="M340.4,56.8c-1.2,1.4-2.2,2.9-2.9,4.7l-24.1-14.1c1.5-1.4,2.6-3.3,3.2-5.4l23.8,14.8Z"/>
          <path class="cls-7" d="M355.5,28.8v22.8c-.9-.2-1.8-.2-2.8-.2s-2.3.1-3.4.4v-22.9c1,.3,2.1.5,3.3.5s2-.1,3-.4Z"/>
          <path class="cls-7" d="M391.3,47.2l-23.5,14.2c-.8-1.9-1.9-3.6-3.3-5.1l23.9-14.3c.5,2,1.5,3.7,2.9,5.1Z"/>
          <path class="cls-7" d="M384.9,78.1c-1.2,1.5-2.1,3.4-2.4,5.4l-16.3-6.8c1.1-1.7,2-3.6,2.4-5.7l16.3,7Z"/>
          <path class="cls-7" d="M338.8,76.5l-16.6,7.1c-.3-2-1.2-3.9-2.4-5.4l16.9-6.7c.4,1.8,1.2,3.5,2.1,5Z"/>
          <path class="cls-7" d="M312.2,96.6h0s-4.3,14.3-4.3,14.3c-3.3-.2-5,1.6-5.7,2.7-.3.4-.8.6-1.3.4-1.5-.5-2.8-.3-3.5-.2,0,0-.1,0-.2,0l6.3-20c2,1.8,4.6,2.8,7.5,2.8s.8,0,1.2,0Z"/>
          <path class="cls-1" d="M336.4,132.5"/>
          <path class="cls-1" d="M336.4,135.3"/>
          <path class="cls-1" d="M341.6,126.9"/>
          <path class="cls-1" d="M319.8,135.3"/>
          <path class="cls-7" d="M350.8,84l-4.3,23.6-2.1,11.7h-5.6s1.7-8.7,1.7-8.7l1.2-6.2,4.1-21.8c1.6.7,3.2,1.2,5,1.4Z"/>
          <path class="cls-7" d="M365.9,119.4h-5.6s-2.1-11.8-2.1-11.8l-4.2-23.6c1.8-.1,3.5-.6,5.1-1.2l4,21.6,1.2,6.6,1.6,8.4Z"/>
          <line class="cls-1" x1="365.9" y1="119.4" x2="365.9" y2="119.4"/>
          <line class="cls-1" x1="360.3" y1="119.4" x2="360.3" y2="119.4"/>
          <path class="cls-7" d="M341.7,104.4l-1.2,6.2h0l-22.4-16.4c1.6-1.3,2.8-3,3.6-4.9l20,15.1Z"/>
          <path class="cls-7" d="M386.5,94.1l-22.2,16.9-1.2-6.6,20.1-15.1c.7,1.9,1.9,3.5,3.4,4.8Z"/>
          <path class="cls-7" d="M407.3,113.4c0,0,0,0-.1,0-.9-.3-2.3-.6-3.6.3-.3.2-.8.1-1.1-.2-.8-1-2.6-2.7-5.2-2.6l-5.1-14.3c.5,0,1,0,1.5,0,2.9,0,5.6-1.1,7.6-2.9l6,19.7Z"/>
          <path class="cls-4" d="M360.3,119.4h-15.9c0,0,2.1-11.8,2.1-11.8,0,0,4.9-3.4,11.6,0h0l2.1,11.8Z"/>
          <path class="cls-1" d="M263,135.1"/>
          <path class="cls-3" d="M332.5,127.5h2.7v7.8h-71c-1.5-.1-3.1-.6-4.2-1.7-1-1-1.9-2.5-1.9-4.8,0-1.8.7-3.5,1.9-4.8,1-1,2.6-2,4.8-1.7.3,0,.5-.1.5-.4.1-1.5.9-5.8,5.8-7.2.3,0,.6-.4.7-.7.4-1.7,2-6.6,8.8-4.2.5.2,1,0,1.2-.5.7-1.5,2.8-4.4,8.2-3.9,0,0,7,.4,6.6,8,0,.3.2.5.4.5,0,0,.1,0,.2,0,.7-.2,2-.3,3.5.2.5.1,1,0,1.3-.4.7-1.1,2.4-2.9,5.7-2.7.4,0,.8,0,1.2.1,0,0,4.2,1.1,4.8,4.8,0,.4.4.8.8.8.7,0,1.6.4,2.3,1.2.4.4,1,.5,1.4.2.9-.6,2.5-1.3,4.1-.6.5.2,1.1,0,1.4-.4.6-1,1.9-2.5,4.4-3.2,1.8-.5,3.8-.2,5.5.5,1.9.8,4.2,2.3,4,4.8h-5.4s0,8.3,0,8.3Z"/>
          <path class="cls-3" d="M446.5,129.3c0,1.1-.4,2.1-.9,2.8-1.2,2-3.5,3.1-5.8,3.1h-70.4v-7.5c0,0,2.9,0,2.9,0v-8.4h-5.5c-.2-5.2,6.6-5.8,6.6-5.8,4.3-.5,6.5,2.2,7.4,3.6.3.4.8.6,1.2.4,1.7-.8,3.3,0,4.2.5.4.3,1,.1,1.2-.3.7-.9,1.7-1.1,2.4-1.1.4,0,.7-.3.7-.7,0-3.2,3.8-4.5,3.8-4.5,1.1-.5,2.1-.7,3-.7,2.6,0,4.4,1.7,5.2,2.6.3.3.7.4,1.1.2,1.2-.9,2.6-.6,3.6-.3,0,0,0,0,.1,0,.4,0,.7-.3.7-.7-.7-4.9,4.9-7,4.9-7,5.5-2.2,8.8,1.7,10,3.5.3.4.8.6,1.3.4,6.1-2.4,8.2,2.7,8.7,4.3,0,.3.3.5.6.6,4.2,1.2,5.4,5,5.7,6.9,0,.6.6,1,1.2.9,3.1-.2,4.8,2,5.5,3.6.5,1.1.8,2.2.7,3.4Z"/>
          <g>
            <polygon class="cls-6" points="372.3 119.4 372.3 127.8 369.4 127.8 336.5 127.5 335.3 127.5 332.5 127.5 332.5 119.2 337.9 119.3 338.8 119.3 344.4 119.3 360.3 119.4 365.9 119.4 366.9 119.4 372.3 119.4"/>
            <polygon class="cls-6" points="369.4 135.3 335.3 135.3 335.3 127.5 336.5 127.5 369.4 127.8 369.4 135.3"/>
          </g>
        </g>
        <g>
          <path class="cls-4" d="M115.1,85.3c0,1.4-.3,2.7-.7,4-.7,2-2,3.6-3.6,4.9-1.6,1.3-3.6,2.2-5.8,2.4-.4,0-.8,0-1.2,0-2.9,0-5.5-1.1-7.5-2.8-2.4-2.1-3.8-5.1-3.8-8.5,0-5,3.2-9.2,7.6-10.7,1.2-.4,2.4-.6,3.8-.6s.4,0,.6,0c3.3.2,6.2,1.8,8.2,4.2,1.2,1.5,2.1,3.4,2.4,5.4,0,.6.1,1.2.1,1.7Z"/>
          <path class="cls-4" d="M197.8,85.3c0,3.3-1.4,6.4-3.7,8.4-2,1.8-4.7,2.9-7.6,2.9s-1,0-1.5,0c-2.2-.3-4.1-1.2-5.7-2.5-1.5-1.3-2.7-2.9-3.4-4.8-.5-1.2-.7-2.6-.7-4s0-1.2.1-1.7c.3-2,1.2-3.9,2.4-5.4,1.8-2.2,4.4-3.7,7.4-4.1.5,0,1,0,1.4,0,1.5,0,3,.3,4.3.9,4.1,1.7,7,5.8,7,10.5Z"/>
          <path class="cls-4" d="M203.5,39.2c0,5.9-4.4,10.7-10.1,11.3-.4,0-.8,0-1.2,0-1.6,0-3.1-.3-4.5-.9-1.3-.6-2.5-1.4-3.5-2.4-1.4-1.4-2.4-3.1-2.9-5.1-.3-.9-.4-1.9-.4-2.9s0-1.6.3-2.4c.3-1.5,1-3,1.9-4.2,2.1-2.9,5.4-4.7,9.2-4.7,6.3,0,11.4,5.1,11.4,11.4Z"/>
          <path class="cls-4" d="M109.7,39.2c0,1-.1,1.9-.4,2.9-.5,2.1-1.7,3.9-3.2,5.4-1.2,1.1-2.5,2-4.1,2.5-1.2.4-2.4.6-3.7.6s-.3,0-.5,0c-6-.3-10.8-5.2-10.8-11.3s5.1-11.4,11.4-11.4,7.2,1.9,9.2,4.7c.8,1.2,1.5,2.5,1.8,3.9.2.9.3,1.8.3,2.7Z"/>
          <path class="cls-4" d="M156.6,17.8c0,.8,0,1.5-.2,2.2-.3,1.7-1,3.2-2,4.5-1.5,2-3.7,3.5-6.2,4.2-.9.3-1.9.4-3,.4s-2.2-.2-3.3-.5c-2.6-.8-4.7-2.4-6.2-4.6-.7-1.1-1.3-2.4-1.6-3.7-.2-.8-.3-1.7-.3-2.6,0-6.3,5.1-11.4,11.4-11.4s11.4,5.1,11.4,11.4Z"/>
          <path class="cls-4" d="M161.8,67.7c0,1.2-.1,2.4-.4,3.5-.4,2.1-1.3,4-2.4,5.7-1.8,2.6-4.3,4.7-7.2,6-1.6.7-3.3,1.1-5.1,1.2-.4,0-.9,0-1.3,0s-1.2,0-1.8,0c-1.8-.2-3.5-.7-5-1.4-2.9-1.3-5.3-3.4-7-6.1h0c-1-1.5-1.7-3.2-2.1-5-.3-1.2-.4-2.5-.4-3.8,0-2.2.4-4.3,1.2-6.2.7-1.7,1.7-3.3,2.9-4.7,2.3-2.6,5.4-4.4,8.9-5.2h0c1.1-.2,2.2-.4,3.4-.4s1.9,0,2.8.2c3.5.6,6.7,2.3,9.1,4.8,1.4,1.5,2.5,3.2,3.3,5.1.8,1.9,1.2,4,1.2,6.2Z"/>
          <path class="cls-1" d="M100.5,74.4"/>
          <path class="cls-7" d="M104.4,74c-.2,0-.4,0-.6,0-1.3,0-2.6.2-3.8.6l-2.2-24.1c.2,0,.3,0,.5,0,1.3,0,2.6-.2,3.7-.6l2.3,24.1Z"/>
          <path class="cls-7" d="M135.8,24.1l-26.4,12.3c-.3-1.4-1-2.8-1.8-3.9l26.6-12.1c.3,1.3.9,2.6,1.6,3.7Z"/>
          <path class="cls-7" d="M182.9,32.5c-.9,1.2-1.5,2.7-1.9,4.2l-26.6-12.2c1-1.3,1.7-2.8,2-4.5l26.5,12.5Z"/>
          <path class="cls-7" d="M193.3,50.5l-2.5,24.4c-1.3-.6-2.8-.9-4.3-.9s-1,0-1.4,0l2.6-24.5c1.4.6,2.9.9,4.5.9s.8,0,1.2,0Z"/>
          <path class="cls-7" d="M133.1,56.8c-1.2,1.4-2.2,2.9-2.9,4.7l-24.1-14.1c1.5-1.4,2.6-3.3,3.2-5.4l23.8,14.8Z"/>
          <path class="cls-7" d="M148.2,28.8v22.8c-.9-.2-1.8-.2-2.8-.2s-2.3.1-3.4.4v-22.9c1,.3,2.1.5,3.3.5s2-.1,3-.4Z"/>
          <path class="cls-7" d="M184.1,47.2l-23.5,14.2c-.8-1.9-1.9-3.6-3.3-5.1l23.9-14.3c.5,2,1.5,3.7,2.9,5.1Z"/>
          <path class="cls-7" d="M177.7,78.1c-1.2,1.5-2.1,3.4-2.4,5.4l-16.3-6.8c1.1-1.7,2-3.6,2.4-5.7l16.3,7Z"/>
          <path class="cls-7" d="M131.6,76.5l-16.6,7.1c-.3-2-1.2-3.9-2.4-5.4l16.9-6.7c.4,1.8,1.2,3.5,2.1,5Z"/>
          <path class="cls-7" d="M105,96.6h0s-4.3,14.3-4.3,14.3c-3.3-.2-5,1.6-5.7,2.7-.3.4-.8.6-1.3.4-1.5-.5-2.8-.3-3.5-.2,0,0-.1,0-.2,0l6.3-20c2,1.8,4.6,2.8,7.5,2.8s.8,0,1.2,0Z"/>
          <path class="cls-1" d="M129.2,132.5"/>
          <path class="cls-1" d="M129.2,135.3"/>
          <path class="cls-1" d="M134.3,126.9"/>
          <path class="cls-1" d="M112.6,135.3"/>
          <path class="cls-7" d="M143.6,84l-4.3,23.6-2.1,11.7h-5.6s1.7-8.7,1.7-8.7l1.2-6.2,4.1-21.8c1.6.7,3.2,1.2,5,1.4Z"/>
          <path class="cls-7" d="M158.6,119.4h-5.6s-2.1-11.8-2.1-11.8l-4.2-23.6c1.8-.1,3.5-.6,5.1-1.2l4,21.6,1.2,6.6,1.6,8.4Z"/>
          <line class="cls-1" x1="158.6" y1="119.4" x2="158.6" y2="119.4"/>
          <line class="cls-1" x1="153" y1="119.4" x2="153" y2="119.4"/>
          <path class="cls-7" d="M134.4,104.4l-1.2,6.2h0l-22.4-16.4c1.6-1.3,2.8-3,3.6-4.9l20,15.1Z"/>
          <path class="cls-7" d="M179.3,94.1l-22.2,16.9-1.2-6.6,20.1-15.1c.7,1.9,1.9,3.5,3.4,4.8Z"/>
          <path class="cls-7" d="M200.1,113.4c0,0,0,0-.1,0-.9-.3-2.3-.6-3.6.3-.3.2-.8.1-1.1-.2-.8-1-2.6-2.7-5.2-2.6l-5.1-14.3c.5,0,1,0,1.5,0,2.9,0,5.6-1.1,7.6-2.9l6,19.7Z"/>
          <path class="cls-4" d="M153,119.4h-15.9c0,0,2.1-11.8,2.1-11.8,0,0,4.9-3.4,11.6,0h0l2.1,11.8Z"/>
          <path class="cls-1" d="M55.7,135.1"/>
          <path class="cls-3" d="M125.3,127.5h2.7v7.8H57c-1.5-.1-3.1-.6-4.2-1.7-1-1-1.9-2.5-1.9-4.8,0-1.8.7-3.5,1.9-4.8,1-1,2.6-2,4.8-1.7.3,0,.5-.1.5-.4.1-1.5.9-5.8,5.8-7.2.3,0,.6-.4.7-.7.4-1.7,2-6.6,8.8-4.2.5.2,1,0,1.2-.5.7-1.5,2.8-4.4,8.2-3.9,0,0,7,.4,6.6,8,0,.3.2.5.4.5,0,0,.1,0,.2,0,.7-.2,2-.3,3.5.2.5.1,1,0,1.3-.4.7-1.1,2.4-2.9,5.7-2.7.4,0,.8,0,1.2.1,0,0,4.2,1.1,4.8,4.8,0,.4.4.8.8.8.7,0,1.6.4,2.3,1.2.4.4,1,.5,1.4.2.9-.6,2.5-1.3,4.1-.6.5.2,1.1,0,1.4-.4.6-1,1.9-2.5,4.4-3.2,1.8-.5,3.8-.2,5.5.5,1.9.8,4.2,2.3,4,4.8h-5.4s0,8.3,0,8.3Z"/>
          <path class="cls-3" d="M239.3,129.3c0,1.1-.4,2.1-.9,2.8-1.2,2-3.5,3.1-5.8,3.1h-70.4v-7.5c0,0,2.9,0,2.9,0v-8.4h-5.5c-.2-5.2,6.6-5.8,6.6-5.8,4.3-.5,6.5,2.2,7.4,3.6.3.4.8.6,1.2.4,1.7-.8,3.3,0,4.2.5.4.3,1,.1,1.2-.3.7-.9,1.7-1.1,2.4-1.1.4,0,.7-.3.7-.7,0-3.2,3.8-4.5,3.8-4.5,1.1-.5,2.1-.7,3-.7,2.6,0,4.4,1.7,5.2,2.6.3.3.7.4,1.1.2,1.2-.9,2.6-.6,3.6-.3,0,0,0,0,.1,0,.4,0,.7-.3.7-.7-.7-4.9,4.9-7,4.9-7,5.5-2.2,8.8,1.7,10,3.5.3.4.8.6,1.3.4,6.1-2.4,8.2,2.7,8.7,4.3,0,.3.3.5.6.6,4.2,1.2,5.4,5,5.7,6.9,0,.6.6,1,1.2.9,3.1-.2,4.8,2,5.5,3.6.5,1.1.8,2.2.7,3.4Z"/>
          <g>
            <polygon class="cls-6" points="165.1 119.4 165.1 127.8 162.1 127.8 129.3 127.5 128 127.5 125.3 127.5 125.3 119.2 130.7 119.3 131.6 119.3 137.1 119.3 153 119.4 158.6 119.4 159.6 119.4 165.1 119.4"/>
            <polygon class="cls-6" points="162.2 135.3 128 135.3 128 127.5 129.3 127.5 162.1 127.8 162.2 135.3"/>
          </g>
        </g>
        <path class="cls-3" d="M32,129.3c0,1.1-.4,2.1-.9,2.8-1.2,2-3.5,3.1-5.8,3.1H-45.1v-7.5c0,0,2.9,0,2.9,0v-8.4h-5.5c-.2-5.2,6.6-5.8,6.6-5.8,4.3-.5,6.5,2.2,7.4,3.6.3.4.8.6,1.2.4,1.7-.8,3.3,0,4.2.5.4.3,1,.1,1.2-.3.7-.9,1.7-1.1,2.4-1.1.4,0,.7-.3.7-.7,0-3.2,3.8-4.5,3.8-4.5,1.1-.5,2.1-.7,3-.7,2.6,0,4.4,1.7,5.2,2.6.3.3.7.4,1.1.2,1.2-.9,2.6-.6,3.6-.3,0,0,0,0,.1,0,.4,0,.7-.3.7-.7-.7-4.9,4.9-7,4.9-7,5.5-2.2,8.8,1.7,10,3.5.3.4.8.6,1.3.4,6.1-2.4,8.2,2.7,8.7,4.3,0,.3.3.5.6.6,4.2,1.2,5.4,5,5.7,6.9,0,.6.6,1,1.2.9,3.1-.2,4.8,2,5.5,3.6.5,1.1.8,2.2.7,3.4Z"/>
      </g>
    </pattern>
  </defs>
  <!-- Generator: Adobe Illustrator 28.7.1, SVG Export Plug-In . SVG Version: 1.2.0 Build 142)  -->
  <g>
    <g id="Calque_3">
      <rect class="cls-2" width="566.9" height="566.9"/>
    </g>
    <g id="Calque_4">
      <rect class="cls-5" width="566.9" height="566.9"/>
    </g>
  </g>
</svg>