<svg width="186" height="1344" viewBox="0 0 186 1344" fill="none" xmlns="http://www.w3.org/2000/svg">
<g clip-path="url(#clip0_38_319)">
<path d="M137.2 663.35L167.84 657.3V634.45H180.1L158.65 620.15L148.44 651.81L118.82 641.75L137.2 663.35Z" fill="#E0DE2A" stroke="#1D1D1B" stroke-width="3" stroke-miterlimit="10"/>
<path d="M107.62 772.52L131.07 764.15V750.98L140.27 741.68L118.82 750.98V761.09L107.62 757.1" fill="#E0DE2A"/>
<path d="M107.62 772.52L131.07 764.15V750.98L140.27 741.68L118.82 750.98V761.09L107.62 757.1" stroke="#1D1D1B" stroke-width="3" stroke-miterlimit="10"/>
<path d="M94.3099 418.45L105.89 422.02L94.3099 430.18L84.6099 424.31" fill="#E0DE2A"/>
<path d="M94.3099 418.45L105.89 422.02L94.3099 430.18L84.6099 424.31" stroke="#1D1D1B" stroke-width="3" stroke-miterlimit="10"/>
<path d="M-105.54 416.28C-105.54 416.28 -58.5802 341.87 -22.5901 406.52C-22.5901 406.52 42.6698 402.25 9.11984 498C9.11984 498 68.2798 552.28 6.06985 600.46C6.06985 600.46 50.5898 653.52 -14.0602 682.8C-14.0602 682.8 -22.6002 761.48 -86.0302 710.25C-86.0302 710.25 -149.46 722.45 -125.67 643.16C-125.67 643.16 -222.03 613.28 -134.21 537.04C-134.21 537.04 -189.1 529.11 -179.34 467.51C-169.58 405.91 -105.54 416.28 -105.54 416.28Z" fill="#939597" stroke="#1D1D1B" stroke-width="9" stroke-miterlimit="10"/>
<path d="M-20.3799 573.42C-20.3799 573.42 38.7801 612.15 -20.3799 647.52" stroke="#1D1D1B" stroke-width="9" stroke-miterlimit="10" stroke-linecap="round"/>
<path d="M82.18 519.73C82.18 519.73 34.89 445.32 -1.35003 509.97C-1.35003 509.97 -67.07 505.7 -33.29 601.45C-33.29 601.45 -92.87 655.73 -30.22 703.91C-30.22 703.91 -75.06 756.97 -9.95002 786.25C-9.95002 786.25 -1.35002 864.93 62.52 813.7C62.52 813.7 126.4 825.9 102.44 746.61C102.44 746.61 199.48 716.73 111.04 640.49C111.04 640.49 166.32 632.56 156.49 570.96C146.66 509.36 82.17 519.73 82.17 519.73H82.18Z" fill="#939597" stroke="#1D1D1B" stroke-width="9" stroke-miterlimit="10"/>
<path d="M105.89 550.13C105.89 550.13 84.3899 494.63 49.3799 527.56L105.89 550.13Z" fill="#939597"/>
<path d="M105.89 550.13C105.89 550.13 84.3899 494.63 49.3799 527.56" stroke="#1D1D1B" stroke-width="9" stroke-miterlimit="10" stroke-linecap="round"/>
<path d="M23.3099 506.89C23.3099 506.89 -41.7901 506.45 -6.17014 582.08" stroke="#1D1D1B" stroke-width="9" stroke-miterlimit="10" stroke-linecap="round"/>
<path d="M-3.58982 676.88C-3.58982 676.88 -63.1698 715.61 -3.58982 750.98" stroke="#1D1D1B" stroke-width="9" stroke-miterlimit="10" stroke-linecap="round"/>
<path d="M-50.31 719.61C-50.31 719.61 -82.8 666 -107.7 712.58C-107.7 712.58 -152.85 709.5 -129.64 778.49C-129.64 778.49 -170.57 817.6 -127.53 852.31C-127.53 852.31 -158.33 890.54 -113.6 911.63C-113.6 911.63 -107.69 968.32 -63.81 931.4C-63.81 931.4 -19.92 940.19 -36.38 883.06C-36.38 883.06 30.29 861.53 -30.47 806.6C-30.47 806.6 7.50999 800.89 0.759995 756.51C-5.99001 712.13 -50.3 719.6 -50.3 719.6L-50.31 719.61Z" fill="#939597" stroke="#1D1D1B" stroke-width="9" stroke-miterlimit="10"/>
<path d="M67.9702 367.08C67.9702 367.08 48.2701 332.96 33.1802 362.6C33.1802 362.6 5.81016 360.64 19.8802 404.56C19.8802 404.56 -4.93984 429.45 21.1602 451.55C21.1602 451.55 2.48016 475.88 29.6002 489.31C29.6002 489.31 33.1801 525.39 59.7901 501.9C59.7901 501.9 86.4002 507.49 76.4202 471.13C76.4202 471.13 116.84 457.42 80.0002 422.46C80.0002 422.46 103.03 418.82 98.9302 390.57C94.8401 362.32 67.9702 367.07 67.9702 367.07V367.08Z" fill="#939597" stroke="#1D1D1B" stroke-width="7" stroke-miterlimit="10"/>
</g>
<g clip-path="url(#clip1_38_319)">
<path d="M137.2 1058.35L167.84 1052.3V1029.45H180.1L158.65 1015.15L148.44 1046.81L118.82 1036.75L137.2 1058.35Z" fill="#E0DE2A" stroke="#1D1D1B" stroke-width="3" stroke-miterlimit="10"/>
<path d="M107.62 1167.52L131.07 1159.15V1145.98L140.27 1136.68L118.82 1145.98V1156.09L107.62 1152.1" fill="#E0DE2A"/>
<path d="M107.62 1167.52L131.07 1159.15V1145.98L140.27 1136.68L118.82 1145.98V1156.09L107.62 1152.1" stroke="#1D1D1B" stroke-width="3" stroke-miterlimit="10"/>
<path d="M94.3099 813.45L105.89 817.02L94.3099 825.18L84.6099 819.31" fill="#E0DE2A"/>
<path d="M94.3099 813.45L105.89 817.02L94.3099 825.18L84.6099 819.31" stroke="#1D1D1B" stroke-width="3" stroke-miterlimit="10"/>
<path d="M-105.54 811.28C-105.54 811.28 -58.5802 736.87 -22.5901 801.52C-22.5901 801.52 42.6698 797.25 9.11984 893C9.11984 893 68.2798 947.28 6.06985 995.46C6.06985 995.46 50.5898 1048.52 -14.0602 1077.8C-14.0602 1077.8 -22.6002 1156.48 -86.0302 1105.25C-86.0302 1105.25 -149.46 1117.45 -125.67 1038.16C-125.67 1038.16 -222.03 1008.28 -134.21 932.04C-134.21 932.04 -189.1 924.11 -179.34 862.51C-169.58 800.91 -105.54 811.28 -105.54 811.28Z" fill="#939597" stroke="#1D1D1B" stroke-width="9" stroke-miterlimit="10"/>
<path d="M-20.3799 968.42C-20.3799 968.42 38.7801 1007.15 -20.3799 1042.52" stroke="#1D1D1B" stroke-width="9" stroke-miterlimit="10" stroke-linecap="round"/>
<path d="M82.18 914.73C82.18 914.73 34.89 840.32 -1.35003 904.97C-1.35003 904.97 -67.07 900.7 -33.29 996.45C-33.29 996.45 -92.87 1050.73 -30.22 1098.91C-30.22 1098.91 -75.06 1151.97 -9.95002 1181.25C-9.95002 1181.25 -1.35002 1259.93 62.52 1208.7C62.52 1208.7 126.4 1220.9 102.44 1141.61C102.44 1141.61 199.48 1111.73 111.04 1035.49C111.04 1035.49 166.32 1027.56 156.49 965.96C146.66 904.36 82.17 914.73 82.17 914.73H82.18Z" fill="#939597" stroke="#1D1D1B" stroke-width="9" stroke-miterlimit="10"/>
<path d="M105.89 945.13C105.89 945.13 84.3899 889.63 49.3799 922.56L105.89 945.13Z" fill="#939597"/>
<path d="M105.89 945.13C105.89 945.13 84.3899 889.63 49.3799 922.56" stroke="#1D1D1B" stroke-width="9" stroke-miterlimit="10" stroke-linecap="round"/>
<path d="M23.3099 901.89C23.3099 901.89 -41.7901 901.45 -6.17014 977.08" stroke="#1D1D1B" stroke-width="9" stroke-miterlimit="10" stroke-linecap="round"/>
<path d="M-3.58982 1071.88C-3.58982 1071.88 -63.1698 1110.61 -3.58982 1145.98" stroke="#1D1D1B" stroke-width="9" stroke-miterlimit="10" stroke-linecap="round"/>
<path d="M-50.31 1114.61C-50.31 1114.61 -82.8 1061 -107.7 1107.58C-107.7 1107.58 -152.85 1104.5 -129.64 1173.49C-129.64 1173.49 -170.57 1212.6 -127.53 1247.31C-127.53 1247.31 -158.33 1285.54 -113.6 1306.63C-113.6 1306.63 -107.69 1363.32 -63.81 1326.4C-63.81 1326.4 -19.92 1335.19 -36.38 1278.06C-36.38 1278.06 30.29 1256.53 -30.47 1201.6C-30.47 1201.6 7.50999 1195.89 0.759995 1151.51C-5.99001 1107.13 -50.3 1114.6 -50.3 1114.6L-50.31 1114.61Z" fill="#939597" stroke="#1D1D1B" stroke-width="9" stroke-miterlimit="10"/>
<path d="M67.9702 762.08C67.9702 762.08 48.2701 727.96 33.1802 757.6C33.1802 757.6 5.81016 755.64 19.8802 799.56C19.8802 799.56 -4.93984 824.45 21.1602 846.55C21.1602 846.55 2.48016 870.88 29.6002 884.31C29.6002 884.31 33.1801 920.39 59.7901 896.9C59.7901 896.9 86.4002 902.49 76.4202 866.13C76.4202 866.13 116.84 852.42 80.0002 817.46C80.0002 817.46 103.03 813.82 98.9302 785.57C94.8401 757.32 67.9702 762.07 67.9702 762.07V762.08Z" fill="#939597" stroke="#1D1D1B" stroke-width="7" stroke-miterlimit="10"/>
</g>
<g clip-path="url(#clip2_38_319)">
<path d="M137.2 316.35L167.84 310.3V287.45H180.1L158.65 273.15L148.44 304.81L118.82 294.75L137.2 316.35Z" fill="#E0DE2A" stroke="#1D1D1B" stroke-width="3" stroke-miterlimit="10"/>
<path d="M107.62 425.52L131.07 417.15V403.98L140.27 394.68L118.82 403.98V414.09L107.62 410.1" fill="#E0DE2A"/>
<path d="M107.62 425.52L131.07 417.15V403.98L140.27 394.68L118.82 403.98V414.09L107.62 410.1" stroke="#1D1D1B" stroke-width="3" stroke-miterlimit="10"/>
<path d="M94.3099 71.45L105.89 75.02L94.3099 83.18L84.6099 77.31" fill="#E0DE2A"/>
<path d="M94.3099 71.45L105.89 75.02L94.3099 83.18L84.6099 77.31" stroke="#1D1D1B" stroke-width="3" stroke-miterlimit="10"/>
<path d="M-105.54 69.28C-105.54 69.28 -58.5802 -5.12997 -22.5901 59.52C-22.5901 59.52 42.6698 55.25 9.11984 151C9.11984 151 68.2798 205.28 6.06985 253.46C6.06985 253.46 50.5898 306.52 -14.0602 335.8C-14.0602 335.8 -22.6002 414.48 -86.0302 363.25C-86.0302 363.25 -149.46 375.45 -125.67 296.16C-125.67 296.16 -222.03 266.28 -134.21 190.04C-134.21 190.04 -189.1 182.11 -179.34 120.51C-169.58 58.91 -105.54 69.28 -105.54 69.28Z" fill="#939597" stroke="#1D1D1B" stroke-width="9" stroke-miterlimit="10"/>
<path d="M-20.3799 226.42C-20.3799 226.42 38.7801 265.15 -20.3799 300.52" stroke="#1D1D1B" stroke-width="9" stroke-miterlimit="10" stroke-linecap="round"/>
<path d="M82.18 172.73C82.18 172.73 34.89 98.32 -1.35003 162.97C-1.35003 162.97 -67.07 158.7 -33.29 254.45C-33.29 254.45 -92.87 308.73 -30.22 356.91C-30.22 356.91 -75.06 409.97 -9.95002 439.25C-9.95002 439.25 -1.35002 517.93 62.52 466.7C62.52 466.7 126.4 478.9 102.44 399.61C102.44 399.61 199.48 369.73 111.04 293.49C111.04 293.49 166.32 285.56 156.49 223.96C146.66 162.36 82.17 172.73 82.17 172.73H82.18Z" fill="#939597" stroke="#1D1D1B" stroke-width="9" stroke-miterlimit="10"/>
<path d="M105.89 203.13C105.89 203.13 84.3899 147.63 49.3799 180.56L105.89 203.13Z" fill="#939597"/>
<path d="M105.89 203.13C105.89 203.13 84.3899 147.63 49.3799 180.56" stroke="#1D1D1B" stroke-width="9" stroke-miterlimit="10" stroke-linecap="round"/>
<path d="M23.3099 159.89C23.3099 159.89 -41.7901 159.45 -6.17014 235.08" stroke="#1D1D1B" stroke-width="9" stroke-miterlimit="10" stroke-linecap="round"/>
<path d="M-3.58982 329.88C-3.58982 329.88 -63.1698 368.61 -3.58982 403.98" stroke="#1D1D1B" stroke-width="9" stroke-miterlimit="10" stroke-linecap="round"/>
<path d="M-50.31 372.61C-50.31 372.61 -82.8 319 -107.7 365.58C-107.7 365.58 -152.85 362.5 -129.64 431.49C-129.64 431.49 -170.57 470.6 -127.53 505.31C-127.53 505.31 -158.33 543.54 -113.6 564.63C-113.6 564.63 -107.69 621.32 -63.81 584.4C-63.81 584.4 -19.92 593.19 -36.38 536.06C-36.38 536.06 30.29 514.53 -30.47 459.6C-30.47 459.6 7.50999 453.89 0.759995 409.51C-5.99001 365.13 -50.3 372.6 -50.3 372.6L-50.31 372.61Z" fill="#939597" stroke="#1D1D1B" stroke-width="9" stroke-miterlimit="10"/>
<path d="M67.9702 20.08C67.9702 20.08 48.2701 -14.04 33.1802 15.6C33.1802 15.6 5.81016 13.64 19.8802 57.56C19.8802 57.56 -4.93984 82.45 21.1602 104.55C21.1602 104.55 2.48016 128.88 29.6002 142.31C29.6002 142.31 33.1801 178.39 59.7901 154.9C59.7901 154.9 86.4002 160.49 76.4202 124.13C76.4202 124.13 116.84 110.42 80.0002 75.46C80.0002 75.46 103.03 71.82 98.9302 43.57C94.8401 15.32 67.9702 20.07 67.9702 20.07V20.08Z" fill="#939597" stroke="#1D1D1B" stroke-width="7" stroke-miterlimit="10"/>
</g>
<defs>
<clipPath id="clip0_38_319">
<rect width="370.05" height="601.4" fill="white" transform="translate(-185 347)"/>
</clipPath>
<clipPath id="clip1_38_319">
<rect width="370.05" height="601.4" fill="white" transform="translate(-185 742)"/>
</clipPath>
<clipPath id="clip2_38_319">
<rect width="370.05" height="601.4" fill="white" transform="translate(-185)"/>
</clipPath>
</defs>
</svg>
