<svg width="153" height="1344" viewBox="0 0 153 1344" fill="none" xmlns="http://www.w3.org/2000/svg">
<g clip-path="url(#clip0_38_605)">
<path d="M47.8495 632.05L17.2095 638.1L17.2095 660.95H4.94949L26.3995 675.25L36.6095 643.59L66.2295 653.65L47.8495 632.05Z" fill="#E0DE2A" stroke="#1D1D1B" stroke-width="3" stroke-miterlimit="10"/>
<path d="M77.4297 522.88L53.9797 531.25V544.42L44.7797 553.72L66.2297 544.42V534.31L77.4297 538.3" fill="#E0DE2A"/>
<path d="M77.4297 522.88L53.9797 531.25V544.42L44.7797 553.72L66.2297 544.42V534.31L77.4297 538.3" stroke="#1D1D1B" stroke-width="3" stroke-miterlimit="10"/>
<path d="M90.7394 876.95L79.1594 873.38L90.7394 865.22L100.439 871.09" fill="#E0DE2A"/>
<path d="M90.7394 876.95L79.1594 873.38L90.7394 865.22L100.439 871.09" stroke="#1D1D1B" stroke-width="3" stroke-miterlimit="10"/>
<path d="M290.59 879.12C290.59 879.12 243.63 953.53 207.64 888.88C207.64 888.88 142.38 893.15 175.93 797.4C175.93 797.4 116.77 743.12 178.98 694.94C178.98 694.94 134.46 641.88 199.11 612.6C199.11 612.6 207.65 533.92 271.08 585.15C271.08 585.15 334.51 572.95 310.72 652.24C310.72 652.24 407.08 682.12 319.26 758.36C319.26 758.36 374.15 766.29 364.39 827.89C354.63 889.49 290.59 879.12 290.59 879.12Z" fill="#939597" stroke="#1D1D1B" stroke-width="9" stroke-miterlimit="10"/>
<path d="M102.869 775.67C102.869 775.67 150.159 850.08 186.399 785.43C186.399 785.43 252.119 789.7 218.339 693.95C218.339 693.95 277.919 639.67 215.269 591.49C215.269 591.49 260.109 538.43 194.999 509.15C194.999 509.15 186.399 430.47 122.529 481.7C122.529 481.7 58.6493 469.5 82.6093 548.79C82.6093 548.79 -14.4307 578.67 74.0093 654.91C74.0093 654.91 18.7293 662.84 28.5593 724.44C38.3893 786.04 102.879 775.67 102.879 775.67H102.869Z" fill="#939597" stroke="#1D1D1B" stroke-width="9" stroke-miterlimit="10"/>
<path d="M79.1599 745.27C79.1599 745.27 100.66 800.77 135.67 767.84L79.1599 745.27Z" fill="#939597"/>
<path d="M79.1599 745.27C79.1599 745.27 100.66 800.77 135.67 767.84" stroke="#1D1D1B" stroke-width="9" stroke-miterlimit="10" stroke-linecap="round"/>
<path d="M117.08 928.32C117.08 928.32 136.78 962.44 151.87 932.8C151.87 932.8 179.24 934.76 165.17 890.84C165.17 890.84 189.99 865.95 163.89 843.85C163.89 843.85 182.57 819.52 155.45 806.09C155.45 806.09 151.87 770.01 125.26 793.5C125.26 793.5 98.6496 787.91 108.63 824.27C108.63 824.27 68.2096 837.98 105.05 872.94C105.05 872.94 82.0197 876.58 86.1197 904.83C90.2097 933.08 117.08 928.33 117.08 928.33V928.32Z" fill="#939597" stroke="#1D1D1B" stroke-width="7" stroke-miterlimit="10"/>
</g>
<g clip-path="url(#clip1_38_605)">
<path d="M47.8495 1027.05L17.2095 1033.1L17.2095 1055.95H4.94949L26.3995 1070.25L36.6095 1038.59L66.2295 1048.65L47.8495 1027.05Z" fill="#E0DE2A" stroke="#1D1D1B" stroke-width="3" stroke-miterlimit="10"/>
<path d="M77.4297 917.88L53.9797 926.25V939.42L44.7797 948.72L66.2297 939.42V929.31L77.4297 933.3" fill="#E0DE2A"/>
<path d="M77.4297 917.88L53.9797 926.25V939.42L44.7797 948.72L66.2297 939.42V929.31L77.4297 933.3" stroke="#1D1D1B" stroke-width="3" stroke-miterlimit="10"/>
<path d="M90.7394 1271.95L79.1594 1268.38L90.7394 1260.22L100.439 1266.09" fill="#E0DE2A"/>
<path d="M90.7394 1271.95L79.1594 1268.38L90.7394 1260.22L100.439 1266.09" stroke="#1D1D1B" stroke-width="3" stroke-miterlimit="10"/>
<path d="M290.59 1274.12C290.59 1274.12 243.63 1348.53 207.64 1283.88C207.64 1283.88 142.38 1288.15 175.93 1192.4C175.93 1192.4 116.77 1138.12 178.98 1089.94C178.98 1089.94 134.46 1036.88 199.11 1007.6C199.11 1007.6 207.65 928.92 271.08 980.15C271.08 980.15 334.51 967.95 310.72 1047.24C310.72 1047.24 407.08 1077.12 319.26 1153.36C319.26 1153.36 374.15 1161.29 364.39 1222.89C354.63 1284.49 290.59 1274.12 290.59 1274.12Z" fill="#939597" stroke="#1D1D1B" stroke-width="9" stroke-miterlimit="10"/>
<path d="M102.869 1170.67C102.869 1170.67 150.159 1245.08 186.399 1180.43C186.399 1180.43 252.119 1184.7 218.339 1088.95C218.339 1088.95 277.919 1034.67 215.269 986.49C215.269 986.49 260.109 933.43 194.999 904.15C194.999 904.15 186.399 825.47 122.529 876.7C122.529 876.7 58.6493 864.5 82.6093 943.79C82.6093 943.79 -14.4307 973.67 74.0093 1049.91C74.0093 1049.91 18.7293 1057.84 28.5593 1119.44C38.3893 1181.04 102.879 1170.67 102.879 1170.67H102.869Z" fill="#939597" stroke="#1D1D1B" stroke-width="9" stroke-miterlimit="10"/>
<path d="M79.1599 1140.27C79.1599 1140.27 100.66 1195.77 135.67 1162.84L79.1599 1140.27Z" fill="#939597"/>
<path d="M79.1599 1140.27C79.1599 1140.27 100.66 1195.77 135.67 1162.84" stroke="#1D1D1B" stroke-width="9" stroke-miterlimit="10" stroke-linecap="round"/>
<path d="M117.08 1323.32C117.08 1323.32 136.78 1357.44 151.87 1327.8C151.87 1327.8 179.24 1329.76 165.17 1285.84C165.17 1285.84 189.99 1260.95 163.89 1238.85C163.89 1238.85 182.57 1214.52 155.45 1201.09C155.45 1201.09 151.87 1165.01 125.26 1188.5C125.26 1188.5 98.6496 1182.91 108.63 1219.27C108.63 1219.27 68.2096 1232.98 105.05 1267.94C105.05 1267.94 82.0197 1271.58 86.1197 1299.83C90.2097 1328.08 117.08 1323.33 117.08 1323.33V1323.32Z" fill="#939597" stroke="#1D1D1B" stroke-width="7" stroke-miterlimit="10"/>
</g>
<g clip-path="url(#clip2_38_605)">
<path d="M47.8495 285.05L17.2095 291.1L17.2095 313.95H4.94949L26.3995 328.25L36.6095 296.59L66.2295 306.65L47.8495 285.05Z" fill="#E0DE2A" stroke="#1D1D1B" stroke-width="3" stroke-miterlimit="10"/>
<path d="M77.4297 175.88L53.9797 184.25V197.42L44.7797 206.72L66.2297 197.42V187.31L77.4297 191.3" fill="#E0DE2A"/>
<path d="M77.4297 175.88L53.9797 184.25V197.42L44.7797 206.72L66.2297 197.42V187.31L77.4297 191.3" stroke="#1D1D1B" stroke-width="3" stroke-miterlimit="10"/>
<path d="M90.7394 529.95L79.1594 526.38L90.7394 518.22L100.439 524.09" fill="#E0DE2A"/>
<path d="M90.7394 529.95L79.1594 526.38L90.7394 518.22L100.439 524.09" stroke="#1D1D1B" stroke-width="3" stroke-miterlimit="10"/>
<path d="M290.59 532.12C290.59 532.12 243.63 606.53 207.64 541.88C207.64 541.88 142.38 546.15 175.93 450.4C175.93 450.4 116.77 396.12 178.98 347.94C178.98 347.94 134.46 294.88 199.11 265.6C199.11 265.6 207.65 186.92 271.08 238.15C271.08 238.15 334.51 225.95 310.72 305.24C310.72 305.24 407.08 335.12 319.26 411.36C319.26 411.36 374.15 419.29 364.39 480.89C354.63 542.49 290.59 532.12 290.59 532.12Z" fill="#939597" stroke="#1D1D1B" stroke-width="9" stroke-miterlimit="10"/>
<path d="M102.869 428.67C102.869 428.67 150.159 503.08 186.399 438.43C186.399 438.43 252.119 442.7 218.339 346.95C218.339 346.95 277.919 292.67 215.269 244.49C215.269 244.49 260.109 191.43 194.999 162.15C194.999 162.15 186.399 83.4699 122.529 134.7C122.529 134.7 58.6493 122.5 82.6093 201.79C82.6093 201.79 -14.4307 231.67 74.0093 307.91C74.0093 307.91 18.7293 315.84 28.5593 377.44C38.3893 439.04 102.879 428.67 102.879 428.67H102.869Z" fill="#939597" stroke="#1D1D1B" stroke-width="9" stroke-miterlimit="10"/>
<path d="M79.1599 398.27C79.1599 398.27 100.66 453.77 135.67 420.84L79.1599 398.27Z" fill="#939597"/>
<path d="M79.1599 398.27C79.1599 398.27 100.66 453.77 135.67 420.84" stroke="#1D1D1B" stroke-width="9" stroke-miterlimit="10" stroke-linecap="round"/>
<path d="M117.08 581.32C117.08 581.32 136.78 615.44 151.87 585.8C151.87 585.8 179.24 587.76 165.17 543.84C165.17 543.84 189.99 518.95 163.89 496.85C163.89 496.85 182.57 472.52 155.45 459.09C155.45 459.09 151.87 423.01 125.26 446.5C125.26 446.5 98.6496 440.91 108.63 477.27C108.63 477.27 68.2096 490.98 105.05 525.94C105.05 525.94 82.0197 529.58 86.1197 557.83C90.2097 586.08 117.08 581.33 117.08 581.33V581.32Z" fill="#939597" stroke="#1D1D1B" stroke-width="7" stroke-miterlimit="10"/>
</g>
<defs>
<clipPath id="clip0_38_605">
<rect width="370.05" height="601.4" fill="white" transform="matrix(-1 0 0 -1 370.05 948.4)"/>
</clipPath>
<clipPath id="clip1_38_605">
<rect width="370.05" height="601.4" fill="white" transform="matrix(-1 0 0 -1 370.05 1343.4)"/>
</clipPath>
<clipPath id="clip2_38_605">
<rect width="370.05" height="601.4" fill="white" transform="matrix(-1 0 0 -1 370.05 601.4)"/>
</clipPath>
</defs>
</svg>
