<svg width="197" height="2540" viewBox="0 0 197 2540" fill="none" xmlns="http://www.w3.org/2000/svg">
<path d="M61 122.86C94.6894 122.86 122 95.5497 122 61.8604C122 28.171 94.6894 0.860352 61 0.860352C27.3106 0.860352 0 28.171 0 61.8604C0 95.5497 27.3106 122.86 61 122.86Z" fill="#E52421"/>
<path d="M58.5087 1694.42C89.1155 1708.5 125.34 1695.1 139.418 1664.49C153.497 1633.88 140.098 1597.66 109.491 1583.58C78.8844 1569.5 42.6599 1582.9 28.5815 1613.51C14.5031 1644.12 27.902 1680.34 58.5087 1694.42Z" fill="#E52421"/>
<path d="M136 2540C169.689 2540 197 2512.69 197 2479C197 2445.31 169.689 2418 136 2418C102.311 2418 75 2445.31 75 2479C75 2512.69 102.311 2540 136 2540Z" fill="#E52421"/>
<path d="M61.5 108.86C87.7335 108.86 109 87.5939 109 61.3604C109 35.1268 87.7335 13.8604 61.5 13.8604C35.2665 13.8604 14 35.1268 14 61.3604C14 87.5939 35.2665 108.86 61.5 108.86Z" fill="white"/>
<path d="M64.8136 1681.91C88.6467 1692.87 116.854 1682.44 127.817 1658.6C138.78 1634.77 128.346 1606.56 104.513 1595.6C80.6799 1584.64 52.4724 1595.07 41.5097 1618.9C30.547 1642.74 40.9805 1670.95 64.8136 1681.91Z" fill="white"/>
<path d="M136.5 2526C162.734 2526 184 2504.73 184 2478.5C184 2452.27 162.734 2431 136.5 2431C110.266 2431 89 2452.27 89 2478.5C89 2504.73 110.266 2526 136.5 2526Z" fill="white"/>
<path d="M42.6193 81.5767C39.9006 81.5767 37.477 81.1098 35.3487 80.1761C33.2341 79.2424 31.5521 77.9448 30.3026 76.2834C29.0668 74.6082 28.3939 72.6652 28.2841 70.4545H33.4744C33.5843 71.8139 34.0511 72.9879 34.875 73.9766C35.6989 74.9515 36.7768 75.7067 38.1087 76.2422C39.4406 76.7777 40.9167 77.0455 42.5369 77.0455C44.3494 77.0455 45.956 76.7296 47.3565 76.098C48.7571 75.4664 49.8556 74.5876 50.652 73.4616C51.4484 72.3357 51.8466 71.0312 51.8466 69.5483C51.8466 67.9967 51.4621 66.6304 50.6932 65.4496C49.9242 64.255 48.7983 63.3213 47.3153 62.6484C45.8324 61.9756 44.0199 61.6392 41.8778 61.6392H38.5V57.108H41.8778C43.553 57.108 45.0223 56.8059 46.2855 56.2017C47.5625 55.5975 48.558 54.7462 49.272 53.6477C49.9998 52.5492 50.3636 51.2585 50.3636 49.7756C50.3636 48.3475 50.0478 47.1049 49.4162 46.0476C48.7846 44.9903 47.892 44.1664 46.7386 43.576C45.599 42.9856 44.2533 42.6903 42.7017 42.6903C41.2462 42.6903 39.8731 42.9581 38.5824 43.4936C37.3054 44.0154 36.2618 44.7775 35.4517 45.7798C34.6416 46.7685 34.2022 47.9631 34.1335 49.3636H29.1903C29.2727 47.1529 29.9387 45.2169 31.1882 43.5554C32.4377 41.8802 34.0717 40.5758 36.0902 39.642C38.1224 38.7083 40.3537 38.2415 42.7841 38.2415C45.393 38.2415 47.6312 38.7701 49.4986 39.8274C51.366 40.871 52.8009 42.2509 53.8033 43.9673C54.8056 45.6837 55.3068 47.5374 55.3068 49.5284C55.3068 51.9039 54.6821 53.9292 53.4325 55.6044C52.1967 57.2796 50.5147 58.4399 48.3864 59.0852V59.4148C51.0502 59.8542 53.1304 60.987 54.6271 62.8132C56.1238 64.6257 56.8722 66.8707 56.8722 69.5483C56.8722 71.8414 56.2474 73.901 54.9979 75.7273C53.7621 77.5398 52.0732 78.9678 49.9311 80.0114C47.7891 81.0549 45.3518 81.5767 42.6193 81.5767ZM79.0547 81.5767C75.9515 81.5767 73.3082 80.7322 71.125 79.0433C68.9418 77.3407 67.2734 74.8759 66.12 71.6491C64.9666 68.4086 64.3899 64.4953 64.3899 59.9091C64.3899 55.3504 64.9666 51.4576 66.12 48.2308C67.2872 44.9903 68.9624 42.5187 71.1456 40.816C73.3426 39.0997 75.9789 38.2415 79.0547 38.2415C82.1304 38.2415 84.7599 39.0997 86.9432 40.816C89.1402 42.5187 90.8153 44.9903 91.9688 48.2308C93.1359 51.4576 93.7195 55.3504 93.7195 59.9091C93.7195 64.4953 93.1428 68.4086 91.9893 71.6491C90.8359 74.8759 89.1676 77.3407 86.9844 79.0433C84.8011 80.7322 82.1579 81.5767 79.0547 81.5767ZM79.0547 77.0455C82.1304 77.0455 84.5197 75.5625 86.2223 72.5966C87.925 69.6307 88.7763 65.4015 88.7763 59.9091C88.7763 56.2566 88.3849 53.1465 87.6023 50.5788C86.8333 48.0111 85.7211 46.0544 84.2656 44.7088C82.8239 43.3632 81.0869 42.6903 79.0547 42.6903C76.0064 42.6903 73.6241 44.1939 71.9077 47.201C70.1913 50.1944 69.3331 54.4304 69.3331 59.9091C69.3331 63.5616 69.7176 66.6648 70.4865 69.2188C71.2554 71.7727 72.3608 73.7157 73.8026 75.0476C75.258 76.3795 77.0088 77.0455 79.0547 77.0455Z" fill="black"/>
<path d="M59.0619 1649.23C56.5919 1648.1 54.5853 1646.66 53.0419 1644.92C51.511 1643.19 50.5251 1641.31 50.0842 1639.28C49.6615 1637.24 49.8622 1635.19 50.6862 1633.14L55.4016 1635.31C54.9334 1636.59 54.8669 1637.85 55.2022 1639.09C55.5433 1640.32 56.207 1641.46 57.1932 1642.5C58.1795 1643.54 59.4086 1644.4 60.8806 1645.08C62.5273 1645.84 64.1188 1646.22 65.6552 1646.23C67.1915 1646.25 68.5567 1645.91 69.7508 1645.22C70.9448 1644.53 71.8517 1643.51 72.4714 1642.16C73.1198 1640.75 73.3415 1639.35 73.1364 1637.95C72.937 1636.55 72.3043 1635.23 71.2382 1634C70.1721 1632.77 68.666 1631.7 66.7199 1630.81L63.6512 1629.4L65.5447 1625.28L68.6135 1626.69C70.1354 1627.39 71.5964 1627.73 72.9966 1627.71C74.4092 1627.7 75.6694 1627.34 76.7771 1626.64C77.8973 1625.94 78.7672 1624.92 79.387 1623.58C79.9837 1622.28 80.2161 1621.02 80.0841 1619.79C79.9521 1618.57 79.4855 1617.45 78.6844 1616.43C77.8957 1615.42 76.7966 1614.59 75.3869 1613.94C74.0646 1613.33 72.7053 1613 71.3089 1612.95C69.9307 1612.89 68.6641 1613.14 67.5093 1613.71C66.3601 1614.27 65.4617 1615.18 64.8141 1616.42L60.3232 1614.35C61.3219 1612.38 62.736 1610.9 64.5654 1609.91C66.4007 1608.91 68.4303 1608.41 70.6542 1608.41C72.8907 1608.41 75.1129 1608.91 77.3209 1609.93C79.6911 1611.02 81.5035 1612.44 82.7583 1614.18C84.0187 1615.91 84.7457 1617.76 84.939 1619.74C85.1324 1621.72 84.8131 1623.61 83.9811 1625.42C82.9884 1627.58 81.5745 1629.15 79.7392 1630.15C77.9165 1631.16 75.9035 1631.51 73.7002 1631.21L73.5625 1631.51C75.7989 1633.02 77.2155 1634.92 77.812 1637.2C78.4144 1639.47 78.1561 1641.83 77.0371 1644.26C76.0789 1646.34 74.6506 1647.95 72.7522 1649.09C70.8721 1650.22 68.7409 1650.81 66.3588 1650.86C63.9767 1650.92 61.5444 1650.37 59.0619 1649.23ZM92.1634 1664.46C89.3441 1663.16 87.2956 1661.29 86.0179 1658.84C84.746 1656.38 84.2603 1653.45 84.5609 1650.03C84.8672 1646.61 85.9786 1642.81 87.8951 1638.64C89.8001 1634.5 91.9508 1631.21 94.3471 1628.76C96.7617 1626.3 99.3164 1624.76 102.011 1624.12C104.725 1623.48 107.478 1623.8 110.273 1625.09C113.067 1626.37 115.097 1628.25 116.363 1630.72C117.648 1633.19 118.137 1636.13 117.831 1639.56C117.543 1642.98 116.446 1646.76 114.541 1650.9C112.624 1655.07 110.465 1658.38 108.063 1660.84C105.667 1663.29 103.121 1664.83 100.426 1665.47C97.7369 1666.09 94.9827 1665.75 92.1634 1664.46ZM94.0569 1660.34C96.8513 1661.63 99.6416 1661.28 102.428 1659.29C105.214 1657.31 107.755 1653.82 110.05 1648.83C111.576 1645.52 112.521 1642.53 112.883 1639.87C113.257 1637.21 113.064 1634.97 112.304 1633.14C111.557 1631.32 110.26 1629.98 108.414 1629.13C105.644 1627.86 102.852 1628.23 100.036 1630.24C97.2253 1632.24 94.6755 1635.73 92.386 1640.71C90.8597 1644.03 89.9122 1647.01 89.5435 1649.65C89.1748 1652.29 89.367 1654.52 90.1203 1656.33C90.886 1658.15 92.1982 1659.49 94.0569 1660.34Z" fill="black"/>
<path d="M109.083 2470.64C107.827 2468.22 107.121 2465.86 106.966 2463.54C106.816 2461.23 107.19 2459.14 108.086 2457.27C109 2455.4 110.413 2453.9 112.322 2452.78L114.721 2457.39C113.566 2458.11 112.741 2459.07 112.245 2460.26C111.761 2461.44 111.589 2462.74 111.73 2464.17C111.87 2465.6 112.315 2467.03 113.064 2468.47C113.901 2470.08 114.924 2471.35 116.131 2472.3C117.339 2473.26 118.626 2473.82 119.992 2474.01C121.359 2474.2 122.699 2473.95 124.015 2473.26C125.391 2472.54 126.425 2471.57 127.116 2470.34C127.82 2469.11 128.128 2467.68 128.04 2466.05C127.951 2464.43 127.412 2462.66 126.422 2460.76L124.861 2457.77L128.879 2455.68L130.44 2458.67C131.214 2460.16 132.161 2461.32 133.281 2462.16C134.407 2463.01 135.622 2463.5 136.926 2463.63C138.236 2463.77 139.549 2463.49 140.864 2462.81C142.131 2462.15 143.087 2461.29 143.732 2460.24C144.378 2459.2 144.696 2458.02 144.687 2456.73C144.684 2455.44 144.324 2454.11 143.607 2452.74C142.934 2451.45 142.062 2450.35 140.991 2449.46C139.938 2448.57 138.78 2447.99 137.516 2447.74C136.265 2447.48 135.003 2447.64 133.729 2448.22L131.445 2443.84C133.443 2442.89 135.468 2442.59 137.519 2442.93C139.582 2443.26 141.494 2444.11 143.255 2445.47C145.022 2446.84 146.467 2448.6 147.59 2450.76C148.796 2453.07 149.361 2455.3 149.287 2457.44C149.224 2459.58 148.663 2461.49 147.604 2463.17C146.546 2464.86 145.133 2466.16 143.368 2467.08C141.261 2468.17 139.176 2468.56 137.113 2468.22C135.057 2467.9 133.25 2466.95 131.694 2465.36L131.402 2465.51C132.243 2468.07 132.2 2470.44 131.272 2472.61C130.357 2474.78 128.712 2476.48 126.337 2477.72C124.303 2478.78 122.188 2479.17 119.991 2478.91C117.813 2478.65 115.766 2477.81 113.851 2476.4C111.935 2474.98 110.346 2473.06 109.083 2470.64ZM125.921 2502.95C124.487 2500.2 124.014 2497.46 124.503 2494.74C125.004 2492.02 126.419 2489.4 128.748 2486.89C131.088 2484.37 134.292 2482.05 138.359 2479.93C142.402 2477.82 146.121 2476.54 149.515 2476.07C152.928 2475.6 155.894 2475.95 158.413 2477.1C160.951 2478.25 162.93 2480.19 164.351 2482.92C165.773 2485.65 166.227 2488.38 165.714 2491.11C165.219 2493.84 163.801 2496.47 161.461 2498.99C159.138 2501.52 155.956 2503.83 151.913 2505.94C147.846 2508.06 144.109 2509.36 140.702 2509.83C137.308 2510.3 134.351 2509.96 131.832 2508.81C129.325 2507.65 127.355 2505.7 125.921 2502.95ZM129.939 2500.85C131.361 2503.58 133.78 2505.01 137.197 2505.15C140.614 2505.29 144.758 2504.09 149.629 2501.56C152.868 2499.87 155.445 2498.08 157.36 2496.2C159.282 2494.33 160.503 2492.44 161.024 2490.53C161.551 2488.63 161.345 2486.78 160.406 2484.98C158.997 2482.27 156.563 2480.86 153.103 2480.72C149.655 2480.58 145.502 2481.78 140.644 2484.31C137.405 2486 134.83 2487.78 132.921 2489.64C131.011 2491.5 129.799 2493.38 129.284 2495.27C128.775 2497.18 128.994 2499.04 129.939 2500.85Z" fill="black"/>
</svg>
