<svg width="1440" height="688" viewBox="0 0 1440 688" fill="none" xmlns="http://www.w3.org/2000/svg">
<g clip-path="url(#clip0_38_270)">
<path d="M718.157 568.729H-13V616.477H718.157V568.729Z" fill="#AAAAAB"/>
<path d="M-12.3799 687.34L129.564 688L112.531 616.719L-11.662 616.147L-12.3799 687.34Z" fill="#8D8D8D"/>
<path d="M129.564 688H195.609L217.83 616.477L112.531 616.719L129.564 688Z" fill="#989899"/>
<path d="M217.83 616.477H378.895L355.564 687.67H195.608L217.83 616.477Z" fill="#AAAAAB"/>
<path d="M354.847 635.211L341.99 677.676H298.363L308.511 635.211H354.847Z" fill="#F2D335"/>
<path d="M342.349 635.211H354.847L352.138 644.17L342.349 635.211Z" fill="black"/>
<path d="M329.493 635.211L349.136 654.165L346.363 663.278L316.636 635.211H329.493Z" fill="black"/>
<path d="M344.307 670.037L307.891 637.853L305.672 647.032L341.99 677.676L344.307 670.037Z" fill="black"/>
<path d="M328.481 677.676L303.453 656.432L301.789 663.278L319.344 677.676H328.481Z" fill="black"/>
<path d="M308.185 677.675L299.929 671.071L298.363 677.675H308.185Z" fill="black"/>
<path d="M1449.31 568.729H718.157V616.477H1449.31V568.729Z" fill="#AAAAAB"/>
<path d="M1448.66 687.34L1306.72 688L1323.78 616.719L1447.94 616.147L1448.66 687.34Z" fill="#8D8D8D"/>
<path d="M1306.72 688H1240.67L1218.45 616.477L1323.78 616.719L1306.72 688Z" fill="#989899"/>
<path d="M1218.45 616.477H1057.39L1080.72 687.67H1240.67L1218.45 616.477Z" fill="#AAAAAB"/>
<path d="M1081.63 633.648L1095.24 678.6H1141.44L1130.71 633.648H1081.63Z" fill="#F2D335"/>
<path d="M1094.88 633.648H1081.63L1084.5 643.114L1094.88 633.648Z" fill="black"/>
<path d="M1108.49 633.648L1087.7 653.702L1090.6 663.366L1122.09 633.648H1108.49Z" fill="black"/>
<path d="M1092.79 670.521L1131.36 636.443L1133.68 646.151L1095.24 678.6L1092.79 670.521Z" fill="black"/>
<path d="M1109.56 678.6L1136.06 656.124L1137.79 663.366L1119.22 678.6H1109.56Z" fill="black"/>
<path d="M1131.07 678.6L1139.78 671.6L1141.44 678.6H1131.07Z" fill="black"/>
<path d="M1448.66 89.8386H-13V535.994H1448.66V89.8386Z" fill="#3FA451"/>
<path d="M1448.66 535.994H-13V568.751H1448.66V535.994Z" fill="#8D8D8D"/>
<path d="M718.516 43.1912L-12.6085 42.2446L-12.8369 70.5545L718.288 71.5011L718.516 43.1912Z" fill="#AAAAAB"/>
<path d="M-12.9346 0.220139L130.314 0L112.759 42.2667L-12.5756 42.4428L-12.9346 0.220139Z" fill="#8D8D8D"/>
<path d="M130.314 0L196.326 0.0880556L218.221 42.5308L112.922 42.2447L130.314 0Z" fill="#989899"/>
<path d="M218.221 42.5308L379.287 42.7509L356.315 0.484258L196.326 0.286133L218.221 42.5308Z" fill="#AAAAAB"/>
<path d="M355.336 31.612L342.675 6.40613L299.048 6.34009L309 31.546L355.336 31.612Z" fill="#F2D335"/>
<path d="M342.838 31.59L355.336 31.612L352.66 26.2847L342.838 31.59Z" fill="black"/>
<path d="M329.982 31.568L349.691 20.3629L346.983 14.9475L317.125 31.546L329.982 31.568Z" fill="black"/>
<path d="M344.959 10.9411L308.38 29.9831L306.227 24.5237L342.675 6.40625L344.959 10.9411Z" fill="black"/>
<path d="M329.166 6.38403L304.008 18.954L302.409 14.8814L320.029 6.38403H329.166Z" fill="black"/>
<path d="M308.87 6.3621L300.582 10.2586L299.048 6.34009L308.87 6.3621Z" fill="black"/>
<path d="M718.516 43.1912L1448.73 44.1598L1448.5 72.4696L718.288 71.501L718.516 43.1912Z" fill="#AAAAAB"/>
<path d="M1450 2.11338L1307.47 1.54102L1324.24 43.8517L1448.92 44.358L1450 2.11338Z" fill="#8D8D8D"/>
<path d="M1307.47 1.54094L1241.42 1.45288L1218.84 43.8516H1324.14L1307.47 1.54094Z" fill="#989899"/>
<path d="M1218.84 43.8516L1057.78 43.6315L1081.47 1.45288L1241.42 1.65101L1218.84 43.8516Z" fill="#AAAAAB"/>
<path d="M1082.09 33.4832L1095.92 6.84644L1142.13 6.91248L1131.17 33.5493L1082.09 33.4832Z" fill="#F2D335"/>
<path d="M1095.34 33.5052L1082.09 33.4832L1084.99 27.8696L1095.34 33.5052Z" fill="black"/>
<path d="M1108.94 33.5272L1088.26 21.5957L1091.22 15.8721L1122.55 33.5492L1108.94 33.5272Z" fill="black"/>
<path d="M1093.44 11.6234L1131.85 31.8982L1134.2 26.1306L1095.92 6.84644L1093.44 11.6234Z" fill="black"/>
<path d="M1110.25 6.86841L1136.65 20.2308L1138.41 15.9381L1119.91 6.86841H1110.25Z" fill="black"/>
<path d="M1131.75 6.89038L1140.43 11.051L1142.13 6.91239L1131.75 6.89038Z" fill="black"/>
<path d="M-12.8368 70.5544L-13 89.9707L1448.66 91.8859L1448.83 72.4696L-12.8368 70.5544Z" fill="#8D8D8D"/>
<path opacity="0.56" d="M355.564 687.67L403.042 633.648H1015.13L1080.72 687.67L1057.39 616.477H378.895L355.564 687.67Z" fill="black"/>
</g>
<defs>
<clipPath id="clip0_38_270">
<rect width="1463" height="688" fill="white" transform="translate(-13)"/>
</clipPath>
</defs>
</svg>
