<svg width="118" height="258" viewBox="0 0 118 258" fill="none" xmlns="http://www.w3.org/2000/svg">
<g clip-path="url(#clip0_38_256)">
<path d="M112.04 58.5627L110.497 163.048C110.497 163.048 113.341 162.912 115.474 162.487C117.47 162.093 118.817 164.488 117.425 165.973C116.291 167.185 114.188 168.58 110.497 170.02C110.497 170.02 116.941 219.034 107.669 233.478C98.3962 247.921 93.2533 258.5 59.0075 257.985L59.0075 3.05176e-05H84.7524C84.7524 3.05176e-05 106.111 4.63776 112.04 58.5627Z" fill="#EC614E"/>
<path d="M101.406 182.145L92.6481 146.028C92.6481 146.028 63.9536 150.923 58.9922 149.12L58.9922 195.815C58.9922 195.815 97.2919 193.239 101.406 182.145Z" fill="#010202"/>
<path d="M102.692 160.729L96.0065 142.678V115.337L103.978 116.625L102.692 160.729Z" fill="#010202"/>
<path d="M103.978 111.972L96.0065 110.684V83.0849L102.692 62.4425L103.978 111.972Z" fill="#010202"/>
<path d="M92.1339 62.4426C92.1339 62.4426 65.7537 58.8355 58.9922 59.0931V18.0811C58.9922 18.0811 88.2767 18.3388 93.6768 25.3105L92.1339 62.4426Z" fill="#010202"/>
<path d="M102.949 237.358C103.403 235.872 90.8484 242.253 90.077 250.255C90.077 250.255 99.6065 248.452 102.949 237.358Z" fill="#FFE601"/>
<path d="M5.95999 58.5627L7.50286 163.048C7.50286 163.048 4.65913 162.912 2.52633 162.487C0.529663 162.093 -0.816574 164.488 0.575043 165.973C1.70951 167.186 3.81205 168.58 7.50286 170.02C7.50286 170.02 1.05908 219.034 10.3315 233.478C19.6039 247.921 24.7468 258.5 58.9927 257.985L58.9927 6.10352e-05H33.2478C33.2478 6.10352e-05 11.8744 4.63777 5.95999 58.5627Z" fill="#EC614E"/>
<path d="M16.5786 182.145L25.3367 146.028C25.3367 146.028 54.0313 150.923 58.9927 149.12L58.9927 195.815C58.9927 195.815 20.7081 193.239 16.5786 182.145Z" fill="#010202"/>
<path d="M15.2927 160.729L21.9937 142.678L21.9937 115.337L14.007 116.625L15.2927 160.729Z" fill="#010202"/>
<path d="M14.007 111.972L21.9937 110.684L21.9937 83.0849L15.2927 62.4425L14.007 111.972Z" fill="#010202"/>
<path d="M25.851 62.4426C25.851 62.4426 52.2312 58.8355 58.9927 59.0931V18.0811C58.9927 18.0811 29.7082 18.3388 24.3081 25.3105L25.851 62.4426Z" fill="#010202"/>
<path d="M15.0358 237.358C14.582 235.872 27.1368 242.253 27.9082 250.255C27.9082 250.255 18.3787 248.452 15.0358 237.358Z" fill="#FFE601"/>
<path opacity="0.21" d="M112.646 205.682C112.646 205.682 109.227 218.216 99.7428 228.112C94.1915 233.902 86.7947 237.57 78.8686 238.782C70.5037 240.07 37.7856 231.674 38.8142 238.616C39.6462 244.163 28.1048 235.342 23.8997 231.644C16.7147 225.324 7.48772 212.578 5.37004 198.649C5.37004 198.649 2.84395 227.537 30.9788 241.995C49.811 251.665 69.0062 238.646 84.6468 243.268C88.867 244.511 92.9814 240.449 96.4755 237.752C103.131 232.629 111.587 222.793 112.646 205.682Z" fill="#010202"/>
</g>
<defs>
<clipPath id="clip0_38_256">
<rect width="118" height="258" fill="white" transform="matrix(-1 0 0 -1 118 258)"/>
</clipPath>
</defs>
</svg>
